<?xml version="1.0" encoding="utf-8"?>
<!-- Generator: Adobe Illustrator 21.1.0, SVG Export Plug-In . SVG Version: 6.00 Build 0)  -->
<svg version="1.1" id="Capa_1" xmlns="http://www.w3.org/2000/svg" xmlns:xlink="http://www.w3.org/1999/xlink" x="0px" y="0px"
	 viewBox="0 0 41 40" style="enable-background:new 0 0 41 40;" xml:space="preserve">
<style type="text/css">
	.st0{fill:#B49651;}
	.st1{fill:#070707;}
</style>
<circle class="st0" cx="20.6" cy="19.8" r="13.9"/>
<path class="st0" d="M30.4,33.2c-1.9,1.5-4.3,2.9-8.9,3.4c-3.7,0.4-7.5-1.7-10.1-3.2l-1-0.5c-0.6-0.3-1.4-0.7-2.2-0.8
	c-0.1-0.8-0.5-1.6-0.8-2.2l-0.5-1c-1.4-2.5-3.5-6.4-3.2-10.1c0.5-4.6,1.9-7,3.4-8.9c0.6-0.8,1-1.6,1.1-2.4C9,7.4,9.8,7,10.6,6.4
	c2.1-1.4,4.5-2.9,9-3.4c3.7-0.4,7.5,1.7,10.1,3.2l1,0.5c0.6,0.3,1.4,0.7,2.2,0.8c0.1,0.8,0.5,1.6,0.8,2.2l0.5,1
	c1.4,2.5,3.5,6.4,3.2,10.1c-0.5,4.6-1.9,7-3.4,8.9c-0.6,0.8-1,1.6-1.1,2.4C32.1,32.2,31.3,32.6,30.4,33.2L30.4,33.2z M34.2,32.9
	c0-0.2,0-0.5,0-0.8c0.1-0.5,0.4-1,0.8-1.6c1.5-2,3.2-4.7,3.7-9.6c0.4-4.1-1.8-8.2-3.3-10.9l-0.5-0.9c-0.3-0.6-0.5-1.2-0.6-1.6
	c-0.1-0.7,0-1.2,0.4-1.7c-0.5,0.4-1,0.5-1.7,0.4c-0.5-0.1-1-0.3-1.6-0.6l-1-0.6c-2.7-1.5-6.7-3.8-10.9-3.3c-4.9,0.5-7.6,2.2-9.6,3.7
	C9.3,5.8,8.8,6.1,8.3,6.2c-0.3,0-0.5,0-0.8,0S6.9,6,6.7,5.9C6.8,6.1,6.9,6.4,7,6.8C7,7,7,7.3,7,7.6C6.8,8,6.6,8.6,6.1,9.1
	c-1.5,2-3.2,4.7-3.7,9.6C2,22.9,4.2,26.9,5.7,29.6l0.5,0.9c0.3,0.6,0.5,1.2,0.6,1.6c0.1,0.7,0,1.2-0.4,1.7c0.5-0.4,1-0.5,1.7-0.4
	c0.5,0.1,1,0.3,1.6,0.6l0.9,0.5c2.7,1.5,6.8,3.8,10.9,3.3c4.9-0.5,7.6-2.2,9.6-3.7c0.6-0.4,1.1-0.7,1.6-0.8c0.3-0.1,0.5-0.1,0.8,0
	c0.3,0,0.6,0.2,0.9,0.3C34.4,33.5,34.3,33.2,34.2,32.9L34.2,32.9z"/>
<g>
	<path class="st1" d="M21.2,28.2v-6c2.8-0.3,4.9-2.7,4.9-5.4c0-1-0.3-2.3-0.8-3.5c-0.1-0.3-0.4-0.4-0.6-0.4h-8
		c-0.3,0-0.5,0.2-0.6,0.4c-0.4,1.1-0.8,2.4-0.8,3.6l0,0l0,0c0.1,2.7,2.1,5,4.9,5.3v6c-1.9,0.2-3.3,1-3.3,1.4c0,0.5,1.7,0.8,3.9,0.8
		c2.1,0,3.9-0.4,3.9-0.8C24.4,29.2,23,28.4,21.2,28.2z M16.9,14h7.4c0.4,1,0.6,2,0.6,2.8c0,0.2,0,0.4,0,0.6c-0.4-0.1-0.7-0.1-1.2,0
		c-1.1,0.4-1.8,0.6-2.8,0.2c-1.1-0.4-1.8-2.3-3.1-2.2c-0.5,0.1-1,0.2-1.4,0.5C16.5,15.3,16.7,14.6,16.9,14z"/>
</g>
</svg>
