<?xml version="1.0" encoding="utf-8"?>
<!-- Generator: Adobe Illustrator 21.1.0, SVG Export Plug-In . SVG Version: 6.00 Build 0)  -->
<svg version="1.1" id="Capa_1" xmlns="http://www.w3.org/2000/svg" xmlns:xlink="http://www.w3.org/1999/xlink" x="0px" y="0px"
	 viewBox="0 0 39 39" style="enable-background:new 0 0 39 39;" xml:space="preserve">
<style type="text/css">
	.st0{fill:#B49651;}
	.st1{fill:#070707;}
</style>
<circle class="st0" cx="19.6" cy="19" r="13.9"/>
<path class="st0" d="M29.5,32.4c-1.9,1.5-4.3,2.9-8.9,3.4c-3.7,0.4-7.5-1.7-10.1-3.2l-1-0.5c-0.6-0.3-1.4-0.7-2.2-0.8
	c-0.1-0.8-0.5-1.6-0.8-2.2l-0.5-1C4.6,25.6,2.4,21.7,2.8,18c0.5-4.6,1.9-7,3.4-8.9c0.6-0.8,1-1.6,1.1-2.4C8.2,6.6,9,6.3,9.8,5.6
	c1.9-1.5,4.3-2.9,8.9-3.4c3.7-0.4,7.5,1.7,10.1,3.2l1,0.5c0.6,0.3,1.4,0.7,2.2,0.8c0.1,0.8,0.5,1.6,0.8,2.2l0.5,1
	c1.4,2.5,3.5,6.4,3.2,10.1c-0.5,4.6-1.9,7-3.4,8.9c-0.6,0.8-1,1.6-1.1,2.4C31.1,31.4,30.3,31.7,29.5,32.4L29.5,32.4z M33.2,32.1
	c0-0.2,0-0.5,0-0.8c0.1-0.5,0.4-1,0.8-1.6c1.5-2,3.2-4.7,3.7-9.6c0.4-4.1-1.8-8.2-3.3-10.9l-0.5-0.9c-0.3-0.6-0.5-1.2-0.6-1.6
	c-0.1-0.7,0-1.2,0.4-1.7c-0.5,0.4-1,0.5-1.7,0.4c-0.5-0.1-1-0.3-1.6-0.6l-0.9-0.5C26.8,2.8,22.8,0.5,18.6,1c-5,0.3-7.7,2-9.7,3.5
	C8.3,5,7.8,5.2,7.3,5.3C7,5.4,6.8,5.4,6.5,5.4S5.9,5.2,5.6,5.1C5.8,5.3,6,5.6,6,5.9c0,0.2,0,0.5,0,0.8c-0.1,0.5-0.4,1-0.8,1.6
	c-1.5,2-3.2,4.7-3.7,9.6C1,22,3.3,26.1,4.8,28.8l0.5,0.9c0.3,0.6,0.5,1.2,0.6,1.6C6,32,5.9,32.5,5.5,33c0.5-0.4,1-0.5,1.7-0.4
	c0.5,0.1,1,0.3,1.6,0.6l0.9,0.5c2.7,1.5,6.8,3.8,10.9,3.3c4.9-0.5,7.6-2.2,9.6-3.7c0.6-0.4,1.1-0.7,1.6-0.8c0.3-0.1,0.5-0.1,0.8,0
	c0.3,0,0.6,0.2,0.9,0.3C33.4,32.7,33.3,32.4,33.2,32.1L33.2,32.1z"/>
<g>
	<path class="st1" d="M9.5,24.5c0.3-0.5,0.8-0.8,1.3-1c0.8-0.3,1.5-0.5,2.3-0.7c0.1,0,0.2,0,0.4,0.1c-0.2,0.1-0.4,0.2-0.6,0.3
		c-0.5,0.3-1,0.5-1.4,0.9c-0.5,0.4-0.5,0.9,0,1.3s1.1,0.7,1.7,1c0.1,0.1,0.2,0.1,0.4,0.2c-0.1,0.1-0.1,0.1-0.2,0.1
		c-1.1-0.2-2.1-0.4-3.1-1C10,25.5,9.8,25.2,9.6,25C9.5,24.8,9.5,24.7,9.5,24.5z"/>
	<path class="st1" d="M29.7,24.9c-0.3,0.6-0.8,0.9-1.4,1.1c-0.8,0.3-1.5,0.5-2.3,0.7c-0.1,0-0.1,0-0.2-0.1c0.3-0.1,0.6-0.2,0.9-0.4
		c0.4-0.2,0.9-0.5,1.2-0.8c0.5-0.4,0.5-0.9,0-1.3s-1.1-0.7-1.7-1C26,23,25.9,23,25.8,22.9v-0.1c0.2,0,0.4,0,0.6,0.1
		c0.7,0.2,1.4,0.4,2.1,0.7c0.5,0.2,0.8,0.6,1.2,1C29.7,24.7,29.7,24.8,29.7,24.9z"/>
	<path class="st1" d="M15,23.4c-0.6,0.3-1.2,0.6-1.2,1.2c-0.1,0.9,0.8,1.2,1.5,1.6c0,0,0,0.1-0.1,0.1c-0.7-0.3-1.5-0.5-2.1-0.9
		c-0.7-0.4-0.7-1,0-1.4c0.3-0.2,0.6-0.3,1-0.5c0.3-0.1,0.6-0.2,1-0.3c0-0.6,0-1.3,0-1.9c0-0.9,0.6-1.5,1.5-1.6c0.4,0,0.9,0,1.3,0
		c0.5,0,0.7-0.3,0.5-0.8c-0.1-0.3-0.3-0.5-0.6-0.7c-0.5-0.4-0.8-0.9-1-1.5c-0.1-0.3-0.3-0.6-0.4-1c-0.4-0.9-0.5-1.9-0.3-2.9
		c0.1-0.4,0-0.9,0.1-1.3c0.4-2,2.8-2.8,4.4-1.6c0.1,0.1,0.3,0.2,0.5,0.3c1.2,0.5,1.8,1.5,1.9,2.7c0,0.2,0.1,0.4,0.1,0.6
		c0.4,1.1,0.3,2.1-0.4,3c-0.3,0.3-0.5,0.7-0.7,1s-0.5,0.6-0.8,0.9c-0.1,0.1-0.3,0.3-0.4,0.4c-0.1,0.2-0.2,0.5-0.1,0.6
		c0.1,0.2,0.4,0.2,0.6,0.2c0.5,0,0.9,0,1.4,0c1,0,1.6,0.6,1.6,1.6c0,0.6,0,1.2,0,1.8c0,0,0,0.1,0,0c0.6,0.3,1.2,0.4,1.8,0.7
		c0.9,0.5,0.9,1.1,0,1.6c-0.6,0.3-1.3,0.5-2,0.8c0,0,0-0.1-0.1-0.1c0.2-0.1,0.5-0.3,0.7-0.4c1-0.7,1-1.5,0-2.1
		c-0.1-0.1-0.3-0.1-0.5-0.2c0,0.4,0,0.7,0,1c0,0.4-0.1,0.7-0.5,0.7c-0.8,0.2-1.7,0.4-2.5,0.5c-1.7,0.1-3.3,0.1-5-0.2
		c-0.1,0-0.1,0-0.2,0c-1-0.2-1-0.3-1-1.4C15,23.8,15,23.6,15,23.4z M16.8,15.3c0.1-0.2,0.1-0.3,0.1-0.3c0.5-1.2,1.3-1.9,2.6-1.9
		c0.8,0,1.6,0,2.4,0c0.2,0,0.3,0,0.5,0c0-1.6-1.2-2.7-2.7-2.6C17.2,10.7,15.8,13,16.8,15.3z M22.3,16c0.5-0.7,0.6-1.4,0.3-2
		c0-0.1-0.1-0.3-0.2-0.3c-0.4,0-0.8,0-1.3,0C21.9,14.3,22.3,15,22.3,16z M16.7,11.6c0.8-0.9,1.7-1.4,2.8-1.5
		C18.4,9.5,16.9,10.3,16.7,11.6z M20,17.9c-0.3,0-0.6,0-0.9,0C19.4,18.3,19.6,18.3,20,17.9z M19.9,17.6c-0.3-0.4-0.6-0.4-0.8,0
		C19.4,17.6,19.7,17.6,19.9,17.6z"/>
</g>
<circle class="st1" cx="19.5" cy="17.7" r="0.7"/>
<path class="st1" d="M26.7,19.5c-0.3,0-0.5-0.3-0.3-0.6c0-0.1,0.1-0.2,0.2-0.2c0.1-0.3,0.3-0.5,0.4-0.8c0.1-0.4,0.1-0.7-0.2-1
	c-0.2-0.3-0.4-0.6-0.4-0.9c0-0.5,0.1-0.9,0.5-1.2c0.2-0.1,0.4-0.1,0.5,0s0.2,0.3,0,0.5c-0.3,0.3-0.3,0.7,0,1.1
	c0.2,0.3,0.4,0.6,0.4,0.9c0.1,0.5-0.1,1-0.3,1.5c-0.1,0.2-0.2,0.4-0.3,0.5C26.9,19.3,26.8,19.4,26.7,19.5z"/>
<path class="st1" d="M11.6,17.7c0-0.5,0.1-0.8,0.3-1.1c0.1-0.2,0.2-0.3,0.3-0.5c0.1-0.3,0.1-0.5-0.1-0.8C12,15.2,12,15.2,12,15.1
	c-0.1-0.2,0-0.3,0.1-0.4c0.1-0.1,0.3-0.1,0.5,0.1c0.4,0.4,0.6,0.9,0.4,1.4c-0.1,0.2-0.2,0.4-0.3,0.6c-0.4,0.5-0.4,0.9-0.1,1.4
	c0.1,0.2,0.2,0.4,0.3,0.6C13,18.9,13,19,13,19.1s-0.1,0.3-0.2,0.3c-0.2,0.1-0.3,0-0.4-0.1C11.9,18.8,11.6,18.2,11.6,17.7z"/>
</svg>
