<?xml version="1.0" encoding="utf-8"?>
<!-- Generator: Adobe Illustrator 21.1.0, SVG Export Plug-In . SVG Version: 6.00 Build 0)  -->
<svg version="1.1" id="Capa_1" xmlns="http://www.w3.org/2000/svg" xmlns:xlink="http://www.w3.org/1999/xlink" x="0px" y="0px"
	 viewBox="0 0 38 39" style="enable-background:new 0 0 38 39;" xml:space="preserve">
<style type="text/css">
	.st0{fill:#B49651;}
	.st1{fill:#070707;}
</style>
<circle class="st0" cx="19.4" cy="20" r="13.9"/>
<path class="st0" d="M29.2,33.4c-1.9,1.5-4.3,2.9-8.9,3.4c-3.7,0.4-7.5-1.7-10.1-3.2l-1-0.5c-0.6-0.3-1.4-0.7-2.2-0.8
	c-0.1-0.8-0.5-1.6-0.8-2.2l-0.5-1C4.3,26.6,2.2,22.7,2.5,19c0.5-4.6,1.9-7,3.4-8.9c0.6-0.8,1-1.6,1.1-2.4c0.8-0.1,1.6-0.5,2.4-1.1
	c1.9-1.5,4.3-2.9,8.9-3.4c3.7-0.4,7.5,1.7,10.1,3.2l1,0.5c0.6,0.3,1.4,0.7,2.2,0.8c0.1,0.8,0.5,1.6,0.8,2.2l0.5,1
	c1.4,2.5,3.5,6.4,3.2,10.1c-0.5,4.6-1.9,7-3.4,8.9c-0.6,0.8-1,1.6-1.1,2.4C30.8,32.4,30,32.8,29.2,33.4L29.2,33.4z M33,33.1
	c0-0.2,0-0.5,0-0.8c0.1-0.5,0.4-1,0.8-1.6c1.5-2,3.2-4.7,3.7-9.6c0.4-4.1-1.8-8.2-3.3-10.9l-0.5-0.9c-0.3-0.6-0.5-1.2-0.6-1.6
	C33,7,33.1,6.5,33.5,6c-0.5,0.4-1,0.5-1.7,0.4c-0.5-0.1-1-0.3-1.6-0.6l-0.9-0.5C26.6,3.8,22.6,1.5,18.4,2c-5.1,0.4-7.8,2-9.8,3.6
	C8.1,6,7.6,6.3,7.1,6.4c-0.3,0.1-0.5,0.1-0.8,0C6,6.4,5.7,6.3,5.4,6.1C5.6,6.3,5.7,6.6,5.8,7c0,0.2,0,0.5,0,0.8
	C5.7,8.3,5.4,8.8,5,9.4c-1.5,2-3.2,4.7-3.7,9.6C0.8,23.1,3,27.1,4.5,29.8l0.5,1c0.3,0.6,0.5,1.2,0.6,1.6c0.1,0.7,0,1.2-0.4,1.7
	c0.5-0.4,1-0.5,1.7-0.4c0.5,0.1,1,0.3,1.6,0.6l0.9,0.5c2.7,1.5,6.8,3.8,10.9,3.3c4.9-0.5,7.6-2.2,9.6-3.7c0.6-0.4,1.1-0.7,1.6-0.8
	c0.3-0.1,0.5-0.1,0.8,0c0.3,0,0.6,0.2,0.9,0.3C33.2,33.7,33,33.5,33,33.1L33,33.1z"/>
<g>
	<path class="st1" d="M31.3,21.6c-0.4-0.1-0.7-0.2-1.1-0.3c-0.1,0-0.1,0-0.2-0.1c-0.3-0.1-0.6-0.2-0.8-0.3c-0.5-0.2-1-0.3-1.5-0.4
		c-0.9-0.3-2-0.1-2.9,0.1c-0.5,0.1-0.9,0.2-1.3,0.3c-0.3,0.1-0.6,0.2-0.9,0.3c-0.2,0-0.4,0.1-0.5,0.1c-0.8,0.1-1.5,0-2.2-0.2
		c-0.5-0.2-1-0.3-1.5-0.5c-0.6-0.2-1.1-0.3-1.7-0.3c-1,0-2,0-3.1,0.4C13.3,20.8,13,21,12.7,21c-0.3,0.1-0.6,0.1-0.8,0.2
		c-0.2,0-0.4,0.1-0.6,0.1c0,0.5,0,0.9,0,1.4c0.1,0,0.2,0,0.3,0c0.4,0.1,0.8-0.1,1.2-0.2c0.3-0.1,0.5-0.2,0.8-0.3
		c0.3-0.1,0.6-0.3,0.9-0.3c0.4-0.1,0.8-0.1,1.2-0.2c0.5,0,1,0,1.5,0c0.4,0,0.9,0.2,1.3,0.3c0.9,0.3,1.9,0.6,2.9,0.6s1.8-0.4,2.8-0.6
		c0.5-0.1,1-0.2,1.5-0.3c0.3,0,0.6,0,0.9,0s0.7,0,1,0.1c0.4,0.1,0.9,0.3,1.3,0.4s0.7,0.3,1.1,0.4s0.7,0.2,1.1,0.2
		C31.3,22.4,31.3,22,31.3,21.6z"/>
	<path class="st1" d="M20.5,18.6L20.5,18.6c0.1,0.1-0.7,0.3-0.8,0.3c-0.2,0.1-0.4,0.1-0.6,0.2c-0.3,0.1-0.6,0.2-1,0.3
		c-0.4,0.1-0.9,0.2-1.3,0.3l-0.1,0.1l0.1,0.1c0.4,0,0.7,0.1,1.1,0.1c0.4,0.1,0.8,0.2,1.1,0.3c0.3,0.1,0.6,0.2,0.9,0.3
		c0.4,0.1,0.8,0.2,1.1,0.2c0.4,0,0.8,0,1.2,0c0.4-0.1,0.8-0.2,1.2-0.3c0.4-0.1,0.8-0.2,1.3-0.3c0.1,0,0.2,0,0.3,0
		c0.1,0,0.2-0.1,0.2-0.1s0-0.1-0.1-0.2c-0.5-0.5-1-1.1-1.5-1.6c-0.3-0.3-0.6-0.6-0.8-0.9c-0.4-0.4-0.7-0.8-1.1-1.2
		c-0.2-0.2-0.5-0.5-0.7-0.7s-0.5-0.3-0.8-0.5s-0.7-0.3-1.1-0.3c-1.5,0-3,0-4.6,0c-0.5,0-1,0.3-1.2,0.8c-0.1,0.3,0,0.8,0.3,1
		s0.6,0.3,0.9,0.3c1.3,0,2.6,0,3.8,0c0.2,0,0.4,0.1,0.6,0.2c0.2,0.2,0.3,0.4,0.5,0.5c0.3,0.3,0.6,0.6,0.8,0.9
		C20.3,18.4,20.4,18.5,20.5,18.6z"/>
	<path class="st1" d="M26.7,20c0.6,0,1.1-0.3,1.6-0.7c0.4-0.5,0.6-1,0.5-1.6c-0.1-0.4-0.2-0.8-0.5-1.1c-1.2-1.2-3.1-0.6-3.5,1
		c-0.1,0.5-0.1,0.9,0.1,1.3C25.3,19.6,25.9,20,26.7,20z"/>
	<path class="st1" d="M31.3,23.5c-0.4-0.1-0.7-0.2-1.1-0.3c-0.1,0-0.1,0-0.2-0.1c-0.3-0.1-0.6-0.2-0.8-0.3c-0.5-0.2-1-0.3-1.5-0.4
		c-0.9-0.3-2-0.1-2.9,0.1c-0.5,0.1-0.9,0.2-1.3,0.3c-0.3,0.1-0.6,0.2-0.9,0.3c-0.2,0-0.4,0.1-0.5,0.1c-0.8,0.1-1.5,0-2.2-0.2
		c-0.5-0.2-1-0.3-1.5-0.5c-0.6-0.2-1.1-0.3-1.7-0.3c-1,0-2,0-3.1,0.4c-0.3,0.1-0.6,0.2-0.9,0.3c-0.3,0.1-0.6,0.1-0.8,0.2
		c-0.2,0-0.4,0.1-0.6,0.1c0,0.5,0,0.9,0,1.4c0.1,0,0.2,0,0.3,0c0.4,0.1,0.8-0.1,1.2-0.2c0.3-0.1,0.5-0.2,0.8-0.3
		c0.3-0.1,0.6-0.3,0.9-0.3c0.4-0.1,0.8-0.1,1.2-0.2c0.5,0,1,0,1.5,0c0.4,0,0.9,0.2,1.3,0.3c0.9,0.3,1.9,0.6,2.9,0.6s1.8-0.4,2.8-0.6
		c0.5-0.1,1-0.2,1.5-0.3c0.3,0,0.6,0,0.9,0s0.7,0,1,0.1c0.4,0.1,0.9,0.3,1.3,0.4s0.7,0.3,1.1,0.4s0.7,0.2,1.1,0.2
		C31.3,24.4,31.3,24,31.3,23.5z"/>
</g>
<path class="st1" d="M12.6,18.1c-0.3,0-0.6-0.1-0.8-0.4c-0.6-0.6-1.2-0.5-1.8-0.2c-0.1,0.1-0.2,0.1-0.4,0.2s-0.4,0.1-0.5-0.1
	s0-0.4,0.2-0.5c0.5-0.3,1.1-0.6,1.8-0.6c0.3,0,0.7,0.1,0.9,0.4c0.2,0.1,0.3,0.2,0.5,0.3c0.3,0.1,0.5,0.1,0.8-0.1
	c0.1,0,0.1-0.1,0.2-0.1c0.1-0.1,0.3,0,0.4,0.1c0.1,0.2,0.1,0.3-0.1,0.5C13.5,17.9,13.1,18.1,12.6,18.1z"/>
<path class="st1" d="M10.7,20.4c-0.3,0-0.6-0.1-0.8-0.4c-0.6-0.6-1.2-0.5-1.8-0.2C8,19.9,7.9,20,7.8,20.1c-0.2,0.1-0.4,0.1-0.5-0.1
	s0-0.4,0.2-0.5c0.5-0.3,1.1-0.6,1.8-0.6c0.3,0,0.7,0.1,0.9,0.4c0.2,0.1,0.3,0.2,0.5,0.3c0.3,0.1,0.5,0.1,0.8-0.1
	c0.1,0,0.1-0.1,0.2-0.1c0.1-0.1,0.3,0,0.4,0.1c0.1,0.2,0.1,0.3-0.1,0.5C11.6,20.3,11.2,20.4,10.7,20.4z"/>
</svg>
