<?xml version="1.0" encoding="utf-8"?>
<!-- Generator: Adobe Illustrator 21.1.0, SVG Export Plug-In . SVG Version: 6.00 Build 0)  -->
<svg version="1.1" id="Capa_1" xmlns="http://www.w3.org/2000/svg" xmlns:xlink="http://www.w3.org/1999/xlink" x="0px" y="0px"
	 viewBox="0 0 400 400" style="enable-background:new 0 0 400 400;" xml:space="preserve">
<style type="text/css">
	.st0{fill:#B49651;stroke:#FFFFFF;stroke-miterlimit:10;}
	.st1{fill:#B49651;}
</style>
<path class="st0" d="M306.1,343.5c-20.7,16.1-46.7,31.8-95.9,36.9c-39.9,4.2-81.2-18.8-108.5-34.1l-10.3-5.7
	c-6.9-3.7-15.3-7.5-24.1-8.8c-1.3-8.8-5-17.2-8.8-24.1l-5.7-10.3c-15.2-27.4-38.2-68.6-34.1-108.6c5.1-49.2,20.8-75.1,36.9-95.9
	c6.8-8.7,10.8-17.3,12.1-25.7C76.2,66,84.9,62,93.5,55.2c20.7-16.2,46.7-31.7,95.8-36.9c39.9-4.2,81.2,18.8,108.6,34.1l10.3,5.7
	c6.9,3.7,15.3,7.5,24.1,8.8c1.3,8.8,5,17.2,8.8,24.1l5.6,10.3c15.2,27.3,38.3,68.7,34.1,108.5c-5.2,49.1-20.8,75.1-36.9,95.9
	c-6.7,8.7-10.8,17.3-12.1,25.7C323.4,332.7,314.7,336.7,306.1,343.5L306.1,343.5z M346.6,340.3c-0.4-2.6-0.2-5.4,0.4-8.3
	c1.2-5.4,4.1-11.2,8.8-17.1c16.6-21.4,34.5-50.5,40-103.5c4.6-44.7-19.8-88.5-35.9-117.5l-5.6-10.1c-3.6-6.7-5.8-12.5-6.8-17.7
	c-1.4-7.2-0.1-13.2,3.8-18.5c-5.3,3.9-11.2,5.2-18.4,3.9c-5.2-0.9-11-3.2-17.7-6.8l-10.1-5.5C276.3,23,232.5-1.4,187.8,3.3
	c-53,5.5-82.1,23.4-103.6,40c-5.9,4.7-11.7,7.6-17.1,8.8c-2.9,0.7-5.6,0.8-8.3,0.5c-3.7-0.5-6.8-1.9-9.2-3.4
	c1.5,2.4,2.9,5.5,3.4,9.2c0.4,2.7,0.2,5.5-0.5,8.3c-1.2,5.5-4.1,11.2-8.8,17.1C27,105.2,9.3,134.3,3.7,187.4
	c-4.6,44.7,19.8,88.5,35.9,117.5l5.6,10.1c3.7,6.7,5.9,12.5,6.8,17.7c1.4,7.2,0,13.2-3.9,18.5c5.3-4,11.3-5.2,18.5-3.9
	c5.1,0.9,10.9,3.2,17.6,6.8l10.1,5.6c29,16.2,72.9,40.5,117.4,35.9c53.1-5.5,82.2-23.3,103.6-40c6-4.7,11.7-7.6,17.1-8.7
	c2.8-0.6,5.6-0.8,8.3-0.4c3.7,0.4,6.8,1.8,9.2,3.3C348.5,347.2,347.1,344.1,346.6,340.3L346.6,340.3z"/>
<g>
	<path class="st1" d="M207.7,244.1c14.9-3.6,21.9-16.3,16.7-30.7c-0.6,0.9-1,1.9-1.6,2.2c-1.4,0.6-3,0.9-4.5,1.3
		c0.1-1.5,0.1-3.1,0.4-4.6c0.2-0.9,1-1.7,1.4-2.6c2.1-4.8,0.6-9.9-3.3-12.4c-0.3,2.4-0.3,5-0.9,7.4c-1.6,5.9-7,8.7-12.4,6.6
		c-5.7-2.3-8.2-8.4-5.7-13.7c1.7-3.5,3.4-7,4.8-10.6c3-7.7,0.9-14.9-5.8-20.5c0.7,8.9-3.1,15.6-9,21.5c-2,1.9-3.7,4.1-5.6,6.2
		c-8.7,9.9-10.1,21-4.8,32.9C182,237.8,193.6,247.5,207.7,244.1z"/>
	<path class="st1" d="M199.8,49.1c-83,0-150.2,67.3-150.2,150.2c0,83,67.3,150.2,150.2,150.2c83,0,150.2-67.3,150.2-150.2
		C350,116.4,282.8,49.1,199.8,49.1z M142.3,195c0.8-6.1,3.8-11,8.3-15c6.5-5.8,7.6-13.4,6.7-21.4c-0.3-2.6-2-5-3.1-7.5
		c3.8-1.6,6.2-0.9,8.4,2.8c0.8,1.2,1.4,2.6,2.1,3.8c2.1,3.7,3.9,4.1,7.3,1.5c17.5-13.4,21.1-40.6,7.2-55.7c4.1,0,8.3,0,12.4,0
		c0.5,0.3,0.9,0.7,1.4,0.8c16.3,5.1,24.8,19.8,21.1,36.4c-0.5,2.2-1,4.5-1.4,6.8c-0.8,4.7,0.2,6.8,3.6,7.9c4.3,1.4,8.8,0,10.1-4
		c1.1-3.5,1.3-7.3,1.7-11c0.1-1.2-0.2-2.4-0.5-4.4c7.2,5.3,14,10.1,17.3,18.3c1.7,4.2,0.6,8.3-0.9,12.4c-1.3,3.6-2.6,7.3-3.3,11.1
		c-0.9,5.3,2.3,9.2,5.2,13.2c2.3,3,4.7,5.9,6.7,9.1c9.2,14.7,5.4,32.2-9.3,43.2c-9.7,7.3-20.8,10.3-32.6,11.3
		c-26.6,2.3-53.2-12.5-64.7-36.3C142.5,211,141.1,203.1,142.3,195z M150.2,289.8c-1.1,0.2-2.1,0.8-3.2,1.2c-2.7,0-5.4,0-8,0
		c-0.9-0.9-1.9-1.7-2.7-2.8c-3.4-4.5-0.9-10.6,4.9-11.8c6.7-1.4,13.4-2.5,20.1-3.8c0.9-0.2,1.8-0.4,2.8-1.2
		c-2.4-0.6-4.7-1.1-7.1-1.6c-5.8-1.2-8.6-4.6-7.7-9.1c0.9-4.6,5-6.6,10.9-5.3c13,2.8,26,5.3,38.8,8.5c6.6,1.6,12.5-0.7,18.7-1.8
		c12.5-2.1,24.9-4.6,37.3-6.9c5.2-1,8.9,1.3,9.7,5.7c0.8,4.5-2.1,8-7.4,9C221.6,276.4,185.9,283,150.2,289.8z M263.4,287.9
		c-0.8,1.1-2,2-3,3c-2.4,0-4.9,0-7.3,0c-4.9-1.2-9.7-2.5-14.6-3.7c-4.7-1.1-9.4-2.1-14.1-3.7c7-1.3,14-2.7,21-4
		c3.8-0.7,7.7-1.3,11.5-2.2c3.1-0.8,5.3,0,6.8,2.7C265.3,282.6,265.3,285.4,263.4,287.9z"/>
</g>
</svg>
