<?xml version="1.0" encoding="utf-8"?>
<!-- Generator: Adobe Illustrator 21.1.0, SVG Export Plug-In . SVG Version: 6.00 Build 0)  -->
<svg version="1.1" id="Capa_1" xmlns="http://www.w3.org/2000/svg" xmlns:xlink="http://www.w3.org/1999/xlink" x="0px" y="0px"
	 viewBox="0 0 38 39" style="enable-background:new 0 0 38 39;" xml:space="preserve">
<style type="text/css">
	.st0{fill:#B49651;}
	.st1{fill:#070707;}
</style>
<circle class="st0" cx="19.2" cy="19" r="13.9"/>
<path class="st0" d="M29.1,32.4c-1.9,1.5-4.3,2.9-8.9,3.4c-3.7,0.4-7.5-1.7-10.1-3.2l-1-0.5c-0.6-0.3-1.4-0.7-2.2-0.8
	c-0.1-0.8-0.5-1.6-0.8-2.2l-0.5-1C4.2,25.6,2.1,21.7,2.4,18c0.5-4.6,1.9-7,3.4-8.9c0.6-0.8,1-1.6,1.1-2.4c0.8-0.1,1.6-0.5,2.4-1.1
	c1.9-1.5,4.3-2.9,8.9-3.4C22,1.9,25.8,4,28.3,5.4l1,0.5c0.6,0.3,1.4,0.7,2.2,0.8C31.6,7.6,32,8.3,32.3,9l0.5,1
	c1.4,2.5,3.5,6.4,3.2,10.1c-0.5,4.6-1.9,7-3.4,8.9c-0.6,0.8-1,1.6-1.1,2.4C30.7,31.4,29.9,31.8,29.1,32.4L29.1,32.4z M32.8,32.1
	c0-0.2,0-0.5,0-0.8c0.1-0.5,0.4-1,0.8-1.6c1.5-2,3.2-4.7,3.7-9.6c0.4-4.1-1.8-8.2-3.3-10.9l-0.5-0.9c-0.3-0.6-0.5-1.2-0.6-1.6
	c-0.1-0.7,0-1.2,0.4-1.7c-0.5,0.4-1,0.5-1.7,0.4c-0.5-0.1-1-0.3-1.6-0.6l-1-0.6c-2.7-1.5-6.7-3.8-10.9-3.3C13.2,1.4,10.5,3,8.5,4.6
	C8,5,7.4,5.3,6.9,5.4c-0.3,0.1-0.5,0.1-0.8,0c-0.3,0-0.6-0.2-0.9-0.3C5.4,5.3,5.6,5.6,5.6,6c0,0.2,0,0.5,0,0.8
	c-0.1,0.5-0.4,1-0.8,1.6c-1.5,2-3.2,4.7-3.7,9.6c-0.4,4.1,1.8,8.2,3.3,10.9l0.5,0.9c0.3,0.6,0.5,1.2,0.6,1.6c0.1,0.7,0,1.2-0.4,1.7
	c0.5-0.4,1-0.5,1.7-0.4c0.5,0.1,1,0.3,1.6,0.6l0.9,0.5c2.7,1.5,6.8,3.8,10.9,3.3c4.9-0.5,7.6-2.2,9.6-3.7c0.6-0.4,1.1-0.7,1.6-0.8
	c0.3-0.1,0.5-0.1,0.8,0c0.3,0,0.6,0.2,0.9,0.3C33,32.7,32.9,32.5,32.8,32.1L32.8,32.1z"/>
<g>
	<path class="st1" d="M14.9,22l1.3-2.2c0.2-0.4,0.3-0.9,0.5-1.3c0.4-0.8,0.8-1.6,1.2-2.5c0.3-0.5,0.5-1,0.8-1.5
		c0.5-0.8,1-1.7,1.7-2.4c0.6-0.6,1.2-1,1.9-1.4c0.9-0.5,1.9-0.8,2.9-0.9c0.1,0,0.1,0,0.2,0s0.2,0,0.4,0c0.2,0.1,0.4,0.2,0.5,0.3
		c0.3,0.3,0.3,0.7,0.2,1c-0.1,0.3-0.4,0.4-0.7,0.4c-0.8,0.1-1.5,0.2-2.2,0.5c-0.9,0.4-1.7,0.9-2.3,1.6c-0.2,0.2-0.3,0.4-0.4,0.6
		c-0.1,0.1,0,0.1,0,0.2c0.5,0.5,0.9,1.1,1.4,1.6s1,1.1,1.3,1.8c0.1,0.3,0.2,0.7,0.3,1.1c0.1,0.3,0,0.7-0.3,0.9
		c-0.1,0.1-0.2,0.1-0.3,0.1c-1.2,0.2-2.4,0.4-3.5,0.7c-0.1,0-0.2,0-0.3,0c-0.1,0-0.2,0-0.1,0.1l0.1,1.5 M22,18.6
		c-0.2-0.4-0.4-0.7-0.7-1c-0.3,0.4-0.7,0.8-1,1.3C20.9,18.8,21.5,18.7,22,18.6z"/>
	<path class="st1" d="M21.7,14.6c0-0.8,0.6-1.5,1.5-1.6c0.8,0,1.5,0.6,1.6,1.5c0,0.8-0.6,1.6-1.5,1.6C22.5,16.1,21.8,15.4,21.7,14.6
		z"/>
</g>
<path class="st1" d="M28.9,24.1c-0.4-0.1-0.7-0.2-1.1-0.3c-0.1,0-0.1,0-0.2-0.1c-0.3-0.1-0.6-0.2-0.9-0.3c-0.5-0.2-1-0.3-1.5-0.4
	c-1-0.3-2-0.1-3,0.1c-0.5,0.1-0.9,0.2-1.4,0.3c-0.3,0.1-0.6,0.2-0.9,0.3c-0.2,0-0.4,0.1-0.5,0.1c-0.8,0.1-1.5,0-2.2-0.2
	c-0.5-0.2-1-0.3-1.5-0.5c-0.6-0.2-1.1-0.3-1.7-0.3c-1.1,0-2.1,0-3.1,0.4c-0.3,0.1-0.6,0.3-0.9,0.3c-0.3,0.1-0.6,0.1-0.9,0.2
	c-0.2,0-0.4,0.1-0.6,0.1c0,0.5,0,0.9,0,1.4c0.1,0,0.2,0,0.3,0c0.4,0.1,0.9-0.1,1.3-0.2c0.3-0.1,0.5-0.2,0.8-0.3
	c0.3-0.1,0.6-0.3,1-0.3c0.4-0.1,0.8-0.2,1.2-0.2c0.5,0,1,0,1.6,0c0.4,0.1,0.9,0.2,1.3,0.3c1,0.3,2,0.6,3,0.6c1.1,0,1.8-0.4,2.8-0.6
	c0.5-0.1,1-0.2,1.5-0.3c0.3,0,0.6,0,0.9,0c0.4,0,0.7,0,1.1,0.1c0.5,0.1,0.9,0.3,1.4,0.4c0.4,0.1,0.8,0.3,1.2,0.4
	c0.4,0.1,0.7,0.2,1.1,0.2C28.9,24.9,28.9,24.5,28.9,24.1z"/>
<path class="st1" d="M28.9,22c-0.4-0.1-0.7-0.2-1.1-0.3c-0.1,0-0.1,0-0.2-0.1c-0.3-0.1-0.6-0.2-0.9-0.3c-0.5-0.2-1-0.3-1.5-0.4
	c-1-0.3-2-0.1-3,0.1c-0.5,0.1-0.9,0.2-1.4,0.3c-0.3,0.1-0.6,0.2-0.9,0.3c-0.2,0-0.4,0.1-0.5,0.1c-0.8,0.1-1.5,0-2.2-0.2
	c-0.5-0.2-1-0.3-1.5-0.5c-0.6-0.2-1.1-0.3-1.7-0.3c-1.1,0-2.1,0-3.1,0.4c-0.3,0.1-0.6,0.3-0.9,0.4c-0.3,0.1-0.6,0.1-0.9,0.2
	c-0.2,0-0.4,0.1-0.6,0.1c0,0.5,0,0.9,0,1.4c0.1,0,0.2,0,0.3,0c0.4,0.1,0.9-0.1,1.3-0.2c0.3-0.1,0.5-0.2,0.8-0.3
	c0.3-0.1,0.6-0.3,1-0.3c0.4-0.1,0.8-0.2,1.2-0.2c0.5,0,1,0,1.6,0c0.4,0.1,0.9,0.2,1.3,0.3c1,0.3,2,0.6,3,0.6c1.1,0,1.8-0.4,2.8-0.6
	c0.5-0.1,1-0.2,1.5-0.3c0.3,0,0.6,0,0.9,0c0.4,0,0.7,0,1.1,0.1c0.5,0.1,0.9,0.3,1.4,0.4c0.4,0.1,0.8,0.3,1.2,0.4
	c0.4,0.1,0.7,0.2,1.1,0.2C28.9,22.9,28.9,22.5,28.9,22z"/>
</svg>
