<?xml version="1.0" encoding="utf-8"?>
<!-- Generator: Adobe Illustrator 21.1.0, SVG Export Plug-In . SVG Version: 6.00 Build 0)  -->
<svg version="1.1" id="Capa_1" xmlns="http://www.w3.org/2000/svg" xmlns:xlink="http://www.w3.org/1999/xlink" x="0px" y="0px"
	 viewBox="0 0 38 39" style="enable-background:new 0 0 38 39;" xml:space="preserve">
<style type="text/css">
	.st0{fill:#B49651;}
	.st1{fill:#070707;}
</style>
<circle class="st0" cx="19.2" cy="19.3" r="13.9"/>
<path class="st0" d="M29,32.6c-1.9,1.5-4.3,2.9-8.9,3.4c-3.7,0.4-7.5-1.7-10.1-3.2l-1-0.5c-0.6-0.3-1.4-0.7-2.2-0.8
	c-0.1-0.8-0.5-1.6-0.8-2.2l-0.5-1C4.1,25.8,2,22,2.4,18.3c0.5-4.6,1.9-7,3.4-8.9c0.6-0.8,1-1.6,1.1-2.4c0.8-0.1,1.6-0.5,2.4-1.1
	c1.9-1.5,4.3-2.9,8.9-3.4c3.7-0.4,7.5,1.7,10.1,3.2l1,0.5c0.6,0.3,1.4,0.7,2.2,0.8c0.1,0.8,0.5,1.6,0.8,2.2l0.5,1
	c1.4,2.5,3.5,6.4,3.2,10.1c-0.5,4.6-1.9,7-3.4,8.9c-0.6,0.8-1,1.6-1.1,2.4C30.6,31.6,29.8,32,29,32.6L29,32.6z M32.8,32.3
	c0-0.2,0-0.5,0-0.8c0.1-0.5,0.4-1,0.8-1.6c1.5-2,3.2-4.7,3.7-9.6c0.4-4.1-1.8-8.2-3.3-10.9l-0.5-0.9c-0.3-0.6-0.5-1.2-0.6-1.6
	c-0.1-0.7,0-1.2,0.4-1.7c-0.5,0.4-1,0.5-1.7,0.4c-0.5-0.1-1-0.3-1.6-0.6l-1-0.6c-2.7-1.5-6.7-3.8-10.9-3.3c-4.9,0.5-7.6,2.2-9.6,3.7
	C7.9,5.2,7.4,5.5,6.9,5.6c-0.3,0.1-0.5,0.1-0.8,0c-0.3,0-0.6-0.2-0.9-0.3c0.1,0.2,0.3,0.5,0.3,0.9c0,0.2,0,0.5,0,0.8
	C5.4,7.5,5.1,8,4.7,8.6c-1.5,2-3.2,4.7-3.7,9.6c-0.4,4.1,1.8,8.2,3.3,10.9L4.8,30c0.3,0.6,0.5,1.2,0.6,1.6c0.1,0.7,0,1.2-0.4,1.7
	c0.5-0.4,1-0.5,1.7-0.4c0.5,0.1,1,0.3,1.6,0.6L9.2,34c2.7,1.5,6.8,3.8,10.9,3.3c4.9-0.5,7.6-2.2,9.6-3.7c0.6-0.4,1.1-0.7,1.6-0.8
	c0.3-0.1,0.5-0.1,0.8,0c0.3,0,0.6,0.2,0.9,0.3C33,33,32.8,32.7,32.8,32.3L32.8,32.3z"/>
<g>
	<path class="st1" d="M10.6,21c0.9-1.5,1.3-3.2,1.6-4.9c0.1-0.4,0.2-0.8,0.4-1.2c0.5-1.3,1.2-1.6,2.5-0.9c0.1-0.4,0.1-0.8,0.2-1.2
		c0.2-0.9,0.5-1.9,1.1-2.7c0.2-0.2,0.4-0.5,0.6-0.6c0.5-0.4,1.2-0.4,1.7,0c0.6,0.4,0.9,1,1.2,1.6c0.2,0.5,0.4,1,0.6,1.6
		c0.5-0.5,1-0.9,1.7-1c0.5-0.1,0.9,0.1,1.1,0.5c0.2,0.3,0.3,0.7,0.5,1c0.5,1.4,1.1,2.6,2,3.7c0.5,0.7,1,1.4,1.4,2.2
		c0.3,0.5,0.8,1.6,1.1,2.1c0,0.1-0.5,0-0.5,0.1c-0.1,0.3-0.2,0.1-0.5,0.1c-1.8,0-3.6,0-5.4,0c-0.1,0-0.2,0-0.3,0c0-0.2,0-0.4,0-0.6
		c-0.1-1.1-0.3-2.1-1-2.9c-0.9-1.2-2.3-1.2-3.1,0c-0.4,0.5-0.6,1.2-0.8,1.8c-0.2,0.6-0.2,1.2-0.2,1.8h-0.1c-1.8,0-3.5,0-5.3,0
		c-0.1,0-0.3-0.1-0.4-0.1C10.6,21.2,10.6,21.1,10.6,21z"/>
</g>
<path class="st1" d="M29.4,23.6c-0.4-0.1-0.7-0.2-1.1-0.3c-0.1,0-0.1,0-0.2-0.1c-0.3-0.1-0.6-0.2-0.9-0.3c-0.5-0.2-1-0.3-1.5-0.4
	c-1-0.3-2-0.1-3,0.1c-0.5,0.1-0.9,0.2-1.4,0.3c-0.3,0.1-0.6,0.2-0.9,0.3c-0.2,0-0.4,0.1-0.6,0.1c-0.8,0.1-1.5,0-2.2-0.2
	c-0.5-0.2-1-0.3-1.5-0.5c-0.6-0.2-1.2-0.3-1.7-0.3c-1.1,0-2.1,0-3.2,0.4c-0.3,0.1-0.6,0.3-0.9,0.4c-0.3,0.1-0.6,0.1-0.9,0.2
	c-0.2,0-0.4,0.1-0.6,0.1c0,0.5,0,1,0,1.4c0.1,0,0.2,0,0.3,0c0.5,0.1,0.9-0.1,1.3-0.2c0.3-0.1,0.5-0.2,0.8-0.3c0.3-0.1,0.6-0.3,1-0.3
	c0.4-0.1,0.8-0.2,1.2-0.2c0.5,0,1.1,0,1.6,0c0.4,0.1,0.9,0.2,1.3,0.3c1,0.3,2,0.6,3,0.6c1.1,0,1.9-0.4,2.9-0.6
	c0.5-0.1,1-0.2,1.6-0.3c0.3,0,0.6,0,0.9,0c0.4,0,0.7,0,1.1,0.1c0.5,0.1,0.9,0.3,1.4,0.4c0.4,0.1,0.8,0.3,1.2,0.4
	c0.4,0.1,0.8,0.2,1.2,0.2C29.4,24.4,29.4,24,29.4,23.6z"/>
<path class="st1" d="M29.4,21.5c-0.4-0.1-0.7-0.2-1.1-0.3c-0.1,0-0.1,0-0.2-0.1c-0.3-0.1-0.6-0.2-0.9-0.3c-0.5-0.2-1-0.3-1.5-0.4
	c-1-0.3-2-0.1-3,0.1c-0.5,0.1-0.9,0.2-1.4,0.3c-0.3,0.1-0.6,0.2-0.9,0.3c-0.2,0-0.4,0.1-0.6,0.1c-0.8,0.1-1.5,0-2.2-0.2
	c-0.5-0.2-1-0.3-1.5-0.5c-0.6-0.2-1.2-0.3-1.7-0.3c-1.1,0-2.1,0-3.2,0.4c-0.3,0.1-0.6,0.3-0.9,0.4c-0.3,0.1-0.6,0.1-0.9,0.2
	c-0.2,0-0.4,0.1-0.6,0.1c0,0.5,0,1,0,1.4c0.1,0,0.2,0,0.3,0c0.5,0.1,0.9-0.1,1.3-0.2c0.3-0.1,0.5-0.2,0.8-0.3c0.3-0.1,0.6-0.3,1-0.3
	c0.4-0.1,0.8-0.2,1.2-0.2c0.5,0,1.1,0,1.6,0c0.4,0,0.9,0.2,1.3,0.3c1,0.3,2,0.6,3,0.6c1.1,0,1.9-0.4,2.9-0.6c0.5-0.1,1-0.2,1.6-0.3
	c0.3,0,0.6,0,0.9,0c0.4,0,0.7,0,1.1,0.1c0.5,0.1,0.9,0.3,1.4,0.4c0.4,0.1,0.8,0.3,1.2,0.4c0.4,0.1,0.8,0.2,1.2,0.2
	C29.4,22.3,29.4,21.9,29.4,21.5z"/>
<path class="st1" d="M29.6,25.8c-0.4-0.1-0.7-0.2-1.1-0.3c-0.1,0-0.1,0-0.2-0.1c-0.3-0.1-0.6-0.2-0.9-0.3c-0.5-0.2-1-0.3-1.5-0.4
	c-1-0.3-2-0.1-3,0.1c-0.5,0.1-0.9,0.2-1.4,0.3c-0.3,0.1-0.6,0.2-0.9,0.3c-0.2,0-0.4,0.1-0.6,0.1c-0.8,0.1-1.5,0-2.2-0.2
	c-0.5-0.2-1-0.3-1.5-0.5c-0.6-0.2-1.2-0.3-1.7-0.3c-1.1,0-2.1,0-3.2,0.4c-0.3,0.1-0.6,0.3-0.9,0.4c-0.3,0.1-0.6,0.1-0.9,0.2
	c-0.2,0-0.4,0.1-0.6,0.1c0,0.5,0,1,0,1.4c0.1,0,0.2,0,0.3,0c0.5,0.1,0.9-0.1,1.3-0.2c0.3-0.1,0.5-0.2,0.8-0.3c0.3-0.1,0.6-0.3,1-0.3
	c0.4-0.1,0.8-0.2,1.2-0.2c0.5,0,1.1,0,1.6,0c0.4,0.1,0.9,0.2,1.3,0.3c1,0.3,2,0.6,3,0.6c1.1,0,1.9-0.4,2.9-0.6
	c0.5-0.1,1-0.2,1.6-0.3c0.3,0,0.6,0,0.9,0c0.4,0,0.7,0,1.1,0.1c0.5,0.1,0.9,0.3,1.4,0.4c0.4,0.1,0.8,0.3,1.2,0.4
	c0.4,0.1,0.8,0.2,1.2,0.2C29.6,26.6,29.6,26.2,29.6,25.8z"/>
</svg>
