<?xml version="1.0" encoding="utf-8"?>
<!-- Generator: Adobe Illustrator 21.1.0, SVG Export Plug-In . SVG Version: 6.00 Build 0)  -->
<svg version="1.1" id="Capa_1" xmlns="http://www.w3.org/2000/svg" xmlns:xlink="http://www.w3.org/1999/xlink" x="0px" y="0px"
	 viewBox="0 0 400 400" style="enable-background:new 0 0 400 400;" xml:space="preserve">
<style type="text/css">
	.st0{fill:#B49651;}
</style>
<path class="st0" d="M306.3,343.8c-20.6,16-46.4,31.6-95.3,36.7c-39.7,4.2-80.7-18.7-107.8-33.9L93,341c-6.9-3.7-15.2-7.5-24-8.8
	c-1.3-8.7-5-17.1-8.7-23.9l-5.6-10.2c-15.1-27.2-38-68.2-33.9-107.9c5.1-48.9,20.7-74.6,36.6-95.3c6.7-8.6,10.7-17.2,12-25.6
	c8.5-1.3,17-5.3,25.6-12c20.6-16.1,46.4-31.5,95.2-36.7c39.7-4.2,80.7,18.7,107.9,33.9l10.2,5.6c6.9,3.7,15.2,7.4,24,8.7
	c1.2,8.8,5,17.1,8.7,23.9l5.6,10.2c15.1,27.1,38,68.2,33.8,107.9c-5.1,48.8-20.7,74.6-36.7,95.2c-6.7,8.6-10.7,17.2-12,25.6
	C323.6,333.1,315,337.1,306.3,343.8L306.3,343.8z M346.7,340.7c-0.4-2.6-0.2-5.4,0.4-8.2c1.2-5.4,4.1-11.1,8.7-17
	c16.5-21.3,34.3-50.2,39.8-102.9c4.5-44.4-19.7-88-35.7-116.7l-5.5-10c-3.5-6.7-5.8-12.4-6.7-17.5c-1.4-7.2-0.1-13.1,3.8-18.4
	c-5.3,3.9-11.2,5.2-18.3,3.9c-5.2-1-10.9-3.2-17.5-6.8l-10.1-5.5C276.8,25.4,233.2,1.1,188.8,5.7C136.1,11.2,107.2,29,85.9,45.5
	c-5.9,4.6-11.7,7.6-17,8.7c-2.8,0.6-5.6,0.8-8.3,0.5c-3.7-0.5-6.8-1.9-9.2-3.4c1.5,2.4,2.9,5.5,3.3,9.2c0.4,2.7,0.2,5.4-0.5,8.2
	c-1.2,5.4-4.1,11.1-8.7,17C29.1,107,11.4,136,5.9,188.7c-4.6,44.4,19.6,87.9,35.7,116.7l5.5,10c3.7,6.7,5.8,12.5,6.8,17.5
	c1.4,7.2,0,13.1-3.9,18.4c5.3-3.9,11.2-5.2,18.4-3.9c5,0.9,10.9,3.2,17.5,6.7l10,5.6c28.8,16.1,72.4,40.3,116.7,35.7
	c52.8-5.5,81.7-23.2,103-39.8c5.9-4.6,11.6-7.5,17-8.7c2.8-0.6,5.6-0.8,8.2-0.4c3.7,0.4,6.8,1.8,9.1,3.3
	C348.5,347.5,347.1,344.4,346.7,340.7L346.7,340.7z"/>
<g>
	<path class="st0" d="M200.8,51.3c-82.5,0-149.3,66.8-149.3,149.3s66.8,149.3,149.3,149.3c82.5,0,149.3-66.8,149.3-149.3
		S283.2,51.3,200.8,51.3z M255.8,127.3c6.8,0.4,12.3,6.4,11.9,12.9c-0.4,7-6.6,12.8-13.3,12.4c-6.7-0.4-12.2-6.4-12-13.1
		C242.6,132.7,248.8,127,255.8,127.3z M140,127.1c7-0.4,13.2,5.4,13.4,12.3c0.2,6.7-5.4,12.7-12,13.1c-6.7,0.4-12.9-5.5-13.3-12.5
		C127.7,133.4,133.2,127.4,140,127.1z M97.4,192.1c-0.8-2.3,0.2-6.2,1.9-8c8.5-9,17.4-17.7,26.4-26.3c4.6-4.3,12.7-4.2,17.7,1.1
		c10.6,11.4,20.5,23.5,31.8,36.7c-25.1,0-48,0.1-71-0.1C101.8,195.5,98,193.9,97.4,192.1z M103.8,281.5l0.7-3.2
		c0.2-1.1,0.1-2.5-0.1-3.9c-0.4-3.2-1-7.9,4.3-10.9c0-0.6,0-1.5,0-2.1l0-1.3l0-4.7c0.1-11.1,0.1-22.1-0.1-33.2
		c0-0.9,0.1-1.8,0.1-2.7c0.3-3.1,0.3-4.5-2.3-5.8c-2.5-1.4-2.5-4.7-2.4-8.8c0-1.4,0.1-2.9,0-4.2l-0.2-2.9h190.5l-1,3.4
		c-0.2,0.8,0,2,0.3,3.2c0.6,2.8,1.7,7.9-4.6,10.5c-0.1,0.4-0.1,1-0.1,1.7c0.1,15.2,0.2,30.4,0.3,45.6c0,0.6,0,1,0,1.3
		c5.5,2.8,4.8,7.5,4.4,10.7c-0.2,1.4-0.4,2.8-0.1,3.9l0.9,3.4L103.8,281.5L103.8,281.5z M298.4,192.4c-0.6,1.7-4.4,3.4-6.8,3.4
		c-22.9,0.2-45.9,0.1-71,0.1c11.4-13.2,21.3-25.3,31.8-36.7c4.9-5.3,13.1-5.5,17.7-1.1c9,8.5,17.9,17.2,26.4,26.3
		C298.2,186.2,299.2,190.1,298.4,192.4z"/>
	<path class="st0" d="M286.3,210.3c2.9-1,2.8-1.6,2.1-4.7c-0.2-0.8-0.3-1.6-0.4-2.4H109.5c0,0.6,0,1.2,0,1.8c0,1.4-0.1,3.4,0.1,4.3
		c5.2,3.1,4.8,7.6,4.5,10.7c-0.1,0.7-0.1,1.4-0.1,2.1c0.2,11.1,0.1,22.2,0.1,33.3l0,4.7l0,1.2c0.1,2.8,0.1,5.5-2.1,6.6
		c-2.7,1.3-2.7,2.4-2.3,5.9c0.1,0.8,0.2,1.6,0.2,2.4h178.3c0-0.9,0.2-1.8,0.3-2.6c0.5-3.5,0.5-4.4-2.2-5.5c-2.2-0.9-2.3-3.7-2.3-5.7
		c-0.1-15.2-0.2-30.4-0.3-45.6C283.7,212.8,284.5,210.9,286.3,210.3z M139,268.5h-6.5v-57.8h6.5V268.5z M164.3,268.5h-6.9v-58.1h6.9
		V268.5z M189.7,268.3l-2.6,0.1c-0.5,0-1.1,0-1.6,0h-2.7v-58.3l6.9-0.1V268.3z M214.9,268.5h-6.5v-57.8l5.9,0l0.6,2.6V268.5z
		 M240.4,268.1l-6.1,0.2l-0.4-2.7V212l6-1.8l0.4,3.5V268.1z M265.7,268.5h-6.5v-57.7h6.5V268.5z"/>
</g>
</svg>
