<?xml version="1.0" encoding="utf-8"?>
<!-- Generator: Adobe Illustrator 21.1.0, SVG Export Plug-In . SVG Version: 6.00 Build 0)  -->
<svg version="1.1" id="Capa_1" xmlns="http://www.w3.org/2000/svg" xmlns:xlink="http://www.w3.org/1999/xlink" x="0px" y="0px"
	 viewBox="0 0 38 39" style="enable-background:new 0 0 38 39;" xml:space="preserve">
<style type="text/css">
	.st0{fill:#B49651;}
	.st1{fill:#070707;stroke:#FFFFFF;stroke-width:0.5;stroke-miterlimit:10;}
	.st2{fill:#070707;}
</style>
<circle class="st0" cx="18.8" cy="19.6" r="13.9"/>
<path class="st0" d="M28.7,33c-1.9,1.5-4.3,2.9-8.9,3.4c-3.7,0.4-7.5-1.7-10.1-3.2l-1-0.5c-0.6-0.3-1.4-0.7-2.2-0.8
	c-0.1-0.8-0.5-1.6-0.8-2.2l-0.5-1c-1.4-2.5-3.6-6.3-3.2-10c0.5-4.6,1.9-7,3.4-8.9C6,9,6.4,8.2,6.5,7.4C7.4,7.3,8.2,6.9,9,6.3
	c1.9-1.5,4.3-2.9,8.9-3.4c3.7-0.4,7.5,1.7,10.1,3.2l1,0.5c0.6,0.3,1.4,0.7,2.2,0.8C31.3,8.2,31.7,9,32,9.6l0.5,1
	c1.4,2.5,3.5,6.4,3.2,10.1c-0.5,4.6-1.9,7-3.4,8.9c-0.6,0.8-1,1.6-1.1,2.4C30.3,32,29.5,32.4,28.7,33L28.7,33z M32.4,32.7
	c0-0.2,0-0.5,0-0.8c0.1-0.5,0.4-1,0.8-1.6c1.5-2,3.2-4.7,3.7-9.6c0.4-4.1-1.8-8.2-3.3-10.9l-0.5-0.9c-0.3-0.6-0.5-1.2-0.6-1.6
	c-0.1-0.7,0-1.2,0.4-1.7c-0.5,0.4-1,0.5-1.7,0.4c-0.5-0.1-1-0.3-1.6-0.6l-0.9-0.5c-2.8-1.6-6.9-3.9-11-3.5C12.8,2,10.1,3.6,8.1,5.2
	C7.5,5.6,7,5.9,6.5,6C6.2,6,6,6,5.7,6C5.4,6,5.1,5.8,4.9,5.7C5,5.9,5.2,6.2,5.2,6.6c0,0.2,0,0.5,0,0.8C5,7.8,4.8,8.4,4.3,8.9
	c-1.5,2-3.2,4.7-3.7,9.6C0.2,22.7,2.5,26.7,4,29.4l0.5,0.9C4.8,31,5,31.5,5.1,32c0.1,0.7,0,1.2-0.4,1.7c0.5-0.4,1-0.5,1.7-0.4
	c0.5,0.1,1,0.3,1.6,0.6l1,0.6c2.7,1.5,6.8,3.8,10.9,3.3c4.9-0.5,7.6-2.2,9.6-3.7c0.6-0.4,1.1-0.7,1.6-0.8c0.3-0.1,0.5-0.1,0.8,0
	c0.3,0,0.6,0.2,0.9,0.3C32.6,33.3,32.5,33,32.4,32.7L32.4,32.7z"/>
<g>
	<path class="st1" d="M10,19.6c5.8,0,11.4,0,17.2,0c-0.1,0.4,0.4,0.9-0.3,1.2c-0.1,0-0.1,0.2-0.1,0.4c0,1.4,0,2.8,0,4.3
		c0,0.1,0,0.3,0.1,0.3c0.7,0.3,0.2,0.8,0.4,1.2c-5.7,0-11.4,0-17.2,0c0.1-0.5-0.3-1,0.3-1.3c0.1,0,0.1-0.3,0.1-0.5
		c0-1.2,0-2.4,0-3.5c0-0.4,0.2-0.7-0.3-1C10,20.5,10.1,20,10,19.6z M17.4,25.7h0.1c0-1.6,0-3.3,0-4.9h-0.1
		C17.4,22.4,17.4,24.1,17.4,25.7z M15.2,20.8h-0.1c0,1.6,0,3.3,0,4.9h0.1C15.2,24.1,15.2,22.4,15.2,20.8z M12.7,25.7h0.1
		c0-1.6,0-3.3,0-4.9h-0.1C12.7,22.4,12.7,24.1,12.7,25.7z M19.8,25.7h0.1c0-1.6,0-3.3,0-4.9h-0.1C19.8,22.5,19.8,24.1,19.8,25.7z
		 M22.3,20.8C22.2,20.9,22.2,20.9,22.3,20.8c-0.1,1.6-0.1,3.2-0.1,4.8h0.1C22.3,24.1,22.3,22.5,22.3,20.8z M24.5,25.7h0.1
		c0-1.6,0-3.3,0-4.9h-0.1C24.5,22.5,24.5,24.1,24.5,25.7z"/>
	<path class="st2" d="M16.4,19.2c-2.3,0-4.5,0-6.6,0c-0.2,0-0.6-0.2-0.6-0.3c-0.1-0.2,0-0.6,0.2-0.7c0.8-0.8,1.6-1.7,2.5-2.5
		c0.4-0.4,1.2-0.4,1.6,0.1C14.4,16.8,15.4,17.9,16.4,19.2z"/>
	<path class="st2" d="M14.4,13.9c0,0.6-0.5,1.2-1.1,1.2s-1.2-0.5-1.2-1.2c0-0.6,0.5-1.2,1.1-1.2S14.4,13.3,14.4,13.9z"/>
	<path class="st2" d="M20.7,19.2c2.3,0,4.5,0,6.6,0c0.2,0,0.6-0.2,0.6-0.3c0.1-0.2,0-0.6-0.2-0.7c-0.8-0.8-1.6-1.7-2.5-2.5
		c-0.4-0.4-1.2-0.4-1.6,0.1C22.7,16.8,21.7,18,20.7,19.2z"/>
	<path class="st2" d="M22.7,13.9c0,0.6,0.5,1.2,1.1,1.2s1.2-0.5,1.2-1.2c0-0.6-0.5-1.2-1.1-1.2C23.3,12.8,22.7,13.3,22.7,13.9z"/>
</g>
</svg>
