<?xml version="1.0" encoding="utf-8"?>
<!-- Generator: Adobe Illustrator 21.1.0, SVG Export Plug-In . SVG Version: 6.00 Build 0)  -->
<svg version="1.1" id="Capa_1" xmlns="http://www.w3.org/2000/svg" xmlns:xlink="http://www.w3.org/1999/xlink" x="0px" y="0px"
	 viewBox="0 0 400 400" style="enable-background:new 0 0 400 400;" xml:space="preserve">
<style type="text/css">
	.st0{fill:#B49651;}
</style>
<path class="st0" d="M301.2,339.7c-20.3,15.8-45.7,31.1-93.7,36.1c-39,4.1-79.4-18.4-106.1-33.3l-10-5.5c-6.8-3.6-14.9-7.3-23.6-8.6
	c-1.2-8.6-4.9-16.8-8.6-23.5l-5.5-10.1C38.8,268,16.3,227.6,20.4,188.6c5-48.1,20.3-73.4,36-93.7C63.1,86.4,67,78,68.3,69.7
	c8.3-1.3,16.7-5.2,25.2-11.8c20.3-15.8,45.7-31,93.7-36.1c39-4.1,79.4,18.4,106.1,33.3l10,5.5c6.8,3.6,14.9,7.3,23.6,8.6
	c1.2,8.6,4.9,16.8,8.6,23.5l5.5,10.1c14.9,26.7,37.4,67.1,33.3,106.1c-5,48-20.3,73.4-36.1,93.7c-6.5,8.5-10.5,16.9-11.8,25.2
	C318.2,329.1,309.7,333.1,301.2,339.7L301.2,339.7z M340.9,336.6c-0.4-2.6-0.2-5.3,0.4-8.1c1.2-5.3,4-10.9,8.6-16.8
	c16.3-20.9,33.7-49.4,39.1-101.2c4.5-43.7-19.4-86.5-35.1-114.8l-5.4-9.9c-3.5-6.6-5.7-12.2-6.6-17.3c-1.4-7.1-0.1-12.9,3.7-18.1
	c-5.2,3.8-11,5.1-18,3.8c-5.1-0.9-10.7-3.2-17.3-6.7l-9.9-5.4C272.1,26.4,229.3,2.6,185.6,7.1C133.8,12.5,105.3,30,84.4,46.2
	c-5.8,4.6-11.5,7.4-16.7,8.6c-2.8,0.6-5.5,0.8-8.1,0.5c-3.6-0.5-6.7-1.9-9-3.3c1.5,2.3,2.9,5.4,3.3,9c0.4,2.6,0.1,5.3-0.5,8.1
	c-1.1,5.3-4,10.9-8.6,16.8c-16.3,20.9-33.7,49.4-39.1,101.2C1.2,230.7,25,273.5,40.8,301.9l5.5,9.9c3.6,6.5,5.7,12.3,6.7,17.3
	c1.4,7.1,0,12.9-3.8,18.1c5.2-3.9,11-5.1,18.1-3.8c5,0.9,10.7,3.2,17.2,6.6l9.9,5.5c28.4,15.8,71.2,39.6,114.8,35.1
	c51.9-5.4,80.3-22.8,101.3-39.1c5.8-4.6,11.5-7.4,16.8-8.5c2.7-0.6,5.5-0.8,8.1-0.4c3.6,0.4,6.7,1.8,9,3.3
	C342.7,343.3,341.4,340.3,340.9,336.6L340.9,336.6z"/>
<g>
	<path class="st0" d="M185.4,246.4c7.8,0,15.1,0,22.4,0c0.1-0.1,0.1-0.2,0.2-0.4c-4.5-4-8.9-8-13.5-12.1
		C191.4,238.2,188.5,242.2,185.4,246.4z"/>
	<path class="st0" d="M131.3,134.8c0.1,0.1,0.2,0.1,0.3,0.1c1.6-1.4,3.1-2.9,4.7-4.4c0.4,0.4,0.7,0.6,1,0.9
		c4.1,4.4,8.2,8.8,12.2,13.2c5.3,5.7,10.8,11.3,15.9,17.2c2,2.3,4.1,3.3,7.3,3c-12.6-13.5-25.2-26.9-37.9-40.5
		C133.7,128.1,132.5,131.5,131.3,134.8z"/>
	<path class="st0" d="M197.4,51.9c-81.1,0-146.9,65.7-146.9,146.9c0,81.1,65.8,146.9,146.9,146.9c81.1,0,146.9-65.7,146.9-146.9
		C344.2,117.7,278.5,51.9,197.4,51.9z M211.1,109.7c0.5-0.1,0.9-0.3,1.4-0.4c1.7,0,3.4,0,5.1,0c1.3,0.4,2.6,0.6,3.8,1
		c8,2.7,12.9,8.3,14.2,16.6c1.4,8.9-1.9,16.1-9.6,21c-12,7.6-28,0.9-31.3-12.8C191.9,123.5,199.4,112,211.1,109.7z M272.6,262.4
		c-2.3,5.2-6,9-11.1,11.3c-2.2,1-4.6,1.8-6.9,2.7c-44.6,0-89.3,0-134,0c-1.8-0.7-3.7-1.1-5.3-2c-3.7-2.2-5.8-5.6-6.5-9.8
		c-0.9-5.2,0.2-10,3.9-13.9c2.9-3.1,6.7-4,10.8-4c8.3,0,16.6-0.1,24.9,0.1c1.6,0,2.4-0.5,3.1-1.9c3.6-7.1,8.1-13.6,12.9-20
		c3.7-5,7.5-10,11.3-15c2.2-2.9,4.3-6.1,6.9-8.6c5.2-5.2,13.9-5.8,19.8-0.4c4.3,4,8.5,8.1,12.8,12.1c1.6,1.5,3.3,2.9,4.9,4.5
		c0.1-0.3,0.1-0.4,0.1-0.4c-1.6-4.9-3-10-4.9-14.8c-1.8-4.4-4.3-8.6-6.4-12.9c-0.4-0.8-0.8-0.8-1.6-0.7c-5.1,0.9-10.1,2-15.2,2.5
		c-8.5,0.9-16.9-0.2-25.2-2.4c-3.4-0.9-6.3-2.6-8-5.9c-1.7-3.2-1.7-6.6-0.5-10c0.3-0.7,0.3-1.2-0.4-1.9c-2.6-2.6-5-5.4-7.6-8.1
		c-5.2-5.6-10.5-11.2-15.7-16.9c-2.4-2.5-4.6-5.1-7-7.7c-0.6-0.6-0.5-1.2-0.3-1.9c1.4-3.8,2.7-7.6,4-11.4c0.7-1.9,1.4-3.8,2.1-5.8
		c0.4,0.4,0.6,0.5,0.8,0.8c5.2,5.5,10.3,11,15.5,16.5c8.3,8.9,16.6,17.8,24.9,26.7c0.8,0.9,2,1.7,0.5,3.2c2.9,0.4,5.5,0.9,8.1,1
		c9.2,0.6,17.9-1.2,26.4-4.6c0.8-0.3,1.7-0.7,2.4-1.4c4.5-4.6,9.9-7.6,16.3-8.6c9.4-1.4,17.3,1.6,22.8,9.4c2.9,4.1,5.2,8.7,7.5,13.2
		c3.3,6.5,5.8,13.3,7.9,20.2c2.2,7.3,3.9,14.7,5.1,22.2c1.7,11.1,2.4,22.3,2.5,33.5C274.7,254.9,274.2,258.7,272.6,262.4z"/>
</g>
</svg>
