<?xml version="1.0" encoding="utf-8"?>
<!-- Generator: Adobe Illustrator 21.1.0, SVG Export Plug-In . SVG Version: 6.00 Build 0)  -->
<svg version="1.1" id="Capa_1" xmlns="http://www.w3.org/2000/svg" xmlns:xlink="http://www.w3.org/1999/xlink" x="0px" y="0px"
	 viewBox="0 0 66 133" style="enable-background:new 0 0 66 133;" xml:space="preserve">
<style type="text/css">
	.st0{stroke:#000000;stroke-width:0.5;stroke-miterlimit:10;}
	.st1{fill:none;stroke:#000000;stroke-width:3;stroke-miterlimit:10;}
	.st2{fill:#FFFFFF;}
	.st3{fill:#010202;}
</style>
<path class="st0" d="M19,17.6c0,0,2.7-1.1,3.2-1.9c0,0,7.3-6.4,18.1,1.2c0,0,1.4,0.7,1.7,0.7c0,0,0.5,2.4,1.2,2.8
	c0,0,5.1,7,2.4,12.9c0,0-1.1,4.1-2.5,4.9c0,0-1.4,1.4-1.2,2.3c0,0-1.8,0.5-2.9,1.6c0,0-3.6,2.3-5.7,2.3c0,0-3.8,1.1-7.3-0.6
	l-6.9-3.2c0,0-2.2-4.5-2.6-5.2c0,0-2.5-4.1-1.8-7.6c0,0,0.9-5.5,2.6-7.3L19,17.6z"/>
<circle class="st1" cx="30.5" cy="28.8" r="22.3"/>
<g>
	<path d="M44.2,98.5v5.1h-6.6v-3.8h-3.3V99h-0.9V87c0-1.3,0.6-2.4,1.1-3.5h-7.3c0.6,1.1,1.2,2.3,1.2,3.5v12h-1.2v22.1h7.1v-3h3.3
		v-3.8h6.6v4.8h3.6V98.5L44.2,98.5L44.2,98.5z"/>
	<path d="M25.6,79.1C25.6,79.1,25.6,79.1,25.6,79.1l10.3,0c0,0,0,0,0,0c0.8-0.2,1.4-1,1.4-1.8c0-1.1-0.9-1.9-2-1.9h-1.9V50.1h-5
		v25.2h-2.3c-1.1,0-1.9,0.9-1.9,1.9C24.2,78.1,24.8,78.8,25.6,79.1z"/>
	<path d="M37.3,81.4c0-0.9-0.6-1.6-1.5-1.9c0,0,0-0.1,0-0.1H25.6c0,0,0,0.1,0,0.1c-0.8,0.2-1.5,1-1.5,1.9c0,0.8,0.5,1.5,1.2,1.8
		h10.8C36.8,82.9,37.3,82.2,37.3,81.4z"/>
</g>
<path class="st2" d="M38.6,38.6L38,39.5c-0.2,0.4-0.4,0.6-0.6,0.7c-0.5,0.4-1.2,0.5-2.1,0.5h-5.6l-0.6-0.1c-0.2-0.1-0.4-0.1-0.5-0.2
	c-0.1-0.1-0.1-0.2-0.1-0.2l0-0.1l0-0.2v-0.3v-4.7c0.7,0.2,1.4,0.2,2.1,0.2c1.2,0,2.4-0.2,3.6-0.7c1.1-0.4,1.9-1,2.4-1.8
	c0.1-0.2,0.1-0.4,0.1-0.6l-0.1-0.2c0-0.1-0.1-0.1-0.2-0.2c-0.1-0.1-0.2-0.1-0.3-0.1c-0.1,0-0.2,0-0.3,0c-0.1,0-0.2,0.1-0.2,0.1
	c-0.1,0.1-0.1,0.2-0.1,0.3c0,0,0,0.1,0,0.1c0,0,0,0.1,0,0.2c0,0.1,0.1,0.2,0.1,0.3c0.1,0.1,0.1,0.1,0.2,0.1c0.1,0,0.1,0,0.1,0.1
	l0,0.1c-0.4,0.5-0.9,0.9-1.5,1.1c-1.1,0.5-2,0.7-2.5,0.7c0,0-0.1,0-0.2,0c-1,0-2.1-0.2-3.3-0.7v-9.4l0.1-0.8
	c0.1-0.3,0.1-0.6,0.2-0.7c0.2-0.2,0.5-0.3,1.1-0.3v-0.3H26v0.3l0.5,0.1c0.2,0,0.4,0.1,0.4,0.2c0.1,0.2,0.2,0.3,0.3,0.5
	c0,0.1,0,0.3,0,0.3c0,0.1,0,0.2,0,0.3v9.2c-1-0.5-1.7-1.1-2.4-1.8c-0.8-0.9-1.4-2-1.7-3.1c-0.4-1.2-0.5-2.4-0.5-3.7
	c0-1.3,0.3-2.6,1-4c0.6-1.4,1.5-2.5,2.7-3.4s2.4-1.3,3.8-1.3c1.1,0,2.1,0.2,3,0.7c0.9,0.5,1.6,1,2,1.6c0.5,0.6,0.7,1.1,0.7,1.5
	l0.4,0.2l0.3-2c-0.1-0.3-0.4-0.6-0.9-1c-0.5-0.4-1.1-0.7-2-1c-0.9-0.3-1.9-0.4-3.1-0.4c-1.9,0-3.6,0.5-5,1.4c-1.5,1-2.6,2.2-3.3,3.7
	c-0.8,1.5-1.2,3-1.2,4.6c0,1.7,0.4,3.3,1.3,4.8c0.9,1.5,2,2.7,3.5,3.6c0.5,0.3,0.9,0.5,1.4,0.7v5l-0.1,0.5c0,0.2-0.1,0.4-0.3,0.6
	c-0.1,0.1-0.2,0.1-0.4,0.2l-0.4,0.1l-0.1,0v0.3h12.1l0.8-2.8L38.6,38.6L38.6,38.6z"/>
<path d="M40.3,42.3c-1.9,1.5-4.3,2.9-8.9,3.4c-3.7,0.4-7.5-1.7-10.1-3.2l-1-0.5c-0.6-0.3-1.4-0.7-2.2-0.8c-0.1-0.8-0.5-1.6-0.8-2.2
	l-0.5-1c-1.4-2.5-3.5-6.4-3.2-10.1c0.5-4.6,1.9-7,3.4-8.9c0.6-0.8,1-1.6,1.1-2.4c0.8-0.1,1.6-0.5,2.4-1.1c1.9-1.5,4.3-2.9,8.9-3.4
	c3.7-0.4,7.5,1.7,10.1,3.2l1,0.5c0.6,0.3,1.4,0.7,2.2,0.8c0.1,0.8,0.5,1.6,0.8,2.2l0.5,1c1.4,2.5,3.5,6.4,3.2,10.1
	c-0.5,4.6-1.9,7-3.4,8.9c-0.6,0.8-1,1.6-1.1,2.4C42,41.3,41.2,41.7,40.3,42.3L40.3,42.3z M44.1,42c0-0.2,0-0.5,0-0.8
	c0.1-0.5,0.4-1,0.8-1.6c1.5-2,3.2-4.7,3.7-9.6c0.4-4.1-1.8-8.2-3.3-10.9l-0.5-0.9c-0.3-0.6-0.5-1.2-0.6-1.6c-0.1-0.7,0-1.2,0.4-1.7
	c-0.5,0.4-1,0.5-1.7,0.4c-0.5-0.1-1-0.3-1.6-0.6l-0.9-0.5c-2.7-1.5-6.7-3.8-10.9-3.3c-4.9,0.5-7.6,2.2-9.6,3.7
	c-0.5,0.4-1.1,0.7-1.6,0.8c-0.3,0.1-0.5,0.1-0.8,0c-0.3,0-0.6-0.2-0.9-0.3c0.1,0.2,0.3,0.5,0.3,0.9c0,0.2,0,0.5,0,0.8
	c-0.1,0.5-0.4,1-0.8,1.6c-1.5,2-3.2,4.7-3.7,9.6c-0.4,4.1,1.8,8.2,3.3,10.9l0.5,0.9c0.3,0.6,0.5,1.2,0.6,1.6c0.1,0.7,0,1.2-0.4,1.7
	c0.5-0.4,1-0.5,1.7-0.4c0.5,0.1,1,0.3,1.6,0.6l0.9,0.5c2.7,1.5,6.8,3.8,10.9,3.3c4.9-0.5,7.6-2.2,9.6-3.7c0.6-0.4,1.1-0.7,1.6-0.8
	c0.3-0.1,0.5-0.1,0.8,0c0.3,0,0.6,0.2,0.9,0.3C44.3,42.6,44.2,42.3,44.1,42L44.1,42z"/>
<path d="M43,38.1c-0.6,0.7-1,1.5-1.2,2.3l0.1-0.1c-0.8,0.2-1.5,0.6-2.3,1.2c-1.8,1.4-4.1,2.8-8.4,3.2c-3.4,0.4-7-1.7-9.5-3
	c0,0-1-0.5-1-0.5c-0.5-0.2-1.2-0.6-2-0.8l0.1,0.1c-0.2-0.8-0.6-1.5-0.8-2l-0.5-1c-1.3-2.4-3.4-6.1-3-9.5c0.4-4.3,1.8-6.6,3.2-8.4
	c0.6-0.7,1-1.5,1.2-2.3L19,17.6c0.8-0.2,1.5-0.6,2.3-1.2c1.8-1.4,4.1-2.8,8.4-3.2c3.4-0.3,7,1.7,9.5,3l1,0.5c0.5,0.3,1.2,0.6,2,0.8
	l-0.1-0.1c0.2,0.8,0.6,1.5,0.8,2c0,0,0.5,1,0.5,1c1.4,2.4,3.4,6.1,3,9.5C45.8,34.1,44.4,36.3,43,38.1L43,38.1z M46.6,29.8
	c0.4-3.5-1.7-7.2-3.1-9.7c0,0-0.5-1-0.5-1c-0.2-0.4-0.6-1.1-0.8-1.9l0-0.1l-0.1,0c-0.8-0.2-1.4-0.5-1.9-0.8c0,0-1-0.5-1-0.5
	c-2.5-1.4-6.2-3.4-9.7-3.1c-4.4,0.5-6.7,1.9-8.6,3.3c-0.7,0.5-1.4,0.9-2.1,1.1l-0.1,0l0,0.1c-0.2,0.7-0.6,1.4-1.1,2.1
	c-1.4,1.9-2.8,4.2-3.3,8.6c-0.4,3.5,1.7,7.2,3.1,9.7c0,0,0.5,1,0.5,1c0.2,0.4,0.6,1.1,0.8,1.9l0,0.1l0.1,0c0.8,0.2,1.4,0.5,1.9,0.8
	c0,0,1,0.5,1,0.5c2.5,1.4,6.2,3.4,9.7,3.1c4.4-0.5,6.7-1.9,8.6-3.3c0.7-0.5,1.4-0.9,2.1-1.1l0.1,0l0-0.1c0.2-0.7,0.6-1.4,1.1-2.1
	C44.8,36.5,46.2,34.2,46.6,29.8L46.6,29.8z"/>
<rect x="16.8" y="11" transform="matrix(0.7327 -0.6806 0.6806 0.7327 -5.9838 15.8044)" width="0.8" height="9"/>
<rect x="43.4" y="37.8" transform="matrix(0.7327 -0.6806 0.6806 0.7327 -17.0551 41.063)" width="0.8" height="8.9"/>
<rect x="12.4" y="41.8" transform="matrix(0.7324 -0.6809 0.6809 0.7324 -24.1361 23.025)" width="9.6" height="0.7"/>
<rect x="39.3" y="15.5" transform="matrix(0.7333 -0.6799 0.6799 0.7333 0.8366 33.9764)" width="8.9" height="0.7"/>
<path class="st3" d="M19,17.6"/>
</svg>
