<?xml version="1.0" encoding="utf-8"?>
<!-- Generator: Adobe Illustrator 16.0.0, SVG Export Plug-In . SVG Version: 6.00 Build 0)  -->
<!DOCTYPE svg PUBLIC "-//W3C//DTD SVG 1.1//EN" "http://www.w3.org/Graphics/SVG/1.1/DTD/svg11.dtd">
<svg version="1.1" id="Capa_1" xmlns="http://www.w3.org/2000/svg" xmlns:xlink="http://www.w3.org/1999/xlink" x="0px" y="0px"
	 width="820px" height="315px" viewBox="0 0 820 315" enable-background="new 0 0 820 315" xml:space="preserve">
<path stroke="#000000" stroke-width="0.5" stroke-miterlimit="10" d="M372.001,128.569c0,0,2.678-1.081,3.239-1.902
	c0,0,7.319-6.353,18.068,1.19c0,0,1.403,0.652,1.72,0.677c0,0,0.546,2.441,1.19,2.787c0,0,5.136,7.042,2.375,12.939
	c0,0-1.139,4.125-2.547,4.886c0,0-1.399,1.35-1.193,2.269c0,0-1.793,0.464-2.876,1.61c0,0-3.596,2.311-5.727,2.313
	c0,0-3.779,1.063-7.252-0.637l-6.898-3.242c0,0-2.215-4.51-2.561-5.227c0,0-2.497-4.116-1.757-7.587c0,0,0.85-5.494,2.646-7.256
	L372.001,128.569z"/>
<circle fill="none" stroke="#000000" stroke-width="3" stroke-miterlimit="10" cx="383.494" cy="139.756" r="22.256"/>
<g>
	<path d="M397.213,209.451v5.084h-6.555v-3.769h-3.323v-0.735h-0.86V198.02c0-1.284,0.57-2.36,1.14-3.531h-7.331
		c0.612,1.14,1.161,2.289,1.161,3.531v12.012h-1.161v22.139h7.052v-3.023h3.323v-3.77h6.555v4.795h3.635v-20.721H397.213z"/>
	<path d="M378.594,190.057c0,0.011,0,0.021,0,0.031h10.283c0-0.011,0-0.021,0-0.031c0.809-0.238,1.409-0.952,1.409-1.843
		c0-1.077-0.881-1.947-1.958-1.947h-1.854v-25.2h-5.03v25.2h-2.32c-1.068,0-1.947,0.87-1.947,1.947
		C377.177,189.104,377.79,189.818,378.594,190.057z"/>
	<path d="M390.287,192.376c0-0.9-0.622-1.625-1.45-1.854c0-0.031,0.011-0.072,0.011-0.104h-10.21c0,0.031,0.01,0.063,0.01,0.094
		c-0.84,0.228-1.47,0.952-1.47,1.863c0,0.798,0.486,1.481,1.182,1.781h10.757C389.799,193.857,390.287,193.174,390.287,192.376z"/>
</g>
<path fill="#FFFFFF" d="M391.576,149.566l-0.539,0.925c-0.223,0.384-0.411,0.619-0.557,0.719c-0.508,0.35-1.197,0.524-2.076,0.524
	h-5.646l-0.561-0.05c-0.236-0.05-0.402-0.133-0.49-0.244c-0.058-0.072-0.094-0.154-0.121-0.245l-0.013-0.146l-0.038-0.244v-0.253
	v-4.667c0.689,0.159,1.39,0.243,2.125,0.243c1.235,0,2.415-0.221,3.551-0.669c1.139-0.446,1.938-1.047,2.402-1.799
	c0.07-0.161,0.11-0.35,0.11-0.561l-0.075-0.219c-0.035-0.075-0.085-0.137-0.161-0.195c-0.071-0.073-0.157-0.123-0.256-0.146
	c-0.115-0.018-0.221-0.01-0.309,0.017c-0.093,0.029-0.172,0.08-0.236,0.145c-0.073,0.069-0.116,0.16-0.145,0.262
	c0,0.027,0,0.063,0,0.11c0,0.04,0.007,0.092,0.029,0.157c0.039,0.099,0.086,0.181,0.15,0.257c0.058,0.074,0.12,0.113,0.178,0.122
	c0.063,0.011,0.107,0.03,0.141,0.059l-0.038,0.115c-0.412,0.49-0.921,0.865-1.532,1.118c-1.136,0.486-1.976,0.729-2.52,0.729
	c-0.041,0-0.09,0-0.159,0c-0.988,0-2.072-0.228-3.255-0.66v-9.389l0.063-0.767c0.058-0.325,0.135-0.552,0.226-0.681
	c0.185-0.202,0.546-0.305,1.089-0.305v-0.292h-3.883v0.292l0.508,0.124c0.222,0.047,0.359,0.107,0.406,0.182
	c0.15,0.162,0.236,0.313,0.259,0.458c0.012,0.143,0.027,0.256,0.042,0.348c0.021,0.088,0.03,0.191,0.03,0.316v9.168
	c-0.954-0.486-1.747-1.087-2.368-1.804c-0.81-0.925-1.386-1.972-1.743-3.138c-0.358-1.166-0.535-2.39-0.535-3.675
	c0-1.293,0.318-2.629,0.967-4.015c0.644-1.384,1.534-2.522,2.666-3.406c1.132-0.884,2.411-1.327,3.849-1.327
	c1.14,0,2.143,0.224,3.024,0.681c0.881,0.454,1.563,0.991,2.045,1.62c0.484,0.622,0.728,1.127,0.728,1.508l0.378,0.22l0.293-2.02
	c-0.108-0.254-0.398-0.572-0.871-0.959c-0.469-0.384-1.134-0.719-1.996-1.007c-0.857-0.289-1.897-0.434-3.124-0.434
	c-1.892,0-3.565,0.481-5.017,1.438c-1.45,0.961-2.57,2.193-3.345,3.703c-0.78,1.51-1.17,3.042-1.17,4.603
	c0,1.722,0.431,3.327,1.288,4.822c0.859,1.496,2.027,2.684,3.508,3.571c0.456,0.275,0.932,0.503,1.42,0.692v5.022l-0.064,0.549
	c-0.047,0.232-0.138,0.422-0.282,0.568c-0.07,0.073-0.2,0.134-0.391,0.184l-0.414,0.1l-0.094,0.021v0.292h12.12l0.827-2.813
	L391.576,149.566L391.576,149.566z"/>
<path d="M393.346,153.288c-1.92,1.497-4.329,2.947-8.888,3.421c-3.702,0.388-7.528-1.744-10.061-3.158l-0.953-0.526
	c-0.642-0.346-1.416-0.695-2.238-0.815c-0.118-0.816-0.466-1.593-0.814-2.231l-0.524-0.956c-1.412-2.536-3.545-6.365-3.16-10.064
	c0.475-4.558,1.928-6.965,3.418-8.89c0.629-0.804,1.003-1.602,1.124-2.388c0.789-0.118,1.588-0.494,2.388-1.118
	c1.924-1.499,4.33-2.944,8.887-3.423c3.702-0.389,7.534,1.747,10.068,3.158l0.952,0.526c0.643,0.345,1.416,0.694,2.239,0.817
	c0.116,0.819,0.466,1.591,0.815,2.231l0.523,0.956c1.412,2.533,3.549,6.365,3.158,10.064c-0.477,4.555-1.927,6.962-3.425,8.887
	c-0.621,0.806-0.999,1.602-1.119,2.387C394.953,152.288,394.152,152.664,393.346,153.288L393.346,153.288z M397.109,152.995
	c-0.035-0.245-0.019-0.505,0.04-0.767c0.111-0.501,0.382-1.036,0.814-1.59c1.542-1.983,3.197-4.682,3.713-9.6
	c0.425-4.143-1.836-8.207-3.333-10.893l-0.516-0.936c-0.331-0.624-0.542-1.16-0.627-1.637c-0.13-0.671-0.009-1.222,0.355-1.712
	c-0.491,0.363-1.043,0.486-1.709,0.361c-0.481-0.089-1.019-0.301-1.637-0.634l-0.938-0.514c-2.687-1.499-6.747-3.759-10.894-3.328
	c-4.917,0.513-7.616,2.166-9.601,3.709c-0.55,0.431-1.087,0.704-1.583,0.812c-0.264,0.06-0.522,0.076-0.771,0.044
	c-0.344-0.044-0.631-0.174-0.857-0.314c0.141,0.223,0.271,0.513,0.313,0.856c0.034,0.249,0.014,0.507-0.043,0.768
	c-0.107,0.505-0.381,1.034-0.814,1.59c-1.544,1.985-3.192,4.685-3.71,9.603c-0.428,4.14,1.833,8.203,3.329,10.891l0.517,0.935
	c0.341,0.622,0.543,1.162,0.634,1.637c0.129,0.669,0.004,1.223-0.363,1.715c0.494-0.368,1.044-0.487,1.719-0.363
	c0.471,0.088,1.014,0.301,1.631,0.629l0.935,0.522c2.692,1.498,6.757,3.757,10.888,3.326c4.924-0.513,7.621-2.163,9.61-3.711
	c0.553-0.431,1.087-0.702,1.589-0.811c0.259-0.058,0.519-0.073,0.768-0.04c0.341,0.04,0.634,0.169,0.851,0.309
	C397.281,153.628,397.152,153.343,397.109,152.995L397.109,152.995z"/>
<path d="M396.047,149.147c-0.578,0.742-0.979,1.507-1.193,2.269l0.134-0.135c-0.773,0.216-1.526,0.619-2.269,1.196
	c-1.809,1.404-4.067,2.764-8.368,3.211c-3.378,0.354-7.032-1.685-9.453-3.036c-0.002,0-0.959-0.528-0.959-0.528
	c-0.463-0.245-1.168-0.602-1.98-0.807l0.142,0.143c-0.204-0.81-0.559-1.515-0.804-1.973l-0.531-0.961
	c-1.347-2.42-3.391-6.082-3.032-9.459c0.448-4.297,1.806-6.561,3.208-8.363c0.579-0.741,0.977-1.506,1.195-2.27l-0.135,0.138
	c0.761-0.218,1.525-0.623,2.269-1.196c1.802-1.403,4.061-2.761,8.364-3.212c3.377-0.35,7.034,1.687,9.455,3.035l0.956,0.526
	c0.464,0.25,1.169,0.604,1.983,0.813l-0.144-0.144c0.206,0.809,0.561,1.508,0.803,1.968c0.004,0,0.531,0.962,0.531,0.962
	c1.352,2.424,3.393,6.083,3.036,9.461C398.806,145.082,397.445,147.347,396.047,149.147L396.047,149.147z M399.647,140.826
	c0.362-3.498-1.713-7.225-3.081-9.693c0,0.001-0.535-0.96-0.535-0.96c-0.233-0.438-0.574-1.108-0.766-1.878l-0.031-0.11
	l-0.114-0.029c-0.766-0.198-1.439-0.539-1.884-0.776c0.002,0.002-0.958-0.527-0.958-0.527c-2.461-1.374-6.182-3.445-9.687-3.079
	c-4.396,0.459-6.711,1.852-8.561,3.29c-0.699,0.547-1.418,0.926-2.134,1.128l-0.105,0.027l-0.03,0.107
	c-0.206,0.714-0.582,1.433-1.128,2.132c-1.441,1.853-2.832,4.167-3.293,8.563c-0.365,3.504,1.712,7.227,3.083,9.691
	c0-0.001,0.533,0.962,0.533,0.962c0.234,0.44,0.569,1.113,0.771,1.876l0.028,0.114l0.111,0.032c0.765,0.194,1.443,0.533,1.884,0.773
	c0-0.002,0.963,0.528,0.963,0.528c2.462,1.369,6.181,3.442,9.685,3.076c4.398-0.459,6.715-1.85,8.559-3.288
	c0.703-0.548,1.42-0.925,2.136-1.128l0.107-0.03l0.03-0.107c0.206-0.715,0.58-1.433,1.121-2.129
	C397.792,147.538,399.188,145.222,399.647,140.826L399.647,140.826z"/>
<rect x="369.762" y="122.003" transform="matrix(-0.7327 0.6806 -0.6806 -0.7327 727.4303 -32.6999)" width="0.75" height="9.02"/>
<rect x="396.381" y="148.77" transform="matrix(-0.7327 0.6806 -0.6806 -0.7327 791.739 -4.5144)" width="0.75" height="8.932"/>
<rect x="369.853" y="148.392" transform="matrix(0.6809 0.7324 -0.7324 0.6809 230.3453 -222.257)" width="0.749" height="9.633"/>
<rect x="396.352" y="122.484" transform="matrix(0.6799 0.7333 -0.7333 0.6799 220.065 -250.293)" width="0.75" height="8.878"/>
<path fill="#010202" d="M372.001,128.569"/>
</svg>
