<?xml version="1.0" encoding="utf-8"?>
<!-- Generator: Adobe Illustrator 21.1.0, SVG Export Plug-In . SVG Version: 6.00 Build 0)  -->
<svg version="1.1" id="Capa_1" xmlns="http://www.w3.org/2000/svg" xmlns:xlink="http://www.w3.org/1999/xlink" x="0px" y="0px"
	 viewBox="0 0 41 40" style="enable-background:new 0 0 41 40;" xml:space="preserve">
<style type="text/css">
	.st0{fill:#B49651;}
	.st1{fill:#070707;}
</style>
<circle class="st0" cx="21.1" cy="20" r="13.9"/>
<path class="st0" d="M31,33.4c-1.9,1.5-4.3,2.9-8.9,3.4c-3.7,0.4-7.5-1.7-10.1-3.2l-1-0.5c-0.6-0.3-1.4-0.7-2.2-0.8
	c-0.1-0.8-0.5-1.6-0.8-2.2l-0.5-1c-1.4-2.5-3.5-6.3-3.1-10c0.5-4.6,1.9-7,3.4-8.9c0.6-0.8,1-1.6,1.1-2.4c0.8-0.1,1.6-0.5,2.4-1.1
	c1.9-1.5,4.3-2.9,8.9-3.4c3.7-0.4,7.5,1.7,10.1,3.2l1,0.5c0.6,0.3,1.4,0.7,2.2,0.8c0.1,0.8,0.5,1.6,0.8,2.2l0.5,1
	c1.4,2.5,3.5,6.4,3.2,10.1c-0.5,4.6-1.9,7-3.4,8.9c-0.6,0.8-1,1.6-1.1,2.4C32.6,32.4,31.8,32.8,31,33.4L31,33.4z M34.8,33.1
	c0-0.2,0-0.5,0-0.8c0.1-0.5,0.4-1,0.8-1.6c1.5-2,3.2-4.7,3.7-9.6c0.4-4.1-1.8-8.2-3.3-10.9l-0.5-0.9c-0.3-0.6-0.5-1.2-0.6-1.6
	c-0.1-0.7,0-1.2,0.4-1.7c-0.5,0.4-1,0.5-1.7,0.4c-0.5-0.1-1-0.3-1.6-0.6l-0.9-0.5C28.2,3.7,24.2,1.4,20,1.9
	c-4.9,0.5-7.6,2.2-9.6,3.7C9.9,6,9.3,6.3,8.8,6.4C8.5,6.5,8.3,6.5,8,6.4c-0.3,0-0.6-0.2-0.9-0.3C7.4,6.3,7.5,6.6,7.5,7
	c0,0.2,0,0.5,0,0.8c-0.1,0.5-0.4,1-0.8,1.6c-1.5,2-3.2,4.7-3.7,9.6c-0.4,4.1,1.8,8.2,3.3,10.9l0.5,0.9c0.3,0.6,0.5,1.2,0.6,1.6
	c0.1,0.7,0,1.2-0.4,1.7c0.5-0.4,1-0.5,1.7-0.4c0.5,0.1,1,0.3,1.6,0.6l0.9,0.5c2.7,1.5,6.8,3.8,10.9,3.3c4.9-0.5,7.6-2.2,9.6-3.7
	c0.6-0.4,1.1-0.7,1.6-0.8c0.3-0.1,0.5-0.1,0.8,0c0.3,0,0.6,0.2,0.8,0.3C34.9,33.7,34.8,33.5,34.8,33.1L34.8,33.1z"/>
<g>
	<g>
		<path class="st1" d="M27.8,12.7h-3.3c-0.3,0-0.6,0.3-0.6,0.6V26c0,0.3,0.2,0.5,0.5,0.6v0.2V27l0,0c0,0.2,0.2,0.4,0.4,0.4
			c0.2,0,0.4-0.2,0.4-0.4l0,0v-0.2v-0.2h2v0.2V27l0,0c0,0.2,0.2,0.4,0.4,0.4c0.2,0,0.4-0.2,0.4-0.4l0,0v-0.2v-0.2
			c0.3-0.1,0.5-0.3,0.5-0.6V13.4C28.4,13,28.2,12.7,27.8,12.7z M24.4,13.8h3.4v0.8h-3.4V13.8z M25.3,19.7c0,0.2-0.2,0.4-0.4,0.4
			c-0.2,0-0.4-0.2-0.4-0.4c0-0.2,0.2-0.4,0.4-0.4C25.1,19.3,25.3,19.4,25.3,19.7z M24.4,25.5v-0.8h3.4v0.8H24.4z"/>
		<path class="st1" d="M22.8,12.7h-3.3c-0.3,0-0.6,0.3-0.6,0.6V26c0,0.3,0.2,0.5,0.5,0.6v0.2V27l0,0c0,0.2,0.2,0.4,0.4,0.4
			c0.2,0,0.4-0.2,0.4-0.4l0,0v-0.2v-0.2h2v0.2V27l0,0c0,0.2,0.2,0.4,0.4,0.4c0.2,0,0.4-0.2,0.4-0.4l0,0v-0.2v-0.2
			c0.3-0.1,0.5-0.3,0.5-0.6V13.4C23.4,13,23.1,12.7,22.8,12.7z M19.4,13.8h3.4v0.8h-3.4V13.8z M20.3,19.7c0,0.2-0.2,0.4-0.4,0.4
			c-0.2,0-0.4-0.2-0.4-0.4c0-0.2,0.2-0.4,0.4-0.4C20.1,19.3,20.3,19.4,20.3,19.7z M19.4,25.5v-0.8h3.4v0.8H19.4z"/>
		<path class="st1" d="M15.1,27L15.1,27v-0.2v-0.2h2v0.2V27l0,0c0,0.2,0.2,0.4,0.4,0.4c0.2,0,0.4-0.2,0.4-0.4l0,0v-0.2v-0.2
			c0.3-0.1,0.5-0.3,0.5-0.6V13.4c0-0.3-0.3-0.6-0.6-0.6h-3.3c-0.3,0-0.6,0.3-0.6,0.6V26c0,0.3,0.2,0.5,0.5,0.6v0.2V27l0,0
			c0,0.2,0.2,0.4,0.4,0.4C14.9,27.3,15.1,27.2,15.1,27z M14.4,13.8h3.4v0.8h-3.4V13.8z M15.2,19.7c0,0.2-0.2,0.4-0.4,0.4
			s-0.4-0.2-0.4-0.4c0-0.2,0.2-0.4,0.4-0.4C15.1,19.3,15.2,19.4,15.2,19.7z M14.4,24.8h3.4v0.8h-3.4V24.8z"/>
	</g>
</g>
</svg>
