<?xml version="1.0" encoding="utf-8"?>
<!-- Generator: Adobe Illustrator 21.1.0, SVG Export Plug-In . SVG Version: 6.00 Build 0)  -->
<svg version="1.1" id="Capa_1" xmlns="http://www.w3.org/2000/svg" xmlns:xlink="http://www.w3.org/1999/xlink" x="0px" y="0px"
	 viewBox="0 0 38 39" style="enable-background:new 0 0 38 39;" xml:space="preserve">
<style type="text/css">
	.st0{fill:#B49651;}
	.st1{font-family:'ArialMT';}
	.st2{font-size:12px;}
</style>
<path class="st0" d="M28.6,33.5c-1.9,1.5-4.3,2.9-8.9,3.4c-3.7,0.4-7.5-1.7-10.1-3.2l-1-0.5c-0.6-0.3-1.4-0.7-2.2-0.8
	c-0.1-0.8-0.5-1.6-0.8-2.2l-0.5-1c-1.4-2.5-3.5-6.4-3.2-10.1c0.5-4.6,1.9-7,3.4-8.9c0.6-0.8,1-1.6,1.1-2.4C7.2,7.7,8,7.3,8.8,6.7
	c1.9-1.5,4.3-2.9,8.9-3.4c3.7-0.4,7.5,1.7,10.1,3.2l1,0.5c0.6,0.3,1.4,0.7,2.2,0.8c0.1,0.8,0.5,1.6,0.8,2.2l0.5,1
	c1.4,2.5,3.5,6.4,3.2,10.1c-0.5,4.6-1.9,7-3.4,8.9c-0.6,0.8-1,1.6-1.1,2.4C30.2,32.5,29.4,32.9,28.6,33.5L28.6,33.5z M32.3,33.2
	c0-0.2,0-0.5,0-0.8c0.1-0.5,0.4-1,0.8-1.6c1.5-2,3.2-4.7,3.7-9.6c0.4-4.1-1.8-8.2-3.3-10.9L33,9.4c-0.3-0.6-0.5-1.2-0.6-1.6
	c-0.1-0.7,0-1.2,0.4-1.7c-0.5,0.4-1,0.5-1.7,0.4c-0.5-0.1-1-0.3-1.6-0.6l-0.9-0.5c-2.8-1.6-6.8-3.9-11-3.4C12.7,2.5,10,4.1,8,5.7
	C7.5,6.1,6.9,6.4,6.4,6.5c-0.3,0.1-0.5,0.1-0.8,0C5.3,6.5,5,6.4,4.8,6.2c0.1,0.2,0.3,0.5,0.3,0.9c0,0.2,0,0.5,0,0.8
	C5,8.3,4.7,8.9,4.3,9.4c-1.5,2-3.2,4.7-3.7,9.6c-0.4,4.1,1.8,8.2,3.3,10.9l0.5,0.9C4.7,31.5,4.9,32,5,32.5c0.1,0.7,0,1.2-0.4,1.7
	c0.5-0.4,1-0.5,1.7-0.4c0.5,0.1,1,0.3,1.6,0.6l1,0.6c2.7,1.5,6.8,3.8,10.9,3.3c4.9-0.5,7.6-2.2,9.6-3.7c0.6-0.4,1.1-0.7,1.6-0.8
	c0.3-0.1,0.5-0.1,0.8,0c0.3,0,0.6,0.2,0.9,0.3C32.5,33.8,32.4,33.6,32.3,33.2L32.3,33.2z"/>
<text transform="matrix(1 0 0 1 10.1211 18.624)" class="st0 st1 st2">ver </text>
<text transform="matrix(1 0 0 1 8.4531 27.9551)" class="st0 st1 st2">más</text>
</svg>
