<?xml version="1.0" encoding="utf-8"?>
<!-- Generator: Adobe Illustrator 21.1.0, SVG Export Plug-In . SVG Version: 6.00 Build 0)  -->
<svg version="1.1" id="Capa_1" xmlns="http://www.w3.org/2000/svg" xmlns:xlink="http://www.w3.org/1999/xlink" x="0px" y="0px"
	 viewBox="0 0 38 39" style="enable-background:new 0 0 38 39;" xml:space="preserve">
<style type="text/css">
	.st0{fill:#B49651;}
</style>
<path class="st0" d="M28.9,32.8c-1.9,1.5-4.3,2.9-8.9,3.4c-3.7,0.4-7.5-1.7-10.1-3.2l-1-0.5c-0.6-0.3-1.4-0.7-2.2-0.8
	c-0.1-0.8-0.5-1.6-0.8-2.2l-0.5-1C4,26,1.9,22.1,2.3,18.4c0.5-4.6,1.9-7,3.4-8.9c0.6-0.8,1-1.6,1.1-2.4C7.6,7,8.4,6.7,9.2,6
	c1.9-1.5,4.3-2.9,8.9-3.4c3.7-0.4,7.5,1.7,10.1,3.2l1,0.5c0.6,0.3,1.4,0.7,2.2,0.8c0.1,0.8,0.5,1.6,0.8,2.2l0.5,1
	c1.4,2.5,3.5,6.4,3.2,10.1c-0.5,4.6-1.9,7-3.4,8.9c-0.6,0.8-1,1.6-1.1,2.4C30.5,31.8,29.7,32.1,28.9,32.8L28.9,32.8z M32.7,32.5
	c0-0.2,0-0.5,0-0.8c0.1-0.5,0.4-1,0.8-1.6c1.5-2,3.2-4.7,3.7-9.6c0.4-4.1-1.8-8.2-3.3-10.9l-0.5-0.9c-0.3-0.6-0.5-1.2-0.6-1.6
	c-0.1-0.7,0-1.2,0.4-1.7c-0.5,0.4-1,0.5-1.7,0.4c-0.5-0.1-1-0.3-1.6-0.6L29,4.7C26.1,3,22.1,0.8,17.9,1.2C13,1.7,10.3,3.4,8.3,4.9
	c-0.5,0.5-1,0.7-1.5,0.8C6.5,5.8,6.2,5.8,6,5.8c-0.3,0-0.6-0.2-0.9-0.3C5.3,5.7,5.4,6,5.4,6.3c0,0.2,0,0.5,0,0.8
	C5.3,7.6,5,8.1,4.6,8.7c-1.5,2-3.2,4.7-3.7,9.6c-0.4,4.1,1.8,8.2,3.3,10.9l0.5,0.9c0.3,0.6,0.5,1.2,0.6,1.6c0.1,0.7,0,1.2-0.4,1.7
	c0.5-0.4,1-0.5,1.7-0.4c0.5,0.1,1,0.3,1.6,0.6l0.9,0.5C12,35.7,16,38,20.2,37.6c4.9-0.5,7.6-2.2,9.6-3.7c0.6-0.4,1.1-0.7,1.6-0.8
	c0.3-0.1,0.5-0.1,0.8,0c0.3,0,0.6,0.2,0.9,0.3C32.8,33.1,32.7,32.8,32.7,32.5L32.7,32.5z"/>
<g>
	<path class="st0" d="M20,25c0,0.6,0.4,0.9,0.9,0.9c0.7,0,1.1-0.4,1.3-0.9c0-0.1,0.1-0.2,0.1-0.3v-0.9C21.2,23.8,20,24,20,25z"/>
	<path class="st0" d="M19.1,13.4c-1,0-1.4,0.9-1.5,1.5h2.8C20.4,14.3,20.2,13.4,19.1,13.4z"/>
	<path class="st0" d="M19.1,5.5c-7.7,0-13.9,6.2-13.9,13.9s6.2,13.9,13.9,13.9S33,27.1,33,19.4S26.7,5.5,19.1,5.5z M19.2,12.7
		c1.7,0,2.2,1.5,2.2,2.5c0,0.2,0,0.3,0,0.4h-3.7c0,1.3,0.8,1.8,1.8,1.8c0.7,0,1.1-0.1,1.4-0.3l0.2,0.7c-0.3,0.2-0.9,0.3-1.7,0.3
		c-1.6,0-2.6-1.1-2.6-2.6C16.7,14,17.6,12.7,19.2,12.7z M21.6,19h1l-1.3,1.5h-0.7L21.6,19z M12.4,12.8l1,2.9
		c0.2,0.5,0.3,0.9,0.4,1.3l0,0c0.1-0.4,0.3-0.9,0.4-1.3l1-2.9h1L14.1,18h-0.9l-2-5.2H12.4z M17.9,26.5H17v-3c0-1-0.4-1.6-1.1-1.6
		c-0.5,0-1,0.4-1.1,0.9c0,0.1-0.1,0.3-0.1,0.5v3.2h-0.9v-3.1c0-0.8-0.4-1.4-1.1-1.4c-0.6,0-1,0.5-1.2,1c-0.1,0.1-0.1,0.3-0.1,0.5
		v3.2h-0.9v-3.8c0-0.5,0-1,0-1.4h0.8v0.8l0,0c0.3-0.5,0.8-1,1.6-1c0.7,0,1.3,0.4,1.5,1l0,0c0.2-0.3,0.4-0.5,0.6-0.7
		c0.3-0.2,0.7-0.4,1.2-0.4c0.7,0,1.7,0.5,1.7,2.3C17.9,23.5,17.9,26.5,17.9,26.5z M22.3,26.5l-0.1-0.7l0,0c-0.3,0.4-0.9,0.8-1.6,0.8
		c-1.1,0-1.6-0.7-1.6-1.5c0-1.3,1.1-2,3.1-1.9V23c0-0.4-0.1-1.2-1.2-1.2c-0.5,0-1,0.2-1.4,0.4l-0.2-0.6c0.4-0.3,1.1-0.5,1.7-0.5
		c1.6,0,2,1.1,2,2.1v2c0,0.5,0,0.9,0.1,1.3C23.1,26.5,22.3,26.5,22.3,26.5z M23.5,14.8c0,0.1,0,0.3,0,0.4V18h-0.9v-3.6
		c0-0.6,0-1.1,0-1.6h0.8v1l0,0c0.2-0.7,0.8-1.1,1.4-1.1c0.1,0,0.2,0,0.3,0v0.9c-0.1,0-0.2,0-0.3,0C24.1,13.6,23.6,14.1,23.5,14.8z
		 M25.8,26.6c-0.6,0-1.1-0.1-1.5-0.4l0.2-0.7c0.3,0.2,0.8,0.4,1.3,0.4c0.7,0,1-0.3,1-0.8s-0.3-0.7-1-1c-0.9-0.3-1.4-0.9-1.4-1.5
		c0-0.8,0.7-1.5,1.8-1.5c0.5,0,1,0.2,1.3,0.3l-0.2,0.7c-0.2-0.1-0.6-0.3-1.1-0.3c-0.6,0-0.9,0.3-0.9,0.7c0,0.4,0.3,0.6,1,0.9
		c0.9,0.3,1.4,0.8,1.4,1.6C27.7,25.9,27,26.6,25.8,26.6z"/>
</g>
</svg>
