<?xml version="1.0" encoding="utf-8"?>
<!-- Generator: Adobe Illustrator 21.1.0, SVG Export Plug-In . SVG Version: 6.00 Build 0)  -->
<svg version="1.1" id="Capa_1" xmlns="http://www.w3.org/2000/svg" xmlns:xlink="http://www.w3.org/1999/xlink" x="0px" y="0px"
	 viewBox="0 0 38 39" style="enable-background:new 0 0 38 39;" xml:space="preserve">
<style type="text/css">
	.st0{fill:#B49651;}
	.st1{fill:#070707;}
</style>
<circle class="st0" cx="18.6" cy="19.6" r="13.9"/>
<path class="st0" d="M28.4,33c-1.9,1.5-4.3,2.9-8.9,3.4c-3.7,0.4-7.5-1.7-10.1-3.2l-1-0.5C7.8,32.4,7,32,6.2,31.9
	c-0.1-0.8-0.5-1.6-0.8-2.2l-0.5-1c-1.4-2.5-3.5-6.4-3.2-10.1c0.5-4.6,1.9-7,3.4-8.9c0.6-0.8,1-1.6,1.1-2.4C7,7.2,7.8,6.8,8.6,6.2
	c1.9-1.5,4.3-2.9,8.9-3.4C21.2,2.4,25,4.5,27.6,6l1,0.5c0.6,0.3,1.4,0.7,2.2,0.8c0.1,0.8,0.5,1.6,0.8,2.2l0.5,1
	c1.4,2.5,3.5,6.4,3.2,10.1c-0.5,4.6-1.9,7-3.4,8.9c-0.6,0.8-1,1.6-1.1,2.4C30,32,29.2,32.4,28.4,33L28.4,33z M32.2,32.7
	c0-0.2,0-0.5,0-0.8c0.1-0.5,0.4-1,0.8-1.6c1.5-2,3.2-4.7,3.7-9.6c0.4-4.1-1.8-8.2-3.3-10.9l-0.5-0.9c-0.3-0.6-0.5-1.2-0.6-1.6
	c-0.1-0.7,0-1.2,0.4-1.7C32.2,6,31.7,6.1,31,6c-0.5-0.1-1-0.3-1.6-0.6l-0.9-0.5c-2.8-1.6-6.9-3.9-11-3.5c-5,0.6-7.7,2.2-9.6,3.8
	C7.3,5.6,6.8,5.9,6.3,6C6,6,5.7,6,5.5,6C5.2,6,4.9,5.8,4.6,5.7C4.8,5.9,4.9,6.2,5,6.5C5,6.7,5,7,5,7.3c-0.1,0.5-0.4,1-0.8,1.6
	c-1.5,2-3.2,4.7-3.7,9.6C0,22.7,2.2,26.7,3.7,29.4l0.5,0.9C4.6,31,4.8,31.5,4.9,32c0.1,0.7,0,1.2-0.4,1.7c0.5-0.4,1-0.5,1.7-0.4
	c0.5,0.1,1,0.3,1.6,0.6l0.9,0.5c2.7,1.5,6.8,3.8,10.9,3.3c4.9-0.5,7.6-2.2,9.6-3.7c0.6-0.4,1.1-0.7,1.6-0.8c0.3-0.1,0.5-0.1,0.8,0
	c0.3,0,0.6,0.2,0.8,0.3C32.4,33.3,32.2,33,32.2,32.7L32.2,32.7z"/>
<g>
	<path class="st1" d="M14,16.5C14,16.5,14.1,16.5,14,16.5c0.2,0.1,0.3,0.2,0.3,0.3c0,0.2,0,0.4,0,0.5s0,0.1,0,0.2c0,1.5,0,3,0,4.5
		c0,0.5-0.2,0.8-0.6,1.1c-0.3,0.2-0.6,0.3-1,0.3s-0.7-0.3-0.8-0.7c-0.1-0.3,0-0.6,0.2-0.9c0.2-0.4,0.6-0.6,1-0.7
		c0.2,0,0.4-0.2,0.6-0.4c0.1-0.1,0.1-0.3,0.1-0.4c0-0.2,0-0.4,0-0.6c0-0.4,0-0.9,0-1.3c0,0,0,0,0-0.1c-1.4,0.3-2.9,0.5-4.3,0.8
		c0,0,0,0,0,0.1c0,1.1,0,2.3,0,3.4c0,0.4-0.2,0.7-0.4,1c-0.2,0.2-0.5,0.3-0.8,0.4l0,0c-0.1,0-0.2,0-0.2,0H8
		c-0.4-0.1-0.7-0.4-0.7-0.9s0.3-0.9,0.7-1.2c0.2-0.1,0.4-0.1,0.6-0.2c0.2,0,0.4-0.2,0.5-0.3c-0.1,0,0-0.2,0-0.4c0-0.4,0-0.9,0-1.3
		c0-0.6,0-1.1,0-1.7c0-0.3,0.2-0.6,0.5-0.7c0.1,0,0.3-0.1,0.4-0.1c0.6-0.1,1.2-0.2,1.9-0.4c0.6-0.1,1.1-0.2,1.7-0.3
		c0.1,0,0.2,0,0.3-0.1C13.9,16.5,14,16.5,14,16.5z"/>
</g>
<g>
	<path class="st1" d="M21,27.1c-0.2,0.4-0.2,0.9-0.5,1.3c-0.7,1.4-2.3,2-3.9,1.6c-1.5-0.4-2.5-1.7-2.6-3.3c0-1.8,1.3-3.3,3.1-3.5
		c1.7-0.2,3.3,1,3.7,2.8c0,0.1,0,0.2,0.1,0.3C21,26.6,21,26.8,21,27.1z M14.9,26.7c0,1.5,1.2,2.7,2.7,2.7s2.7-1.2,2.7-2.7
		S19.1,24,17.6,24S14.9,25.2,14.9,26.7z"/>
	<path class="st1" d="M16.4,26.7c0-0.5,0-0.9,0-1.4c0-0.3,0.1-0.4,0.4-0.3c0.8,0.5,1.7,0.9,2.5,1.4c0.3,0.2,0.3,0.3,0,0.5
		c-0.8,0.5-1.7,0.9-2.5,1.4c-0.3,0.2-0.4,0.1-0.4-0.2C16.4,27.6,16.4,27.2,16.4,26.7z"/>
</g>
<g>
	<path class="st1" d="M23.7,18.2c-0.2,0-0.3,0-0.5,0c-0.4,0-0.9-0.1-1.3-0.2c-0.3-0.1-0.5-0.1-0.8-0.3c-0.1-0.1-0.2-0.2-0.2-0.3
		c0-1.4,0-2.7,0-4.1c0-0.3,0.1-0.4,0.3-0.5c0.2-0.1,0.5-0.2,0.7-0.2c0.4-0.1,0.9-0.1,1.3-0.2c0,0,0,0,0.1,0c0-0.1-0.1-0.1-0.1-0.2
		c-0.2-0.3-0.3-0.6-0.2-1c0-0.4,0.2-0.7,0.3-1.1c0.1-0.4,0.3-0.7,0.4-1.1c0-0.2,0-0.3,0.1-0.5c0,0,0.1,0.1,0.2,0.1
		c0.4,0.3,0.7,0.7,0.9,1.1c0.2,0.4,0.4,0.8,0.4,1.3c0,0.4-0.1,0.7-0.3,1c0,0.1-0.1,0.1-0.1,0.2c0.1,0,0.2,0,0.3,0
		c0.5,0,1,0.1,1.5,0.2c0.2,0,0.4,0.1,0.5,0.2c0.1,0.1,0.2,0.2,0.2,0.3c0,1.4,0,2.8,0,4.1c0,0.2-0.1,0.3-0.3,0.4
		c-0.3,0.1-0.6,0.2-0.9,0.3c-0.5,0.1-1,0.1-1.4,0.1h-0.1C24.3,18.2,24,18.2,23.7,18.2z M23.8,12.9L23.8,12.9c-0.1,0-0.1-0.1-0.2-0.2
		h-0.1c-0.3,0-0.6,0-0.8,0.1c-0.4,0-0.8,0.1-1.1,0.2c-0.1,0-0.2,0.1-0.3,0.1c-0.1,0-0.1,0.1,0,0.1s0.1,0.1,0.2,0.1
		c0.3,0.1,0.7,0.2,1,0.3c0.5,0.1,1,0.1,1.5,0.1c0.6,0,1.2,0,1.8-0.1c0.3,0,0.6-0.1,1-0.2c0.1,0,0.2-0.1,0.4-0.1
		c0.1-0.1,0.2-0.1,0-0.2C27,13,26.9,13,26.7,12.9c-0.5-0.1-1.1-0.2-1.7-0.2c-0.1,0-0.2,0-0.3,0.1l0,0c0.2-0.2,0.3-0.5,0.2-0.8
		c0-0.3-0.1-0.5-0.2-0.8c-0.1-0.2-0.3-0.5-0.4-0.7c0,0,0,0,0-0.1c0,0.1-0.1,0.2-0.1,0.3c-0.1,0.3-0.3,0.7-0.4,1
		c-0.1,0.2-0.2,0.5-0.1,0.8C23.6,12.6,23.7,12.7,23.8,12.9z"/>
	<path class="st1" d="M24.3,12.6c0,0.2,0,0.4,0,0.6c0,0.1,0,0.1-0.1,0.1s-0.2,0-0.2-0.1s0-0.1,0-0.2c0-0.3,0-0.6,0-1
		c0-0.1,0-0.2,0.1-0.2s0.1,0.1,0.1,0.2C24.3,12.2,24.3,12.4,24.3,12.6L24.3,12.6z"/>
</g>
<g>
	<path class="st1" d="M16.8,16.4c-0.1,0-0.2,0-0.3,0c0,0,0,0-0.1,0c-0.4,0-0.8-0.1-1.1-0.3c-0.3-0.2-0.6-0.4-0.9-0.7
		c-0.2-0.3-0.4-0.6-0.5-1s-0.1-0.9-0.1-1.3c0.1-0.6,0.3-1.1,0.6-1.6s0.6-0.9,1-1.4c0.3-0.4,0.6-0.7,1-1C16.5,9,16.5,9,16.6,8.9l0,0
		l0,0c0.2,0.1,0.3,0.3,0.5,0.4c0.3,0.3,0.6,0.6,0.8,0.9c0.3,0.3,0.5,0.6,0.7,1c0.3,0.5,0.6,1,0.7,1.6c0.1,0.5,0.1,1,0,1.6
		c-0.1,0.5-0.4,0.9-0.7,1.2c-0.2,0.2-0.5,0.4-0.8,0.6c-0.2,0.1-0.5,0.2-0.7,0.2C17,16.3,16.9,16.4,16.8,16.4z M16.4,15.4L16.4,15.4
		L16.4,15.4c0.5,0.1,0.8,0,1.2-0.2c0.3-0.2,0.6-0.4,0.7-0.8c0.2-0.4,0.3-0.8,0.2-1.3c-0.1-0.4-0.2-0.7-0.4-1c0,0,0-0.1-0.1-0.1
		C18.1,13.5,17.6,14.6,16.4,15.4z"/>
</g>
<g>
	<path class="st1" d="M25.6,27.8v-2.9c1.4-0.2,2.4-1.3,2.4-2.6c0-0.5-0.1-1.1-0.4-1.7c0-0.1-0.2-0.2-0.3-0.2h-3.9
		c-0.1,0-0.3,0.1-0.3,0.2c-0.2,0.5-0.4,1.2-0.4,1.8l0,0l0,0c0,1.3,1,2.4,2.4,2.6v2.9c-0.9,0.1-1.6,0.5-1.6,0.7s0.8,0.4,1.9,0.4
		c1,0,1.9-0.2,1.9-0.4C27.2,28.3,26.5,27.9,25.6,27.8z M23.5,20.9h3.6c0.2,0.5,0.3,1,0.3,1.4c0,0.1,0,0.2,0,0.3
		c-0.2,0-0.4-0.1-0.6,0c-0.5,0.2-0.9,0.3-1.4,0.1c-0.5-0.2-0.9-1.1-1.5-1.1c-0.3,0-0.5,0.1-0.7,0.2C23.3,21.5,23.4,21.2,23.5,20.9z"
		/>
</g>
</svg>
