<?xml version="1.0" encoding="utf-8"?>
<!-- Generator: Adobe Illustrator 21.1.0, SVG Export Plug-In . SVG Version: 6.00 Build 0)  -->
<svg version="1.1" id="Capa_1" xmlns="http://www.w3.org/2000/svg" xmlns:xlink="http://www.w3.org/1999/xlink" x="0px" y="0px"
	 viewBox="0 0 41 40" style="enable-background:new 0 0 41 40;" xml:space="preserve">
<style type="text/css">
	.st0{fill:#B49651;}
	.st1{fill:#070707;}
</style>
<circle class="st0" cx="20.6" cy="20.2" r="13.9"/>
<path class="st0" d="M30.5,33.6c-1.9,1.5-4.3,2.9-8.9,3.4c-3.7,0.4-7.5-1.7-10.1-3.2l-1-0.5c-0.6-0.3-1.4-0.7-2.2-0.8
	c-0.1-0.8-0.5-1.6-0.8-2.2l-0.5-1c-1.4-2.5-3.5-6.4-3.2-10.1c0.5-4.6,1.9-7,3.4-8.9c0.6-0.8,1-1.6,1.1-2.4c0.8-0.1,1.6-0.5,2.4-1.1
	c1.9-1.5,4.3-2.9,8.9-3.4c3.7-0.4,7.5,1.7,10.1,3.2l1,0.5c0.6,0.3,1.4,0.7,2.2,0.8c0.1,0.8,0.5,1.6,0.8,2.2l0.5,1
	c1.4,2.5,3.5,6.4,3.2,10.1c-0.5,4.6-1.9,7-3.4,8.9c-0.6,0.8-1,1.6-1.1,2.4C32.1,32.6,31.3,32.9,30.5,33.6L30.5,33.6z M34.3,33.3
	c0-0.2,0-0.5,0-0.8c0.1-0.5,0.4-1,0.8-1.6c1.5-2,3.2-4.7,3.7-9.6c0.4-4.1-1.8-8.2-3.3-10.9L35,9.5c-0.3-0.6-0.5-1.2-0.6-1.6
	c-0.1-0.7,0-1.2,0.4-1.7c-0.5,0.4-1,0.5-1.7,0.4c-0.5-0.1-1-0.3-1.6-0.6l-0.9-0.5C27.7,3.8,23.7,1.6,19.5,2
	c-4.9,0.5-7.6,2.2-9.6,3.7C9.4,6.1,8.8,6.4,8.3,6.5C8,6.6,7.8,6.6,7.5,6.5c-0.3,0-0.6-0.2-0.9-0.3C6.9,6.5,7,6.8,7,7.1
	c0,0.2,0,0.5,0,0.8c-0.1,0.5-0.4,1-0.8,1.6c-1.5,2-3.2,4.7-3.7,9.6C2,23.2,4.3,27.3,5.8,30l0.5,0.9c0.3,0.6,0.5,1.2,0.6,1.6
	c0.1,0.7,0,1.2-0.4,1.7c0.5-0.4,1-0.5,1.7-0.4c0.5,0.1,1,0.3,1.6,0.6l0.9,0.5c2.7,1.5,6.8,3.8,10.9,3.3c4.9-0.5,7.6-2.2,9.6-3.7
	c0.6-0.4,1.1-0.7,1.6-0.8c0.3-0.1,0.5-0.1,0.8,0c0.3,0,0.6,0.2,0.8,0.3C34.4,33.9,34.3,33.6,34.3,33.3L34.3,33.3z"/>
<g>
	<path class="st1" d="M11.3,23.1c0-1,0-1.9,0-2.9c0-0.1,0-0.1,0.1-0.2c0.1-0.5,0.3-0.9,0.5-1.4c0.2-0.3,0.5-0.6,0.8-0.9
		c0.1-0.1,0.3-0.3,0.4-0.4l0,0H13c-0.3-0.1-0.6-0.3-0.8-0.6c-0.2-0.3-0.1-0.7,0.2-0.9c0.4-0.2,0.8-0.2,1.2-0.2
		c0.3,0,0.5,0.2,0.5,0.5c0,0.1,0,0.1,0,0.2h0.1c0.5-0.5,1-0.9,1.5-1.4c0.5-0.5,1-0.7,1.7-0.8c2.1,0,4.3,0,6.4,0c0.5,0,1,0.2,1.4,0.5
		s0.8,0.7,1.2,1.1c0.2,0.2,0.4,0.4,0.7,0.6c0-0.1,0-0.2,0-0.2c0-0.3,0.2-0.5,0.5-0.5c0.4-0.1,0.8,0,1.2,0.2c0.4,0.2,0.5,0.6,0.2,0.9
		c-0.2,0.3-0.5,0.5-0.8,0.6h-0.1c0.2,0.2,0.4,0.4,0.6,0.6c0.6,0.5,0.9,1.1,1.1,1.9c0,0.1,0.1,0.3,0.1,0.4c0,1,0,1.9,0,2.9l0,0
		c-0.1,0.4-0.2,0.8-0.5,1.2c0,0,0,0.1,0,0.2c0,0.3,0,0.6,0,0.9c0,0.4-0.4,0.8-0.9,0.8s-0.9,0-1.4,0c-0.6,0-0.9-0.4-0.9-1
		c0-0.2,0-0.2-0.2-0.2c-3.5,0-7,0-10.5,0c-0.2,0-0.2,0-0.2,0.2c0,0.6-0.4,1-0.9,1s-1,0-1.4,0s-0.8-0.4-0.8-0.8c0-0.3,0-0.5,0-0.8
		c0-0.2,0-0.3-0.1-0.4S12,24.1,11.9,24C11.5,23.7,11.4,23.4,11.3,23.1z M14.3,17.6c4.2,0,8.4,0,12.6,0c0-0.1-0.1-0.1-0.1-0.1
		c-0.6-0.6-1.2-1.2-1.8-1.8c-0.4-0.4-0.8-0.6-1.3-0.6c-2.1,0-4.1,0-6.2,0c-0.4,0-0.8,0.2-1.1,0.4c-0.5,0.5-1,0.9-1.5,1.4
		C14.7,17.1,14.5,17.3,14.3,17.6z M16.4,20.4c0,0.5,0.1,1,0.4,1.3c0.2,0.3,0.5,0.4,0.9,0.4c0.3,0,0.5,0,0.8,0c1.7,0,3.4,0,5.1,0
		c0.2,0,0.4,0,0.6-0.2c0.3-0.2,0.5-0.6,0.6-0.9c0.1-0.2,0.1-0.4,0.1-0.7C22,20.4,19.2,20.4,16.4,20.4z M16.7,22.9
		c0,0.3,0.1,0.5,0.2,0.6c0.2,0.3,0.6,0.4,0.9,0.4c1.8,0,3.7,0,5.5,0c0.1,0,0.2,0,0.3,0c0.5-0.1,0.9-0.5,0.9-1
		C21.9,22.9,19.3,22.9,16.7,22.9z M27.4,21.2L27.4,21.2c0.3,0,0.6,0,0.9-0.1c0.5-0.1,0.9-0.6,0.8-1.2s-0.8-1.1-1.4-0.8
		c-0.5,0.2-1,0.5-1.4,0.8c-0.2,0.2-0.4,0.4-0.6,0.6s-0.1,0.4,0.1,0.5c0.1,0,0.1,0.1,0.2,0.1C26.6,21.1,27,21.2,27.4,21.2z
		 M13.8,21.2L13.8,21.2c0.1,0,0.1,0,0.2,0c0.4,0,0.8-0.1,1.1-0.1c0.4-0.1,0.5-0.3,0.2-0.6l-0.1-0.1c-0.5-0.5-1-0.8-1.6-1.1
		c-0.2-0.1-0.4-0.2-0.6-0.2c-0.6,0-1,0.5-1,1c0,0.6,0.5,1,0.9,1.1C13.3,21.2,13.5,21.2,13.8,21.2z M16,24L16,24
		c-0.4-0.5-0.8-1-1.2-1.4l-0.1-0.1c-0.6,0-1.2,0-1.8,0c0,0-0.1,0-0.1,0.1c-0.1,0.2-0.2,0.5-0.1,0.8c0.2,0.4,0.6,0.6,1.1,0.7
		c0.7,0,1.5,0,2.2,0C15.9,24,16,24,16,24z M25.2,24L25.2,24c0.1,0,0.1,0,0.2,0c0.6,0,1.2,0,1.9,0c0.4,0,0.7-0.1,1-0.3
		c0.5-0.3,0.6-0.7,0.3-1.2c0,0-0.1-0.1-0.2-0.1c-0.6,0-1.2,0-1.8,0c-0.1,0-0.1,0-0.2,0.1s-0.2,0.3-0.4,0.4
		C25.8,23.3,25.5,23.6,25.2,24z"/>
</g>
</svg>
