<?xml version="1.0" encoding="utf-8"?>
<!-- Generator: Adobe Illustrator 21.1.0, SVG Export Plug-In . SVG Version: 6.00 Build 0)  -->
<svg version="1.1" id="Capa_1" xmlns="http://www.w3.org/2000/svg" xmlns:xlink="http://www.w3.org/1999/xlink" x="0px" y="0px"
	 viewBox="0 0 38 39" style="enable-background:new 0 0 38 39;" xml:space="preserve">
<style type="text/css">
	.st0{fill:#B49651;}
	.st1{fill:#070707;}
</style>
<circle class="st0" cx="19.3" cy="19" r="13.9"/>
<path class="st0" d="M29.1,32.4c-1.9,1.5-4.3,2.9-8.9,3.4c-3.7,0.4-7.5-1.7-10.1-3.2l-1-0.5c-0.6-0.3-1.4-0.7-2.2-0.8
	c-0.1-0.8-0.5-1.6-0.8-2.2l-0.5-1C4.2,25.6,2.1,21.7,2.4,18c0.5-4.6,1.9-7,3.4-8.9c0.6-0.8,1-1.6,1.1-2.4c0.8-0.1,1.6-0.5,2.4-1.1
	c1.9-1.5,4.3-2.9,8.9-3.4C22,1.9,25.8,4,28.4,5.4l1,0.5c0.6,0.3,1.4,0.7,2.2,0.8C31.7,7.6,32,8.3,32.4,9l0.5,1
	c1.4,2.5,3.5,6.4,3.2,10.1c-0.5,4.6-1.9,7-3.4,8.9c-0.6,0.8-1,1.6-1.1,2.4C30.7,31.4,29.9,31.8,29.1,32.4L29.1,32.4z M32.9,32.1
	c0-0.2,0-0.5,0-0.8c0.1-0.5,0.4-1,0.8-1.6c1.5-2,3.2-4.7,3.7-9.6c0.4-4.1-1.8-8.2-3.3-10.9l-0.5-0.9c-0.3-0.6-0.5-1.2-0.6-1.6
	C32.9,6,33,5.5,33.3,5c-0.5,0.4-1,0.5-1.7,0.4c-0.5-0.1-1-0.3-1.6-0.6l-0.9-0.5C26.4,2.8,22.4,0.5,18.2,1c-5,0.4-7.7,2-9.6,3.6
	C8,5,7.5,5.3,7,5.4c-0.3,0.1-0.5,0.1-0.8,0c-0.3,0-0.6-0.2-0.9-0.3C5.5,5.3,5.6,5.6,5.7,6c0,0.2,0,0.5,0,0.8c-0.1,0.5-0.4,1-0.8,1.6
	c-1.5,2-3.2,4.7-3.7,9.6C0.8,22.1,3,26.2,4.5,28.9L5,29.8c0.3,0.6,0.5,1.2,0.6,1.6c0.1,0.7,0,1.2-0.4,1.7c0.5-0.4,1-0.5,1.7-0.4
	c0.5,0.1,1,0.3,1.6,0.6l0.9,0.5c2.7,1.5,6.8,3.8,10.9,3.3c4.9-0.5,7.6-2.2,9.6-3.7c0.6-0.4,1.1-0.7,1.6-0.8c0.3-0.1,0.5-0.1,0.8,0
	c0.3,0,0.6,0.2,0.9,0.3C33.1,32.7,32.9,32.5,32.9,32.1L32.9,32.1z"/>
<g>
	<path class="st1" d="M23.7,22.4c0-0.2-0.1-0.4-0.1-0.6c-0.2,0-0.4,0.1-0.6,0.1c-0.5,0.1-1,0.2-1.6,0.3c-0.1,0-0.2,0-0.2,0
		c-0.9,0-1.8,0-2.7,0c-0.7,0-1.3,0.6-1.3,1.3c0,0.1,0,0.2,0,0.4c0,0.1,0.1,0.2,0.1,0.3h-0.1c-2.3,0-4.6,0-6.9,0
		c-0.4,0-0.8-0.3-0.9-0.7c-0.1-0.5,0.2-0.9,0.6-1c0.2-0.1,0.4-0.1,0.7-0.1c1.4-0.1,2.8-0.2,4.2-0.3c0.5,0,0.9-0.1,1.4-0.1
		c0,0,0,0,0.1,0c-0.2-0.3-0.4-0.6-0.6-0.9c-0.2-0.3-0.4-0.6-0.6-0.8c-0.1-0.1-0.1-0.1-0.2-0.1c-1,0-1.9,0-2.9,0
		c-0.5,0-0.9-0.3-0.9-0.8c-0.1-0.5,0.2-0.9,0.7-1c0.2,0,0.3,0,0.5,0c0.9,0,1.8,0,2.7,0h0.1c0,0.1-0.1,0.2-0.1,0.2
		c-0.3,0.8,0.2,1.6,1,1.7c0.2,0,0.5,0,0.7-0.1s0.5-0.2,0.7-0.3c0.1,0,0.1,0,0.2,0c0.4,0.4,0.7,0.7,1.1,1.1c0,0,0.1,0.1,0.2,0.1
		c1.7,0,3.3,0,5,0c0.8,0,1.5,0.6,1.6,1.4s-0.5,1.5-1.3,1.7c-0.1,0-0.2,0-0.3,0c-1.8,0-3.7,0-5.5,0c-0.4,0-0.7-0.3-0.7-0.7
		c0-0.4,0.3-0.7,0.7-0.7c0.9,0,1.7,0,2.6,0c0.3,0,0.7-0.1,1-0.2c0.5-0.1,0.9-0.2,1.4-0.3C23.6,22.5,23.6,22.4,23.7,22.4z"/>
	<path class="st1" d="M19.3,26.5c-3,0-6.1,0-9.1,0c-0.5,0-0.8-0.2-0.8-0.8c0-0.2,0-0.3,0-0.5s0.1-0.3,0.3-0.3c0.1,0,0.1,0,0.2,0
		c4.8,0,9.6,0,14.4,0c0.5,0,0.9-0.1,1.3-0.4c0.2-0.2,0.4-0.3,0.6-0.5c0.2-0.1,0.4-0.2,0.6-0.2c0.5,0,1.1,0,1.6,0
		c0.4,0,0.7,0.2,0.7,0.7c0,0.4,0,0.8,0,1.3s-0.2,0.7-0.7,0.7C25.3,26.5,22.3,26.5,19.3,26.5z"/>
	<path class="st1" d="M19.5,15.5c-0.2-0.1-0.3-0.1-0.5-0.2c-0.1,0.3-0.3,0.6-0.4,0.9v0.1c-0.1,0.2-0.1,0.5-0.3,0.6
		c-0.2,0.1-0.4,0.2-0.6,0.3c-0.4,0.1-0.8,0.3-1.2,0.4c0,0-0.1,0-0.2,0.1c0-0.7,0-1.3,0-2c-0.1,0.1-0.1,0.1-0.1,0.1
		c-0.6,0.6-1.1,1.2-1.7,1.9c-0.1,0.1-0.1,0.1-0.2,0.1c-0.6,0-1.3,0-1.9,0c0,0-0.1,0-0.2,0c0.1-0.1,0.1-0.1,0.1-0.2
		c1.2-1.4,2.5-2.7,3.7-4.1c0.4-0.4,0.8-0.5,1.3-0.5c0.8,0,1.6,0,2.4,0c1.1,0,1.9,1,1.4,2.1c-0.4,1-0.9,2.1-1.3,3.1
		c-0.1,0.2-0.2,0.3-0.4,0.4c-1,0.4-1.9,0.7-2.9,1.1c-0.4,0.1-0.8,0-0.9-0.4c-0.1-0.4,0-0.8,0.4-0.9c0.8-0.3,1.6-0.6,2.4-0.9
		c0.1,0,0.2-0.1,0.2-0.2c0.2-0.5,0.5-1.1,0.7-1.6C19.5,15.6,19.5,15.6,19.5,15.5z"/>
	<path class="st1" d="M18.8,12.6c-1,0-1.8-0.8-1.8-1.8S17.8,9,18.8,9s1.8,0.8,1.8,1.8C20.7,11.7,19.8,12.6,18.8,12.6z"/>
	<path class="st1" d="M27.5,23.2c-0.9,0-1.7-0.7-1.7-1.6s0.8-1.7,1.7-1.7c0.9,0,1.7,0.8,1.7,1.7C29.1,22.5,28.4,23.2,27.5,23.2z"/>
	<path class="st1" d="M21.3,16.5c0,1.2,0,2.5,0,3.7h-0.1c-0.7,0-1.5,0-2.2,0c-0.1,0-0.2,0-0.2-0.1c-0.1-0.1-0.3-0.3-0.5-0.4
		c0.1,0,0.2-0.1,0.3-0.1c0.4-0.1,0.8-0.3,1.1-0.4c0.4-0.1,0.6-0.4,0.7-0.7C20.7,17.8,21,17.2,21.3,16.5L21.3,16.5z"/>
</g>
</svg>
