<?xml version="1.0" encoding="utf-8"?>
<!-- Generator: Adobe Illustrator 21.1.0, SVG Export Plug-In . SVG Version: 6.00 Build 0)  -->
<svg version="1.1" id="Capa_1" xmlns="http://www.w3.org/2000/svg" xmlns:xlink="http://www.w3.org/1999/xlink" x="0px" y="0px"
	 viewBox="0 0 38 39" style="enable-background:new 0 0 38 39;" xml:space="preserve">
<style type="text/css">
	.st0{fill:#B49651;}
</style>
<path class="st0" d="M28.9,32.8c-1.9,1.5-4.3,2.9-8.9,3.4c-3.7,0.4-7.5-1.7-10.1-3.2l-1-0.5c-0.6-0.3-1.4-0.7-2.2-0.8
	c-0.1-0.8-0.5-1.6-0.8-2.2l-0.5-1C4,26,1.9,22.1,2.3,18.4c0.5-4.6,1.9-7,3.4-8.9c0.6-0.8,1-1.6,1.1-2.4C7.6,7,8.4,6.7,9.2,6
	c1.9-1.5,4.3-2.9,8.9-3.4c3.7-0.4,7.5,1.7,10.1,3.2l1,0.5c0.6,0.3,1.4,0.7,2.2,0.8c0.1,0.8,0.5,1.6,0.8,2.2l0.5,1
	c1.4,2.5,3.5,6.4,3.2,10.1c-0.5,4.6-1.9,7-3.4,8.9c-0.6,0.8-1,1.6-1.1,2.4C30.5,31.8,29.7,32.1,28.9,32.8L28.9,32.8z M32.7,32.5
	c0-0.2,0-0.5,0-0.8c0.1-0.5,0.4-1,0.8-1.6c1.5-2,3.2-4.7,3.7-9.6c0.4-4.1-1.8-8.2-3.3-10.9l-0.5-0.9c-0.3-0.6-0.5-1.2-0.6-1.6
	c-0.1-0.7,0-1.2,0.4-1.7c-0.5,0.4-1,0.5-1.7,0.4c-0.5-0.1-1-0.3-1.6-0.6L29,4.7C26.1,3,22.1,0.8,17.9,1.2C13,1.7,10.3,3.4,8.3,4.9
	c-0.5,0.5-1,0.7-1.5,0.8C6.5,5.8,6.2,5.8,6,5.8c-0.3,0-0.6-0.2-0.9-0.3C5.3,5.7,5.4,6,5.4,6.3c0,0.2,0,0.5,0,0.8
	C5.3,7.6,5,8.1,4.6,8.7c-1.5,2-3.2,4.7-3.7,9.6c-0.4,4.1,1.8,8.2,3.3,10.9l0.5,0.9c0.3,0.6,0.5,1.2,0.6,1.6c0.1,0.7,0,1.2-0.4,1.7
	c0.5-0.4,1-0.5,1.7-0.4c0.5,0.1,1,0.3,1.6,0.6l0.9,0.5C12,35.7,16,38,20.2,37.6c4.9-0.5,7.6-2.2,9.6-3.7c0.6-0.4,1.1-0.7,1.6-0.8
	c0.3-0.1,0.5-0.1,0.8,0c0.3,0,0.6,0.2,0.9,0.3C32.8,33.1,32.7,32.8,32.7,32.5L32.7,32.5z"/>
<path class="st0" d="M19.1,5.5c-7.7,0-13.9,6.2-13.9,13.9s6.2,13.9,13.9,13.9S33,27.1,33,19.4S26.7,5.5,19.1,5.5z M14.4,27.7V11.1
	l12.7,8.3L14.4,27.7z"/>
</svg>
