<?xml version="1.0" encoding="utf-8"?>
<!-- Generator: Adobe Illustrator 21.1.0, SVG Export Plug-In . SVG Version: 6.00 Build 0)  -->
<svg version="1.1" id="Capa_1" xmlns="http://www.w3.org/2000/svg" xmlns:xlink="http://www.w3.org/1999/xlink" x="0px" y="0px"
	 viewBox="0 0 38 39" style="enable-background:new 0 0 38 39;" xml:space="preserve">
<style type="text/css">
	.st0{fill:#B49651;}
	.st1{fill:#070707;}
</style>
<circle class="st0" cx="19.2" cy="19.4" r="13.9"/>
<path class="st0" d="M29.1,32.8c-1.9,1.5-4.3,2.9-8.9,3.4c-3.7,0.4-7.5-1.7-10.1-3.2l-1-0.5c-0.6-0.3-1.4-0.7-2.2-0.8
	c-0.1-0.8-0.5-1.6-0.8-2.2l-0.5-1C4.2,26,2.1,22.1,2.4,18.4c0.5-4.6,1.9-7,3.4-8.9c0.6-0.8,1-1.6,1.1-2.4C7.8,7,8.6,6.7,9.4,6
	c1.9-1.5,4.3-2.9,8.9-3.4c3.7-0.4,7.5,1.7,10.1,3.2l1,0.5C30,6.6,30.8,7,31.6,7.1c0.1,0.8,0.5,1.6,0.8,2.2l0.5,1
	c1.4,2.5,3.5,6.4,3.2,10.1c-0.5,4.6-1.9,7-3.4,8.9c-0.6,0.8-1,1.6-1.1,2.4C30.7,31.8,29.9,32.1,29.1,32.8L29.1,32.8z M32.8,32.5
	c0-0.2,0-0.5,0-0.8c0.1-0.5,0.4-1,0.8-1.6c1.5-2,3.2-4.7,3.7-9.6c0.4-4.1-1.8-8.2-3.3-10.9l-0.5-0.9C33.2,8.1,33,7.5,32.9,7
	c-0.1-0.7,0-1.2,0.4-1.7c-0.5,0.4-1,0.5-1.7,0.4c-0.5-0.1-1-0.3-1.6-0.6l-1-0.6C26.3,3,22.3,0.8,18.1,1.2c-4.9,0.5-7.6,2.2-9.6,3.7
	C8,5.4,7.4,5.6,6.9,5.7c-0.3,0.1-0.5,0.1-0.8,0c-0.3,0-0.6-0.2-0.9-0.3C5.4,5.7,5.6,6,5.6,6.3c0,0.2,0,0.5,0,0.8
	c-0.1,0.5-0.4,1-0.8,1.6c-1.5,2-3.2,4.7-3.7,9.6c-0.4,4.1,1.8,8.2,3.3,10.9l0.5,0.9c0.3,0.6,0.5,1.2,0.6,1.6c0.1,0.7,0,1.2-0.4,1.7
	c0.5-0.4,1-0.5,1.7-0.4c0.5,0.1,1,0.3,1.6,0.6l0.9,0.5c2.7,1.5,6.8,3.8,10.9,3.3c4.9-0.5,7.6-2.2,9.6-3.7c0.6-0.4,1.1-0.7,1.6-0.8
	c0.3-0.1,0.5-0.1,0.8,0c0.3,0,0.6,0.2,0.9,0.3C33,33.1,32.9,32.8,32.8,32.5L32.8,32.5z"/>
<g>
	<path class="st1" d="M30.3,20.8c-0.4-0.1-0.8-0.2-1.2-0.3c-0.1,0-0.1,0-0.2-0.1c-0.3-0.1-0.6-0.2-0.9-0.3c-0.5-0.3-1.1-0.3-1.6-0.5
		c-1-0.3-2.2-0.1-3.2,0.1c-0.5,0.1-1,0.2-1.5,0.4c-0.3,0.1-0.7,0.2-1,0.3c-0.2,0.1-0.4,0.1-0.6,0.1c-0.8,0.1-1.6,0-2.4-0.3
		c-0.5-0.2-1.1-0.3-1.6-0.5c-0.6-0.2-1.2-0.3-1.9-0.3c-1.1,0-2.3,0-3.4,0.4c-0.3,0.1-0.6,0.3-1,0.4c-0.3,0.1-0.6,0.1-0.9,0.2
		c-0.2,0-0.4,0.1-0.6,0.1c0,0.5,0,1,0,1.5c0.1,0,0.2,0,0.4,0c0.3,0.2,0.8,0,1.2-0.1c0.3-0.1,0.6-0.2,0.8-0.3c0.3-0.1,0.7-0.3,1-0.4
		c0.4-0.1,0.9-0.2,1.3-0.2c0.6,0,1.1-0.1,1.7,0c0.5,0.1,0.9,0.2,1.4,0.4c1.1,0.3,2.1,0.6,3.2,0.7c1.2,0,2-0.4,3.1-0.7
		c0.6-0.1,1.1-0.2,1.7-0.3c0.3,0,0.6,0,0.9,0c0.4,0,0.8,0,1.2,0.1c0.5,0.1,1,0.3,1.5,0.4c0.4,0.1,0.8,0.3,1.2,0.4
		c0.4,0.1,0.8,0.2,1.2,0.2C30.3,21.7,30.3,21.3,30.3,20.8z"/>
	<path class="st1" d="M18.2,17.4C18.2,17.5,18.2,17.5,18.2,17.4c0.1,0.1-0.8,0.4-0.8,0.4c-0.2,0.1-0.5,0.1-0.7,0.2
		c-0.4,0.1-0.7,0.2-1.1,0.3c-0.5,0.1-1,0.2-1.5,0.3L14,18.7l0.1,0.1c0.4,0,0.8,0.1,1.2,0.1c0.4,0.1,0.9,0.2,1.3,0.3
		c0.3,0.1,0.6,0.3,1,0.4s0.8,0.2,1.3,0.3c0.4,0,0.9,0,1.3,0c0.5-0.1,0.9-0.2,1.4-0.4c0.5-0.1,0.9-0.3,1.4-0.4c0.1,0,0.2,0,0.3,0
		c0.1,0,0.2-0.1,0.2-0.1c0-0.1,0-0.2-0.1-0.2c-0.6-0.6-1.1-1.2-1.7-1.8c-0.3-0.3-0.6-0.7-0.9-1c-0.4-0.4-0.8-0.9-1.2-1.3
		c-0.3-0.3-0.5-0.6-0.8-0.8s-0.6-0.4-0.9-0.6C17.4,13,17,13,16.6,13c-1.7,0-3.4,0-5.1,0c-0.6,0-1.1,0.3-1.3,0.9
		c-0.1,0.4,0,0.9,0.3,1.1c0.3,0.2,0.6,0.3,1,0.3c1.4,0,2.8,0,4.3,0c0.3,0,0.5,0.1,0.6,0.3c0.2,0.2,0.4,0.4,0.6,0.6
		c0.3,0.3,0.6,0.7,0.9,1C18,17.2,18.1,17.3,18.2,17.4z"/>
	<path class="st1" d="M25.2,19c0.7,0,1.3-0.3,1.7-0.8c0.5-0.5,0.7-1.1,0.6-1.8c-0.1-0.4-0.3-0.9-0.6-1.2c-1.3-1.3-3.4-0.6-3.9,1.1
		c-0.1,0.5-0.1,1,0.2,1.5C23.6,18.6,24.3,19,25.2,19z"/>
	<path class="st1" d="M30.3,23c-0.4-0.1-0.8-0.2-1.2-0.3c-0.1,0-0.1,0-0.2-0.1c-0.3-0.1-0.6-0.2-0.9-0.3c-0.5-0.3-1.1-0.3-1.6-0.5
		c-1-0.3-2.2-0.1-3.2,0.1c-0.5,0.1-1,0.2-1.5,0.4c-0.3,0.1-0.7,0.2-1,0.3c-0.2,0.1-0.4,0.1-0.6,0.1c-0.8,0.1-1.6,0-2.4-0.3
		c-0.5-0.2-1.1-0.3-1.6-0.5c-0.6-0.2-1.2-0.3-1.9-0.3c-1.1,0-2.3,0-3.4,0.4c-0.3,0.1-0.6,0.3-1,0.4c-0.3,0.1-0.6,0.1-0.9,0.2
		c-0.2,0-0.4,0.1-0.6,0.1c0,0.5,0,1,0,1.5c0.1,0,0.2,0,0.4,0C9,24.3,9.5,24.1,9.9,24c0.3-0.1,0.6-0.2,0.8-0.3c0.3-0.1,0.7-0.3,1-0.4
		c0.4-0.1,0.9-0.2,1.3-0.2c0.6,0,1.1-0.1,1.7,0c0.5,0.1,0.9,0.2,1.4,0.4c1.1,0.3,2.1,0.6,3.2,0.7c1.2,0,2-0.4,3.1-0.7
		c0.6-0.1,1.1-0.2,1.7-0.3c0.3,0,0.6,0,0.9,0c0.4,0,0.8,0,1.2,0.1c0.5,0.1,1,0.3,1.5,0.4c0.4,0.1,0.8,0.3,1.2,0.5
		c0.4,0.1,0.8,0.2,1.2,0.2C30.3,23.9,30.3,23.4,30.3,23z"/>
</g>
</svg>
