<?xml version="1.0" encoding="utf-8"?>
<!-- Generator: Adobe Illustrator 21.1.0, SVG Export Plug-In . SVG Version: 6.00 Build 0)  -->
<svg version="1.1" id="Capa_1" xmlns="http://www.w3.org/2000/svg" xmlns:xlink="http://www.w3.org/1999/xlink" x="0px" y="0px"
	 viewBox="0 0 39 39" style="enable-background:new 0 0 39 39;" xml:space="preserve">
<style type="text/css">
	.st0{fill:#B49651;}
	.st1{fill:#070707;}
</style>
<circle class="st0" cx="20.2" cy="19.8" r="13.9"/>
<path class="st0" d="M30.1,33.2c-1.9,1.5-4.3,2.9-8.9,3.4c-3.7,0.4-7.5-1.7-10.1-3.2l-1-0.5c-0.6-0.3-1.4-0.7-2.2-0.8
	c-0.1-0.8-0.5-1.6-0.8-2.2l-0.5-1c-1.4-2.5-3.6-6.3-3.2-10c0.5-4.6,1.9-7,3.4-8.9c0.6-0.8,1-1.6,1.1-2.4c0.8-0.1,1.6-0.5,2.4-1.1
	c2-1.5,4.4-3,8.9-3.5c3.7-0.4,7.5,1.7,10.1,3.2l1,0.5c0.6,0.3,1.4,0.7,2.2,0.8c0.1,0.8,0.5,1.6,0.8,2.2l0.5,1
	c1.4,2.5,3.5,6.4,3.2,10.1c-0.5,4.6-1.9,7-3.4,8.9c-0.6,0.8-1,1.6-1.1,2.4C31.7,32.2,30.9,32.6,30.1,33.2L30.1,33.2z M33.8,32.9
	c0-0.2,0-0.5,0-0.8c0.1-0.5,0.4-1,0.8-1.6c1.5-2,3.2-4.7,3.7-9.6c0.4-4.1-1.8-8.2-3.3-10.9l-0.5-0.9c-0.3-0.6-0.5-1.2-0.6-1.6
	c-0.1-0.7,0-1.2,0.4-1.7c-0.5,0.4-1,0.5-1.7,0.4c-0.5-0.1-1-0.3-1.6-0.6L30,5c-2.7-1.5-6.7-3.8-10.9-3.3c-4.9,0.5-7.6,2.2-9.6,3.7
	C8.9,5.8,8.4,6.1,7.9,6.2c-0.3,0.1-0.5,0.1-0.8,0C6.8,6.2,6.5,6,6.3,5.9c0.1,0.2,0.3,0.5,0.3,0.9c0,0.2,0,0.5,0,0.8
	C6.4,8,6.2,8.6,5.7,9.1c-1.5,2-3.2,4.7-3.7,9.6c-0.4,4.1,1.8,8.2,3.3,10.9l0.5,0.9c0.3,0.6,0.5,1.2,0.6,1.6c0.1,0.7,0,1.2-0.4,1.7
	c0.5-0.4,1-0.5,1.7-0.4c0.5,0.1,1,0.3,1.6,0.6l0.9,0.5c2.7,1.5,6.8,3.8,10.9,3.3c4.9-0.5,7.6-2.2,9.6-3.7c0.6-0.4,1.1-0.7,1.6-0.8
	c0.3-0.1,0.5-0.1,0.8,0c0.3,0,0.6,0.2,0.9,0.3C34,33.5,33.9,33.2,33.8,32.9L33.8,32.9z"/>
<g>
	<path class="st1" d="M25.6,27.2c-4.2,0-8.5,0-12.7,0c-0.2-0.1-0.4-0.1-0.5-0.2c-0.3-0.2-0.5-0.5-0.6-0.9c-0.1-0.5,0-0.9,0.4-1.3
		c0.3-0.3,0.6-0.4,1-0.4c0.8,0,1.6,0,2.4,0c0.2,0,0.2-0.1,0.3-0.2c0.3-0.7,0.8-1.3,1.2-1.9c0.4-0.5,0.7-1,1.1-1.4
		c0.2-0.3,0.4-0.6,0.7-0.8c0.5-0.5,1.3-0.6,1.9,0c0.4,0.4,0.8,0.8,1.2,1.1c0.2,0.1,0.3,0.3,0.5,0.4l0,0c-0.2-0.5-0.3-0.9-0.5-1.4
		c-0.2-0.4-0.4-0.8-0.6-1.2c0-0.1-0.1-0.1-0.2-0.1c-0.5,0.1-1,0.2-1.4,0.2c-0.8,0.1-1.6,0-2.4-0.2c-0.3-0.1-0.6-0.2-0.8-0.6
		c-0.2-0.3-0.2-0.6-0.1-0.9c0-0.1,0-0.1,0-0.2c-0.2-0.3-0.5-0.5-0.7-0.8c-0.5-0.5-1-1.1-1.5-1.6c-0.2-0.2-0.4-0.5-0.7-0.7
		c-0.1-0.1,0-0.1,0-0.2c0.1-0.4,0.3-0.7,0.4-1.1c0.1-0.2,0.1-0.4,0.2-0.6l0.1,0.1c0.5,0.5,1,1,1.5,1.6c0.8,0.8,1.6,1.7,2.4,2.5
		c0.1,0.1,0.2,0.2,0,0.3c0.3,0,0.5,0.1,0.8,0.1c0.9,0.1,1.7-0.1,2.5-0.4c0.1,0,0.2-0.1,0.2-0.1c0.4-0.4,0.9-0.7,1.5-0.8
		c0.9-0.1,1.6,0.2,2.2,0.9c0.3,0.4,0.5,0.8,0.7,1.2c0.3,0.6,0.6,1.3,0.8,1.9c0.2,0.7,0.4,1.4,0.5,2.1c0.2,1.1,0.2,2.1,0.2,3.2
		c0,0.4,0,0.7-0.2,1.1c-0.2,0.5-0.6,0.9-1.1,1.1C26.1,27,25.9,27.1,25.6,27.2z M14.4,13.4C14.5,13.4,14.5,13.4,14.4,13.4
		c0.5,0.5,0.9,0.9,1.3,1.3c0.5,0.5,1,1.1,1.5,1.6c0.2,0.2,0.4,0.3,0.7,0.3c-1.2-1.3-2.4-2.6-3.6-3.8c-0.1,0.3-0.2,0.7-0.3,1l0,0
		C14.1,13.6,14.3,13.5,14.4,13.4z M21.2,24.3L21.2,24.3c-0.4-0.4-0.8-0.8-1.3-1.2c-0.3,0.4-0.6,0.8-0.9,1.2
		C19.8,24.3,20.5,24.3,21.2,24.3z"/>
	<path class="st1" d="M22.1,11.3c0.1,0,0.2,0.1,0.4,0.1c0.8,0.3,1.2,0.8,1.3,1.6c0.1,0.8-0.2,1.5-0.9,2c-1.1,0.7-2.7,0.1-3-1.2
		c-0.3-1.1,0.4-2.2,1.6-2.4h0.1C21.8,11.3,22,11.3,22.1,11.3z"/>
</g>
</svg>
