<?xml version="1.0" encoding="utf-8"?>
<!-- Generator: Adobe Illustrator 21.1.0, SVG Export Plug-In . SVG Version: 6.00 Build 0)  -->
<svg version="1.1" id="Capa_1" xmlns="http://www.w3.org/2000/svg" xmlns:xlink="http://www.w3.org/1999/xlink" x="0px" y="0px"
	 viewBox="0 0 38 39" style="enable-background:new 0 0 38 39;" xml:space="preserve">
<style type="text/css">
	.st0{fill:#B49651;}
	.st1{fill:#070707;}
</style>
<circle class="st0" cx="19.4" cy="19.9" r="13.9"/>
<path class="st0" d="M29.2,33.3c-1.9,1.5-4.3,2.9-8.9,3.4c-3.7,0.4-7.5-1.7-10.1-3.2l-1-0.5c-0.6-0.3-1.4-0.7-2.2-0.8
	c0-0.8-0.4-1.6-0.7-2.2l-0.5-1c-1.5-2.5-3.6-6.3-3.2-10c0.5-4.6,1.9-7,3.4-8.9c0.6-0.8,1-1.6,1.1-2.4c0.8-0.1,1.6-0.5,2.4-1.1
	c1.9-1.5,4.3-2.9,8.9-3.4c3.7-0.4,7.5,1.7,10.1,3.2l1,0.5c0.6,0.3,1.4,0.7,2.2,0.8c0.1,0.8,0.5,1.6,0.8,2.2l0.5,1
	c1.4,2.5,3.5,6.4,3.2,10.1c-0.5,4.6-1.9,7-3.4,8.9c-0.6,0.8-1,1.6-1.1,2.4C30.8,32.3,30,32.7,29.2,33.3L29.2,33.3z M33,33
	c0-0.2,0-0.5,0-0.8c0.1-0.5,0.4-1,0.8-1.6c1.5-2,3.2-4.7,3.7-9.6c0.4-4.1-1.8-8.2-3.3-10.9l-0.5-0.9c-0.3-0.6-0.5-1.2-0.6-1.6
	c-0.1-0.7,0-1.2,0.4-1.7c-0.5,0.4-1,0.5-1.7,0.4c-0.5-0.1-1-0.3-1.6-0.6l-0.9-0.5c-2.7-1.5-6.7-3.8-10.9-3.3
	c-4.9,0.5-7.6,2.2-9.6,3.7C8.1,5.9,7.6,6.2,7.1,6.3c-0.3,0.1-0.5,0.1-0.8,0C6,6.3,5.7,6.2,5.4,6c0.1,0.2,0.3,0.5,0.3,0.9
	c0,0.2,0,0.5,0,0.8c-0.1,0.5-0.4,1-0.8,1.6c-1.5,2-3.2,4.7-3.7,9.6C0.8,23,3,27,4.5,29.7l0.5,1c0.3,0.6,0.5,1.2,0.6,1.6
	c0.1,0.7,0,1.2-0.4,1.7c0.5-0.4,1-0.5,1.7-0.4c0.5,0.1,1,0.3,1.6,0.6l0.9,0.5c2.7,1.5,6.8,3.8,10.9,3.3c4.9-0.5,7.6-2.2,9.6-3.7
	c0.6-0.4,1.1-0.7,1.6-0.8c0.3-0.1,0.5-0.1,0.8,0c0.3,0,0.6,0.2,0.9,0.3C33.2,33.7,33,33.4,33,33L33,33z"/>
<g>
	<path class="st1" d="M14.4,26c-1.1-1.1-2.3-2.2-3.4-3.3c0.8-0.7,1.5-1.4,2.4-2c-0.3,0-0.6,0-0.9,0c-0.4,0-0.8-0.3-0.9-0.7
		c0-0.1,0-0.2-0.1-0.3c0.4,0,0.7,0,1.1,0c0.7-4.4,3.2-6.8,7.5-7.5c-0.1-0.3,0-0.6,0.2-0.8s0.4-0.2,0.6-0.2c0.5,0,0.8,0.4,0.8,1.1
		c0.1,0,0.3,0,0.4,0.1c1.6,0.2,3,0.8,4.2,1.9c1.4,1.2,2.3,2.7,2.7,4.5c0.1,0.3,0.1,0.6,0.1,0.9c0,0.1,0.1,0.2,0.2,0.2
		c0.3,0,0.6,0,0.9,0c0.1,0.5-0.4,1-1,1c-0.7,0-1.5,0-2.2,0c-0.1,0-0.2,0-0.3,0.1c-1.4,1.4-2.9,2.9-4.3,4.3c-0.1,0.1-0.2,0.1-0.3,0.1
		c-2.1,0-4.2,0-6.4,0c-0.1,0-0.2,0-0.3,0.1C15,25.6,14.7,25.8,14.4,26z M17.3,22.1C17.2,22.2,17.2,22.2,17.3,22.1
		c0.3,0.3,0.7,0.6,1,0.8c0.2,0.1,0.4,0.1,0.5,0.1c0.9,0,1.9,0,2.8,0c0.1,0,0.2,0,0.3-0.1c1-0.8,1.9-1.6,3-2.2c0,0,0,0,0.1-0.1
		c-0.1,0-0.1,0-0.2,0c-0.8,0-1.7,0-2.5,0c-0.1,0-0.2,0-0.3,0.2c-0.5,0.9-1.2,1.3-2.3,1.3c-0.8,0-1.6,0-2.3,0
		C17.4,22.1,17.3,22.1,17.3,22.1z"/>
	<path class="st1" d="M14.6,26.9c-0.6,0.6-1.3,1.3-1.9,1.9c-1.5-1.5-2.9-2.9-4.4-4.4c0.6-0.6,1.3-1.3,1.9-1.9
		C11.7,23.9,13.1,25.4,14.6,26.9z"/>
</g>
</svg>
