<?xml version="1.0" encoding="utf-8"?>
<!-- Generator: Adobe Illustrator 21.1.0, SVG Export Plug-In . SVG Version: 6.00 Build 0)  -->
<svg version="1.1" id="Capa_1" xmlns="http://www.w3.org/2000/svg" xmlns:xlink="http://www.w3.org/1999/xlink" x="0px" y="0px"
	 viewBox="0 0 38 39" style="enable-background:new 0 0 38 39;" xml:space="preserve">
<style type="text/css">
	.st0{fill:#B49651;}
	.st1{fill:#070707;}
</style>
<circle class="st0" cx="19.2" cy="19.4" r="13.9"/>
<path class="st0" d="M29.1,32.8c-1.9,1.5-4.3,2.9-8.9,3.4c-3.7,0.4-7.5-1.7-10.1-3.2l-1-0.5c-0.6-0.3-1.4-0.7-2.2-0.8
	c-0.1-0.8-0.5-1.6-0.8-2.2l-0.5-1C4.2,26,2.1,22.1,2.5,18.4c0.5-4.6,1.9-7,3.4-8.9c0.6-0.8,1-1.6,1.1-2.4C7.8,7,8.6,6.7,9.4,6
	c1.9-1.5,4.3-2.9,8.9-3.4c3.7-0.4,7.5,1.7,10.1,3.2l1,0.5C30,6.6,30.8,7,31.6,7.1c0.1,0.8,0.5,1.6,0.8,2.2l0.5,1
	c1.4,2.5,3.5,6.4,3.2,10.1c-0.5,4.6-1.9,7-3.4,8.9c-0.6,0.8-1,1.6-1.1,2.4C30.7,31.8,29.9,32.1,29.1,32.8L29.1,32.8z M32.9,32.5
	c0-0.2,0-0.5,0-0.8c0.1-0.5,0.4-1,0.8-1.6c1.5-2,3.2-4.7,3.7-9.6c0.4-4.1-1.8-8.2-3.3-10.9l-0.5-0.9C33.3,8.1,33,7.5,33,7
	c-0.1-0.7,0-1.2,0.4-1.7c-0.5,0.4-1,0.5-1.7,0.4c-0.5-0.1-1-0.3-1.6-0.6L29,4.5C26.3,3,22.3,0.8,18.1,1.2c-4.9,0.5-7.6,2.2-9.6,3.7
	C8,5.4,7.4,5.6,6.9,5.7c-0.3,0.1-0.5,0.1-0.8,0c-0.3,0-0.6-0.2-0.9-0.3C5.5,5.7,5.6,6,5.6,6.3c0,0.2,0,0.5,0,0.8
	c-0.1,0.5-0.4,1-0.8,1.6c-1.5,2-3.2,4.7-3.7,9.6c-0.4,4.1,1.8,8.2,3.3,10.9l0.5,0.9c0.3,0.6,0.5,1.2,0.6,1.6c0.1,0.7,0,1.2-0.4,1.7
	c0.5-0.4,1-0.5,1.7-0.4c0.5,0.1,1,0.3,1.6,0.6l0.9,0.5c2.7,1.5,6.8,3.8,10.9,3.3c4.9-0.5,7.6-2.2,9.6-3.7c0.6-0.4,1.1-0.7,1.6-0.8
	c0.3-0.1,0.5-0.1,0.8,0c0.3,0,0.6,0.2,0.9,0.3C33,33.1,32.9,32.8,32.9,32.5L32.9,32.5z"/>
<g>
	<path class="st1" d="M19.2,22.3c-0.1-0.2-0.2-0.4-0.5-0.6c-0.7-0.4-1.6,0.1-1.6,0.9c0,0.5,0,0.9,0,1.4c0,0.6-0.3,0.9-0.9,0.9
		c-1.8,0-3.5,0-5.3,0c-0.4,0-0.8-0.2-1-0.6c-0.4-0.6,0-1.5,0.8-1.6c0.1,0,0.2,0,0.3,0c1.2,0,2.5,0,3.7,0c0.1,0,0.1,0,0.2,0l0,0
		c-0.2-0.3-0.1-0.6,0-0.9c0.6-1.3,1.2-2.7,1.9-4c0.2-0.4,0.4-0.8,0.8-1c0.2-0.1,0.5-0.2,0.7-0.2c0.6,0,1.3,0,1.9,0s1,0.4,1.3,0.9
		c0.7,1.4,1.3,2.9,2,4.3c0.1,0.3,0.2,0.6,0,1c0.1,0,0.2,0,0.2,0c1.3,0,2.6,0,3.9,0c0.4,0,0.8,0.1,1,0.5c0.4,0.7,0,1.5-0.8,1.6
		c-0.1,0-0.2,0-0.3,0c-1.8,0-3.5,0-5.3,0c-0.6,0-0.9-0.3-0.9-0.9c0-0.4,0-0.9,0-1.3s-0.2-0.8-0.6-0.9c-0.4-0.2-0.8-0.1-1.1,0.1
		C19.5,21.9,19.3,22.1,19.2,22.3z M16.9,21L16.9,21c-0.3,0.5-0.6,1.1-0.8,1.7c0.3,0,0.6,0,0.8,0C16.9,22.1,16.9,21.5,16.9,21z
		 M22.3,22.7c-0.3-0.5-0.5-1.1-0.7-1.6l0,0c0,0.5,0,1.1,0,1.6C21.8,22.7,22.1,22.7,22.3,22.7z"/>
	<path class="st1" d="M19.2,16.1c-1,0-1.9-0.9-1.9-1.9s0.9-1.9,1.9-1.9s1.9,0.9,1.9,1.9C21.1,15.3,20.2,16.1,19.2,16.1z"/>
	<path class="st1" d="M18.9,24.2c0,0.5,0,1,0,1.5s-0.5,0.9-1,0.7c-0.3-0.1-0.5-0.4-0.5-0.7c0-1,0-2.1,0-3.1c0-0.5,0.3-0.7,0.8-0.7
		c0.4,0,0.7,0.3,0.7,0.8C18.9,23.2,18.9,23.7,18.9,24.2z"/>
	<path class="st1" d="M21,24.3c0,0.5,0,1.1,0,1.6s-0.5,0.8-1,0.6c-0.3-0.1-0.5-0.4-0.5-0.7c0-0.6,0-1.2,0-1.9c0-0.4,0-0.8,0-1.2
		c0-0.3,0.3-0.6,0.6-0.7c0.3-0.1,0.7,0.1,0.8,0.4c0.1,0.1,0.1,0.3,0.1,0.4C21,23.3,21,23.8,21,24.3L21,24.3z"/>
	<path class="st1" d="M11.2,16.9c0,0.3-0.1,0.6-0.3,0.9c-0.5,0.6-0.4,1.2,0,1.8c0.1,0.1,0.2,0.2,0.2,0.3c0.1,0.2,0.1,0.4-0.1,0.5
		c-0.2,0.1-0.4,0.1-0.5-0.1c-0.4-0.5-0.7-1.1-0.7-1.7c0-0.3,0.1-0.7,0.3-1c0.1-0.2,0.2-0.3,0.3-0.5c0.1-0.3,0.1-0.5-0.1-0.8
		c0,0-0.1-0.1-0.1-0.2c-0.1-0.1,0-0.3,0.1-0.4c0.1-0.1,0.3-0.1,0.5,0C11.1,16,11.2,16.4,11.2,16.9z"/>
	<path class="st1" d="M24.1,20.5c-0.3,0-0.5-0.3-0.3-0.6c0-0.1,0.1-0.2,0.2-0.2c0.1-0.3,0.3-0.5,0.4-0.8c0.1-0.4,0.1-0.7-0.2-1
		c-0.2-0.3-0.4-0.6-0.4-0.9c0-0.5,0.1-0.9,0.5-1.2c0.2-0.1,0.4-0.1,0.5,0s0.2,0.3,0,0.5c-0.3,0.3-0.3,0.7,0,1.1
		c0.2,0.3,0.4,0.6,0.4,0.9c0.1,0.5-0.1,1-0.3,1.5c-0.1,0.2-0.2,0.4-0.3,0.5C24.4,20.4,24.2,20.5,24.1,20.5z"/>
	<path class="st1" d="M13.1,18.8c0-0.5,0.1-0.8,0.3-1.1c0.1-0.2,0.2-0.3,0.3-0.5c0.1-0.3,0.1-0.5-0.1-0.8c-0.1-0.1-0.1-0.1-0.1-0.2
		c-0.1-0.2,0-0.3,0.1-0.4c0.1-0.1,0.3-0.1,0.5,0.1c0.4,0.4,0.6,0.9,0.4,1.4c-0.1,0.2-0.2,0.4-0.3,0.6c-0.4,0.5-0.4,0.9-0.1,1.4
		c0.1,0.2,0.2,0.4,0.3,0.6c0.1,0.1,0.1,0.2,0.1,0.3c0,0.1-0.1,0.3-0.2,0.3c-0.2,0.1-0.3,0-0.4-0.1C13.4,19.9,13.1,19.3,13.1,18.8z"
		/>
	<path class="st1" d="M28.4,18.6c0,0.6-0.3,1.1-0.6,1.6c0,0.1-0.1,0.1-0.1,0.2c-0.1,0.2-0.4,0.2-0.5,0.1C27,20.3,26.9,20.1,27,20
		c0.1-0.2,0.3-0.4,0.4-0.7c0.1-0.3,0.2-0.6,0.2-0.9c-0.1-0.2-0.2-0.4-0.3-0.5c-0.2-0.4-0.4-0.8-0.3-1.2c0-0.3,0.2-0.6,0.5-0.8
		c0.2-0.1,0.4-0.1,0.5,0s0.2,0.4,0,0.5c-0.3,0.3-0.3,0.7,0,1.1C28.2,17.8,28.4,18.1,28.4,18.6z"/>
</g>
</svg>
