<?xml version="1.0" encoding="utf-8"?>
<!-- Generator: Adobe Illustrator 21.1.0, SVG Export Plug-In . SVG Version: 6.00 Build 0)  -->
<svg version="1.1" id="Capa_1" xmlns="http://www.w3.org/2000/svg" xmlns:xlink="http://www.w3.org/1999/xlink" x="0px" y="0px"
	 viewBox="0 0 41 40" style="enable-background:new 0 0 41 40;" xml:space="preserve">
<style type="text/css">
	.st0{fill:#B49651;}
	.st1{fill:#070707;}
</style>
<circle class="st0" cx="20.8" cy="19.7" r="13.9"/>
<path class="st0" d="M30.7,33c-1.9,1.5-4.3,2.9-8.9,3.4c-3.7,0.4-7.5-1.7-10.1-3.2l-1-0.5c-0.6-0.3-1.4-0.7-2.2-0.8
	c-0.1-0.8-0.5-1.6-0.8-2.2l-0.5-1c-1.4-2.5-3.6-6.3-3.2-10c0.5-4.6,1.9-7,3.4-8.9C8,9,8.4,8.2,8.5,7.4c0.8-0.1,1.6-0.5,2.4-1.1
	c1.9-1.5,4.3-2.9,8.9-3.4c3.7-0.4,7.5,1.7,10.1,3.2l1,0.5c0.6,0.3,1.4,0.7,2.2,0.8c0.1,0.8,0.5,1.6,0.8,2.2l0.5,1
	c1.4,2.5,3.5,6.4,3.2,10.1c-0.5,4.6-1.9,7-3.4,8.9c-0.6,0.8-1,1.6-1.1,2.4C32.3,32,31.5,32.4,30.7,33L30.7,33z M34.4,32.8
	c0-0.2,0-0.5,0-0.8c0.1-0.5,0.4-1,0.8-1.6c1.5-2,3.2-4.7,3.7-9.6c0.4-4.1-1.8-8.2-3.3-10.9L35.1,9c-0.3-0.6-0.5-1.2-0.6-1.6
	c-0.1-0.7,0-1.2,0.4-1.7c-0.5,0.4-1,0.5-1.7,0.4c-0.5-0.1-1-0.3-1.6-0.6L30.7,5C28,3.5,24,1.2,19.8,1.7c-4.9,0.5-7.6,2.2-9.6,3.7
	C9.5,5.6,9,5.9,8.5,6C8.2,6.1,8,6.1,7.7,6.1C7.4,6,7.1,5.9,6.9,5.8C7,6,7.1,6.3,7.2,6.6c0,0.2,0,0.5,0,0.8C7,7.9,6.8,8.4,6.3,9
	c-1.5,2-3.2,4.7-3.7,9.6c-0.4,4.1,1.8,8.2,3.3,10.9l0.5,0.9C6.8,31,7,31.6,7.1,32c0.1,0.7,0,1.2-0.4,1.7c0.5-0.4,1-0.5,1.7-0.4
	c0.5,0.1,1,0.3,1.6,0.6l0.9,0.5c2.7,1.5,6.8,3.8,10.9,3.3c4.9-0.5,7.6-2.2,9.6-3.7c0.6-0.4,1.1-0.7,1.6-0.8c0.3-0.1,0.5-0.1,0.8,0
	c0.3,0,0.6,0.2,0.8,0.3C34.6,33.4,34.5,33.1,34.4,32.8L34.4,32.8z"/>
<g>
	<path class="st1" d="M21.2,10.2L21.2,10.2c0,1.2,0,2.4,0,3.5c0,0,0,0,0,0.1c0.2,0,0.3,0.1,0.5,0.1c1.1,0.2,2,0.7,2.7,1.5
		c0.5,0.5,0.8,1.2,1,1.9c0,0.2,0,0.4,0.1,0.6c0,0,0,0,0,0.1c-3.3,0-6.6,0-9.9,0c0-0.1,0-0.3,0-0.4c0.2-1.3,0.8-2.2,1.9-2.9
		c0.7-0.5,1.4-0.7,2.2-0.9c0.1,0,0.1,0,0.2,0l0,0c0-1.2,0-2.3,0-3.5l0,0C20.3,10.2,20.8,10.2,21.2,10.2z"/>
	<path class="st1" d="M20.5,18.7c1.9,0,3.8,0,5.7,0c0.3,0,0.6,0.2,0.7,0.4c0.2,0.5-0.1,1-0.6,1h-0.1c-3.7,0-7.5,0-11.2,0
		c-0.1,0-0.3,0-0.4,0C14.2,20,14,19.7,14,19.4c0-0.3,0.3-0.6,0.6-0.7h0.1C16.6,18.7,18.6,18.7,20.5,18.7z"/>
	<path class="st1" d="M21.3,25.1c0-0.4,0.3-0.7,0.7-0.7c0.4,0,0.7,0.3,0.7,0.7c0,0.4-0.3,0.7-0.7,0.7C21.6,25.8,21.2,25.5,21.3,25.1
		z"/>
	
		<ellipse transform="matrix(1 -1.338120e-03 1.338120e-03 1 -2.981912e-02 3.133206e-02)" class="st1" cx="23.4" cy="22.3" rx="0.7" ry="0.7"/>
	
		<ellipse transform="matrix(2.741415e-03 -1 1 2.741415e-03 -13.1312 42.6379)" class="st1" cx="14.8" cy="27.9" rx="0.7" ry="0.7"/>
	
		<ellipse transform="matrix(1 -2.040952e-03 2.040952e-03 1 -5.689386e-02 4.781628e-02)" class="st1" cx="23.4" cy="27.9" rx="0.7" ry="0.7"/>
	<circle class="st1" cx="26.2" cy="27.9" r="0.7"/>
	
		<ellipse transform="matrix(1 -2.042245e-03 2.042245e-03 1 -5.122637e-02 3.334098e-02)" class="st1" cx="16.3" cy="25.1" rx="0.7" ry="0.7"/>
	
		<ellipse transform="matrix(1 -2.041663e-03 2.041663e-03 1 -4.548661e-02 4.190080e-02)" class="st1" cx="20.5" cy="22.3" rx="0.7" ry="0.7"/>
	<ellipse transform="matrix(4.862808e-03 -1 1 4.862808e-03 -4.6149 39.8916)" class="st1" cx="17.7" cy="22.3" rx="0.7" ry="0.7"/>
	
		<ellipse transform="matrix(2.040952e-03 -1 1 2.040952e-03 -10.3303 45.5399)" class="st1" cx="17.7" cy="27.9" rx="0.7" ry="0.7"/>
	<circle class="st1" cx="19.1" cy="25.1" r="0.7"/>
	
		<ellipse transform="matrix(1 -1.690136e-03 1.690136e-03 1 -4.238705e-02 4.195126e-02)" class="st1" cx="24.8" cy="25.1" rx="0.7" ry="0.7"/>
	<circle class="st1" cx="20.5" cy="27.9" r="0.7"/>
</g>
</svg>
