<?xml version="1.0" encoding="utf-8"?>
<!-- Generator: Adobe Illustrator 21.1.0, SVG Export Plug-In . SVG Version: 6.00 Build 0)  -->
<svg version="1.1" id="Capa_1" xmlns="http://www.w3.org/2000/svg" xmlns:xlink="http://www.w3.org/1999/xlink" x="0px" y="0px"
	 viewBox="0 0 39 39" style="enable-background:new 0 0 39 39;" xml:space="preserve">
<style type="text/css">
	.st0{fill:#B49651;}
	.st1{fill:#070707;}
</style>
<circle class="st0" cx="19.6" cy="19.6" r="13.9"/>
<path class="st0" d="M29.5,32.9c-1.9,1.5-4.3,2.9-8.9,3.4c-3.7,0.4-7.5-1.7-10.1-3.2l-1-0.5c-0.6-0.3-1.4-0.7-2.2-0.8
	c-0.1-0.8-0.5-1.6-0.8-2.2l-0.5-1c-1.4-2.5-3.5-6.4-3.2-10.1c0.5-4.6,1.9-7,3.4-8.9c0.6-0.8,1-1.6,1.1-2.4c0.9,0,1.7-0.4,2.5-1
	c1.9-1.5,4.3-2.9,8.9-3.4c3.7-0.4,7.5,1.7,10.1,3.2l1,0.5c0.6,0.3,1.4,0.7,2.2,0.8c0.1,0.8,0.5,1.6,0.8,2.2l0.5,1
	c1.4,2.5,3.5,6.4,3.2,10.1c-0.5,4.6-1.9,7-3.4,8.9c-0.6,0.8-1,1.6-1.1,2.4C31.1,31.9,30.3,32.3,29.5,32.9L29.5,32.9z M33.2,32.7
	c0-0.2,0-0.5,0-0.8c0.1-0.5,0.4-1,0.8-1.6c1.5-2,3.2-4.7,3.7-9.6c0.4-4.1-1.8-8.2-3.3-10.9L34,8.9c-0.3-0.6-0.5-1.2-0.6-1.6
	c-0.1-0.7,0-1.2,0.4-1.7c-0.5,0.4-1,0.5-1.7,0.4c-0.5-0.1-1-0.3-1.6-0.6l-0.9-0.5C26.7,3.2,22.7,1,18.5,1.4
	c-4.9,0.5-7.6,2.2-9.6,3.7C8.4,5.5,7.8,5.8,7.3,5.9C7.1,6,6.8,6,6.6,6C6.3,6,6,5.8,5.7,5.7C5.8,5.9,6,6.2,6,6.5S6,7,6,7.3
	c-0.1,0.5-0.4,1-0.8,1.6c-1.5,2-3.2,4.7-3.7,9.6C1,22.6,3.3,26.7,4.8,29.4l0.5,0.9c0.3,0.6,0.5,1.2,0.6,1.6c0.1,0.7,0,1.2-0.4,1.7
	c0.5-0.4,1-0.5,1.7-0.4c0.5,0.1,1,0.3,1.6,0.6l0.9,0.5c2.7,1.5,6.8,3.8,10.9,3.3c4.9-0.5,7.6-2.2,9.6-3.7c0.6-0.4,1.1-0.7,1.6-0.8
	c0.3-0.1,0.5-0.1,0.8,0c0.3,0,0.6,0.2,0.8,0.3C33.4,33.3,33.3,33,33.2,32.7L33.2,32.7z"/>
<g>
	<path class="st1" d="M10.9,22.1c5.8,0,11.6,0,17.4,0c0.2,1.8-0.6,3.8-2.6,4.9c-1.1,0.6-2.3,0.8-3.5,1c-1.9,0.2-3.7,0.2-5.6-0.1
		c-1.2-0.2-2.4-0.5-3.5-1.2c-1.3-0.8-1.9-2.1-2.1-3.5c0-0.1,0-0.2-0.1-0.3C10.9,22.6,10.9,22.3,10.9,22.1z"/>
	<path class="st1" d="M28.9,17.8c-0.6,0.4-1.3,0.5-2.1,0.3C26.3,18,26,17.7,26,17.3s0.3-1,0.7-1.2c0.4-0.2,0.8-0.1,1.1,0.2
		C28.2,16.7,28.5,17.2,28.9,17.8C28.9,17.7,28.9,17.7,28.9,17.8z"/>
	<path class="st1" d="M13.3,21.8c-0.5,0-0.9,0-1.3,0c-0.1,0-0.2-0.1-0.2-0.2c-0.1-0.7-0.3-1.3-0.4-2c0-1.5,1.6-2.7,3.1-2.6h0.1
		c0.9,0.2,1.6,0.1,2.4-0.3c1.1-0.6,2.2-0.4,3.2,0.3c0.1,0.1,0.2,0.2,0.2,0.3c-0.2,0.7,0.1,1.3,0.5,1.7c0,0.5-0.1,1-0.1,1.5
		c0,0.1,0,0.1-0.1,0.2c-0.2,0.3-0.5,0.7-0.7,1c-2.1,0-4.3,0-6.4,0c0.1-0.2,0.2-0.3,0.3-0.5c0-0.2-0.1-0.3-0.2-0.5
		C13.3,20,13.4,19.5,14,19c0.3-0.2,0.4-0.4,0.2-0.7C14,18,13.8,18,13.4,18.2c-1.1,0.7-1.3,2.1-0.4,3.2
		C13.1,21.6,13.2,21.6,13.3,21.8z"/>
	<path class="st1" d="M23.4,18.8c0-0.6,0.4-1.1,0.9-1.4c0.1-0.1,0.3-0.2,0.4-0.3c0.5-1.3,1.4-2.2,2.6-2.9c0.1-0.1,0.3,0,0.4,0.1
		c0,0.2,0,0.4-0.1,0.5c-0.2,0.2-0.5,0.4-0.8,0.6c-0.6,0.5-1.1,1-1.4,1.7c-0.1,0.2-0.1,0.4,0.1,0.6c0.2,0.1,0.3,0.3,0.4,0.5
		c0.2,0.3,0.2,0.5-0.1,0.8c-0.2,0.2-0.3,0.6-0.5,0.9c-0.1,0.1-0.2,0.3-0.3,0.3C24.2,20.3,23.4,19.6,23.4,18.8z"/>
	<path class="st1" d="M28.4,20.2c0,0.8-0.6,1.4-1.4,1.4c-0.7,0-1.4-0.6-1.4-1.4s0.6-1.4,1.4-1.4C27.9,18.8,28.4,19.4,28.4,20.2z"/>
	<path class="st1" d="M22.2,19.1c-0.7,0-1.3-0.5-1.4-1.2s0.3-1.3,1-1.5s1.4,0.1,1.6,0.8c0,0.1,0,0.3-0.1,0.5S23,18.2,23,18.4
		C22.9,19,22.8,19.1,22.2,19.1z"/>
	<path class="st1" d="M21.5,19.4c0.6,0.2,1.1,0.2,1.6-0.1c0,0.1,0.1,0.1,0.1,0.2c0.3,0.3,0.3,0.6,0.1,1c-0.1,0.2-0.1,0.4-0.1,0.6
		s-0.1,0.3-0.3,0.4c-0.5,0.1-1.1,0-1.4-0.5C21.1,20.5,21.1,19.9,21.5,19.4z"/>
	<path class="st1" d="M16.3,16.4c-0.1,0.2-0.2,0.3-0.3,0.3c-0.1,0-0.3-0.1-0.4-0.1l-0.1-0.1c-0.2-1.3-1.1-1.9-2.1-2.5
		c-0.2-0.1-0.3-0.3-0.4-0.5c-0.1-0.3,0.2-0.5,0.5-0.3c0.6,0.4,1.1,0.8,1.7,1.2c0.1,0.1,0.1,0.2,0.2,0.4c0.1,0.4,0.2,0.8,0.6,1.1
		C16,16,16.1,16.2,16.3,16.4z"/>
	<path class="st1" d="M25.3,20.5c0.2,0.4,0.5,0.8,0.8,1.2c-0.2,0-0.5,0-0.8,0s-0.7,0-1,0c-0.4,0-0.6-0.2-0.6-0.5s0-0.7,0.1-0.9
		C24.3,20.4,24.8,20.5,25.3,20.5z"/>
	<path class="st1" d="M17.9,14.1c-0.2,0.7-0.6,1.1-1.1,1.4c-0.3,0.2-0.6,0.2-0.8,0c-0.3-0.2-0.5-0.6-0.4-1c0-0.2,0.3-0.3,0.4-0.4
		C16.6,14.2,17.2,14.2,17.9,14.1z"/>
	<path class="st1" d="M20.5,21.7c0.2-0.3,0.3-0.5,0.5-0.7c0.3,0.3,0.5,0.5,0.8,0.7C21.4,21.7,21,21.7,20.5,21.7z"/>
</g>
</svg>
