<?xml version="1.0" encoding="utf-8"?>
<!-- Generator: Adobe Illustrator 21.1.0, SVG Export Plug-In . SVG Version: 6.00 Build 0)  -->
<svg version="1.1" id="Capa_1" xmlns="http://www.w3.org/2000/svg" xmlns:xlink="http://www.w3.org/1999/xlink" x="0px" y="0px"
	 viewBox="0 0 38 39" style="enable-background:new 0 0 38 39;" xml:space="preserve">
<style type="text/css">
	.st0{fill:#B49651;}
	.st1{fill:#070707;}
</style>
<circle class="st0" cx="19.1" cy="19.8" r="13.9"/>
<path class="st0" d="M28.9,33.1C27,34.6,24.6,36,20,36.5c-3.7,0.4-7.5-1.7-10.1-3.2l-1-0.5c-0.6-0.3-1.4-0.7-2.2-0.8
	c-0.1-0.8-0.5-1.6-0.8-2.2l-0.5-1c-1.4-2.5-3.5-6.3-3.1-10c0.5-4.6,1.9-7,3.4-8.9c0.6-0.8,1-1.6,1.1-2.4C7.6,7.4,8.4,7,9.2,6.4
	c1.9-1.5,4.3-2.9,8.9-3.4c3.7-0.4,7.5,1.7,10.1,3.2l1,0.5c0.6,0.3,1.4,0.7,2.2,0.8c0.1,0.8,0.5,1.6,0.8,2.2l0.5,1
	c1.4,2.5,3.5,6.4,3.2,10.1c-0.5,4.6-1.9,7-3.4,8.9c-0.6,0.8-1,1.6-1.1,2.4C30.5,32.1,29.7,32.5,28.9,33.1L28.9,33.1z M32.7,32.8
	c0-0.2,0-0.5,0-0.8c0.1-0.5,0.4-1,0.8-1.6c1.5-2,3.2-4.7,3.7-9.6c0.4-4.1-1.8-8.2-3.3-10.9L33.4,9c-0.3-0.6-0.5-1.2-0.6-1.6
	c-0.1-0.7,0-1.2,0.4-1.7c-0.5,0.4-1,0.5-1.7,0.4c-0.5-0.1-1-0.3-1.6-0.6L29,5c-2.7-1.5-6.7-3.8-10.9-3.3C13,2.1,10.3,3.8,8.3,5.3
	C7.8,5.7,7.3,6,6.8,6.1C6.5,6.2,6.2,6.2,6,6.2C5.6,6.1,5.4,6,5.1,5.8C5.2,6,5.4,6.3,5.4,6.7c0,0.2,0,0.5,0,0.8C5.3,8,5,8.5,4.6,9.1
	c-1.5,2-3.2,4.7-3.7,9.6c-0.4,4.1,1.8,8.2,3.3,10.9l0.5,0.9c0.3,0.6,0.5,1.2,0.6,1.6c0.1,0.7,0,1.2-0.4,1.7c0.5-0.4,1-0.5,1.7-0.4
	c0.5,0.1,1,0.3,1.6,0.6l0.9,0.5C12,36.1,16,38.4,20.2,38c4.9-0.5,7.6-2.2,9.6-3.7c0.6-0.4,1.1-0.7,1.6-0.8c0.3-0.1,0.5-0.1,0.8,0
	c0.3,0,0.6,0.2,0.9,0.3C32.8,33.5,32.7,33.2,32.7,32.8L32.7,32.8z"/>
<g>
	<g>
		<path class="st1" d="M22.1,27.5H9.8v-1.1c0.2,0.2,0.5,0.3,0.8,0.3h10.6L22.1,27.5z M15.1,10.6c-0.7,0-1.2,0.5-1.2,1.2
			c0,0.4,0.2,0.8,0.5,1c0.1-0.4,0.4-0.7,0.6-1c0.3-0.3,0.6-0.5,1-0.6C15.9,10.8,15.5,10.6,15.1,10.6z M14.8,13.7
			c0,1.3,1,2.3,2.3,2.3s2.3-1,2.3-2.3s-1-2.3-2.3-2.3c-0.3,0-0.5,0-0.8,0.1c-0.6,0.2-1.2,0.7-1.4,1.4C14.8,13.2,14.8,13.5,14.8,13.7
			z M13.6,16.9c-0.5,1.2-1.7,4.2-2,5h4c0.1-0.2,0.2-0.4,0.3-0.6c0.4-0.7,1.5-1,1.3-2l0,0l1,1c0.1,0.1,0.2,0.1,0.3,0.2l2.9,1.1
			c0.1,0,0.2,0.1,0.3,0.1c0.3,0,0.6-0.2,0.8-0.5c0.2-0.4,0-0.9-0.5-1.1l-2.5-1c-0.1,0-0.2-0.1-0.3-0.2L17,16.8
			c-0.1-0.1-0.2-0.1-0.3-0.2h-0.1h-0.1c-0.6-0.1-1.2-0.3-1.7-0.2c-0.2,0-0.4,0.1-0.6,0.2C13.7,16.5,13.6,16.7,13.6,16.9z M10.6,26.1
			h10.9l1,1.1c0.1,0.1,0.2,0.2,0.3,0.2c0.1,0,0.3,0.1,0.4,0.1h4.4c0.6,0,1-0.5,1-1c0-0.6-0.5-1-1-1h-4L21,22.7
			c-0.2-0.2-0.3-0.3-0.7-0.3c-0.6,0-9.6,0-9.6,0c-0.5,0-0.8,0.4-0.8,0.8v1.9v0.2C9.8,25.7,10.2,26.1,10.6,26.1z M27.2,22.3
			c0-1.3-1.1-2.4-2.4-2.4s-2.4,1.1-2.4,2.4s1.1,2.4,2.4,2.4C26.2,24.7,27.2,23.6,27.2,22.3z"/>
	</g>
</g>
</svg>
