<?xml version="1.0" encoding="utf-8"?>
<!-- Generator: Adobe Illustrator 21.1.0, SVG Export Plug-In . SVG Version: 6.00 Build 0)  -->
<svg version="1.1" id="Capa_1" xmlns="http://www.w3.org/2000/svg" xmlns:xlink="http://www.w3.org/1999/xlink" x="0px" y="0px"
	 viewBox="0 0 38 39" style="enable-background:new 0 0 38 39;" xml:space="preserve">
<style type="text/css">
	.st0{fill:#B49651;}
	.st1{fill:#070707;}
</style>
<circle class="st0" cx="19.1" cy="19.5" r="13.9"/>
<path class="st0" d="M28.9,32.9c-1.9,1.5-4.3,2.9-8.9,3.4c-3.7,0.4-7.5-1.7-10.1-3.2l-1-0.5c-0.6-0.3-1.4-0.7-2.2-0.8
	C6.6,31,6.3,30.2,6,29.6l-0.5-1C4,26.1,1.9,22.2,2.3,18.5c0.5-4.6,1.9-7,3.4-8.9c0.6-0.8,1-1.6,1.1-2.4c0.8-0.1,1.6-0.5,2.4-1.1
	c1.9-1.5,4.3-2.9,8.9-3.4c3.7-0.4,7.5,1.7,10.1,3.2l1,0.5c0.6,0.3,1.4,0.7,2.2,0.8c0.1,0.8,0.5,1.6,0.8,2.2l0.5,1
	c1.4,2.5,3.5,6.4,3.2,10.1c-0.5,4.6-1.9,7-3.4,8.9c-0.6,0.8-1,1.6-1.1,2.4C30.5,31.9,29.7,32.2,28.9,32.9L28.9,32.9z M32.7,32.6
	c0-0.2,0-0.5,0-0.8c0.1-0.5,0.4-1,0.8-1.6c1.5-2,3.2-4.7,3.7-9.6c0.4-4.1-1.8-8.2-3.3-10.9l-0.5-0.9c-0.3-0.6-0.5-1.2-0.6-1.6
	c-0.1-0.7,0-1.2,0.4-1.7c-0.5,0.4-1,0.5-1.7,0.4c-0.5-0.1-1-0.3-1.6-0.6L29,4.8C26.3,3.3,22.3,1,18.1,1.5C13,1.8,10.3,3.5,8.3,5
	c-0.5,0.5-1,0.7-1.5,0.9c-0.3,0-0.6,0-0.8,0c-0.3,0-0.6-0.2-0.9-0.3c0.1,0.2,0.3,0.5,0.3,0.9c0,0.2,0,0.5,0,0.8
	C5.3,7.7,5,8.2,4.6,8.8c-1.5,2-3.2,4.7-3.7,9.6c-0.4,4.1,1.8,8.2,3.3,10.9l0.5,0.9c0.3,0.6,0.5,1.2,0.6,1.6c0.1,0.7,0,1.2-0.4,1.7
	c0.5-0.4,1-0.5,1.7-0.4c0.5,0.1,1,0.3,1.6,0.6l0.9,0.5c2.7,1.5,6.8,3.8,10.9,3.3c4.9-0.5,7.6-2.2,9.6-3.7c0.6-0.4,1.1-0.7,1.6-0.8
	c0.3-0.1,0.5-0.1,0.8,0c0.3,0,0.6,0.2,0.9,0.3C32.8,33.2,32.7,32.9,32.7,32.6L32.7,32.6z"/>
<g>
	<path class="st1" d="M10.5,27.4L10.5,27.4c0-2,0.3-3.8,1-5.5c0.5-1.2,1.2-2.4,2.1-3.3c1.2-1.3,2.7-2.1,4.4-2.4
		c2.2-0.4,4.1,0.2,5.9,1.5c1,0.8,1.8,1.8,2.4,3c0.6,1.1,0.9,2.2,1.2,3.4c0.2,1,0.3,2,0.3,3.1c0,0.1,0,0.1,0,0.2c-1.5,0-2.9,0-4.4,0
		c0-0.1,0-0.3,0-0.4c-0.1-0.9-0.3-1.9-0.7-2.7c-0.4-0.7-0.9-1.3-1.6-1.7c-1.4-0.8-2.8-0.7-4.1,0.1c-0.7,0.5-1.2,1.2-1.6,1.9
		c-0.3,0.7-0.5,1.4-0.6,2.2c0,0.2,0,0.4,0,0.5C14.8,27.4,10.8,27.5,10.5,27.4z"/>
	<path class="st1" d="M23.2,27.4c-2.6,0-5.3,0-7.9,0l0,0c0-1.2,0.3-2.3,0.9-3.3c0.5-0.7,1.1-1.3,2-1.6c1.3-0.4,2.5-0.2,3.5,0.8
		c0.6,0.6,1,1.3,1.2,2.1c0.2,0.6,0.3,1.3,0.3,1.9C23.2,27.3,23.2,27.3,23.2,27.4L23.2,27.4z M16.3,26.9c1.9,0,3.9,0,5.8,0
		c0-0.1,0-0.1,0-0.2c0-0.4-0.1-0.7-0.1-1.1c-0.1-0.6-0.4-1.2-0.8-1.6c-0.8-0.9-2-1.2-3.1-0.6c-0.6,0.3-1,0.7-1.3,1.3
		c-0.3,0.5-0.4,1-0.5,1.5C16.3,26.5,16.3,26.7,16.3,26.9z"/>
	<path class="st1" d="M17.8,26.7c0.1-0.1,0.2-0.1,0.3-0.2c0.1-0.1,0.2-0.2,0.2-0.4l0,0c0.2-0.4,0.5-0.6,0.9-0.7c0.1,0,0.3,0,0.4,0.1
		c0,0,0,0,0.1,0c0.2,0,0.3,0.1,0.3,0.3l0.1,0.1c0.1,0.1,0.2,0.1,0.3,0.2c0.1,0.1,0.1,0.1,0.2,0.2c0.1,0.2,0.1,0.3,0.1,0.5h-0.1
		c-0.9,0-1.8,0-2.7,0C17.9,26.9,17.8,26.9,17.8,26.7C17.8,26.8,17.8,26.8,17.8,26.7z"/>
</g>
<path class="st1" d="M12.7,13.8c0,0.3-0.1,0.6-0.3,0.9c-0.5,0.6-0.4,1.2,0,1.8c0.1,0.1,0.2,0.2,0.2,0.3c0.1,0.2,0.1,0.4-0.1,0.5
	c-0.2,0.1-0.4,0.1-0.5-0.1c-0.4-0.5-0.7-1.1-0.7-1.7c0-0.3,0.1-0.7,0.3-1c0.1-0.2,0.2-0.3,0.3-0.5c0.1-0.3,0.1-0.5-0.1-0.8
	c0,0-0.1-0.1-0.1-0.2c-0.1-0.1,0-0.3,0.1-0.4c0.1-0.1,0.3-0.1,0.5,0C12.6,12.9,12.7,13.3,12.7,13.8z"/>
<path class="st1" d="M23.4,16.2c-0.3,0-0.5-0.3-0.3-0.6c0-0.1,0.1-0.2,0.2-0.2c0.1-0.3,0.3-0.5,0.4-0.8c0.1-0.4,0.1-0.7-0.2-1
	c-0.3-0.3-0.5-0.6-0.5-1c0-0.5,0.1-0.9,0.5-1.2c0.2-0.1,0.4-0.1,0.5,0s0.2,0.3,0,0.5c-0.3,0.3-0.3,0.7,0,1.1
	c0.2,0.3,0.4,0.6,0.4,0.9c0.1,0.5-0.1,1-0.3,1.5c-0.1,0.2-0.2,0.4-0.3,0.5C23.6,16.1,23.5,16.1,23.4,16.2z"/>
<path class="st1" d="M13.9,14.3c0-0.5,0.1-0.8,0.3-1.1c0.1-0.2,0.2-0.3,0.3-0.5c0.1-0.3,0.1-0.5-0.1-0.8c-0.1-0.1-0.1-0.1-0.1-0.2
	c-0.1-0.2,0-0.3,0.1-0.4c0.1-0.1,0.3-0.1,0.5,0.1c0.4,0.4,0.6,0.9,0.4,1.4c-0.1,0.2-0.2,0.4-0.3,0.6c-0.4,0.5-0.4,0.9-0.1,1.4
	c0.1,0.2,0.2,0.4,0.3,0.6c0.1,0.1,0.1,0.2,0.1,0.3S15.2,16,15.1,16c-0.2,0.1-0.3,0-0.4-0.1C14.2,15.4,13.9,14.8,13.9,14.3z"/>
<path class="st1" d="M26.9,15.6c0,0.6-0.3,1.1-0.6,1.6c0,0.1-0.1,0.1-0.1,0.2c-0.1,0.2-0.4,0.2-0.5,0.1c-0.2-0.1-0.2-0.3-0.1-0.5
	s0.3-0.4,0.4-0.7c0.1-0.3,0.2-0.6,0.2-0.9c-0.1-0.2-0.2-0.4-0.3-0.5c-0.2-0.4-0.4-0.8-0.3-1.2c0-0.3,0.2-0.6,0.5-0.8
	c0.2-0.1,0.4-0.1,0.5,0s0.2,0.4,0,0.5c-0.3,0.3-0.3,0.7,0,1.1C26.7,14.8,26.9,15.2,26.9,15.6z"/>
</svg>
