<?xml version="1.0" encoding="utf-8"?>
<!-- Generator: Adobe Illustrator 21.1.0, SVG Export Plug-In . SVG Version: 6.00 Build 0)  -->
<svg version="1.1" id="Capa_1" xmlns="http://www.w3.org/2000/svg" xmlns:xlink="http://www.w3.org/1999/xlink" x="0px" y="0px"
	 viewBox="0 0 41 40" style="enable-background:new 0 0 41 40;" xml:space="preserve">
<style type="text/css">
	.st0{fill:#B49651;}
	.st1{fill:#070707;}
</style>
<circle class="st0" cx="20.8" cy="20" r="13.9"/>
<path class="st0" d="M30.7,33.3c-1.9,1.5-4.3,2.9-8.9,3.4c-3.7,0.4-7.5-1.7-10.1-3.2l-1-0.5c-0.6-0.3-1.4-0.7-2.2-0.8
	C8.4,31.4,8,30.6,7.7,30l-0.5-1C5.8,26.5,3.6,22.7,4,19c0.5-4.6,1.9-7,3.4-8.9c0.6-0.8,1-1.6,1.1-2.4c0.8-0.1,1.6-0.5,2.4-1.1
	c1.9-1.5,4.3-2.9,8.9-3.4c3.7-0.4,7.5,1.7,10.1,3.2l1,0.5c0.6,0.3,1.4,0.7,2.2,0.8c0.1,0.8,0.5,1.6,0.8,2.2l0.5,1
	c1.4,2.5,3.5,6.4,3.2,10.1c-0.5,4.6-1.9,7-3.4,8.9c-0.6,0.8-1,1.6-1.1,2.4C32.3,32.3,31.5,32.7,30.7,33.3L30.7,33.3z M34.4,33
	c0-0.2,0-0.5,0-0.8c0.1-0.5,0.4-1,0.8-1.6c1.5-2,3.2-4.7,3.7-9.6c0.4-4.1-1.8-8.2-3.3-10.9l-0.5-0.9c-0.3-0.6-0.5-1.2-0.6-1.6
	c-0.1-0.7,0-1.2,0.4-1.7c-0.5,0.4-1,0.5-1.7,0.4c-0.5-0.1-1-0.3-1.6-0.6l-0.9-0.5C28,3.7,24,1.4,19.8,1.9c-4.9,0.5-7.6,2.2-9.6,3.7
	C9.6,5.9,9,6.2,8.5,6.3C8.3,6.4,8,6.4,7.7,6.4C7.4,6.3,7.1,6.2,6.9,6C7,6.3,7.2,6.6,7.2,6.9c0,0.2,0,0.5,0,0.8
	c-0.1,0.5-0.4,1-0.8,1.6c-1.5,2-3.2,4.7-3.7,9.6C2.2,23,4.5,27.1,6,29.8l0.5,0.9c0.3,0.6,0.5,1.2,0.6,1.6c0.1,0.7,0,1.2-0.4,1.7
	c0.5-0.4,1-0.5,1.7-0.4c0.5,0.1,1,0.3,1.6,0.6l0.9,0.5c2.7,1.5,6.8,3.8,10.9,3.3c4.9-0.5,7.6-2.2,9.6-3.7c0.6-0.4,1.1-0.7,1.6-0.8
	c0.3-0.1,0.5-0.1,0.8,0c0.3,0,0.6,0.2,0.9,0.3C34.6,33.7,34.5,33.4,34.4,33L34.4,33z"/>
<g>
	<path class="st1" d="M20.8,22.9c-0.1-0.2-0.2-0.4-0.5-0.6c-0.7-0.4-1.6,0.1-1.6,0.9c0,0.5,0,0.9,0,1.4c0,0.6-0.3,0.9-0.9,0.9
		c-1.8,0-3.5,0-5.3,0c-0.4,0-0.8-0.2-1-0.6c-0.4-0.6,0-1.5,0.8-1.6c0.1,0,0.2,0,0.3,0c1.2,0,2.5,0,3.7,0c0.1,0,0.1,0,0.2,0l0,0
		c-0.2-0.3-0.1-0.6,0-0.9c0.6-1.3,1.2-2.7,1.9-4c0.2-0.4,0.4-0.8,0.8-1c0.2-0.1,0.5-0.2,0.7-0.2c0.6,0,1.3,0,1.9,0s1,0.4,1.3,0.9
		c0.7,1.4,1.3,2.9,2,4.3c0.1,0.3,0.2,0.6,0,1c0.1,0,0.2,0,0.2,0c1.3,0,2.6,0,3.9,0c0.4,0,0.8,0.1,1,0.5c0.4,0.7,0,1.5-0.8,1.6
		c-0.1,0-0.2,0-0.3,0c-1.8,0-3.5,0-5.3,0c-0.6,0-0.9-0.3-0.9-0.9c0-0.4,0-0.9,0-1.3s-0.2-0.8-0.6-0.9c-0.4-0.2-0.8-0.1-1.1,0.1
		C21,22.5,20.9,22.7,20.8,22.9z M18.5,21.6C18.5,21.6,18.4,21.6,18.5,21.6c-0.3,0.5-0.6,1.1-0.8,1.7c0.3,0,0.6,0,0.8,0
		C18.5,22.7,18.5,22.1,18.5,21.6z M23.9,23.2c-0.3-0.5-0.5-1.1-0.7-1.6l0,0c0,0.5,0,1.1,0,1.6C23.4,23.2,23.6,23.2,23.9,23.2z"/>
	<path class="st1" d="M20.8,16.7c-1,0-1.9-0.9-1.9-1.9s0.9-1.9,1.9-1.9s1.9,0.9,1.9,1.9C22.7,15.9,21.8,16.7,20.8,16.7z"/>
	<path class="st1" d="M20.5,24.8c0,0.5,0,1,0,1.5s-0.5,0.9-1,0.7c-0.3,0-0.5-0.3-0.5-0.6c0-1,0-2.1,0-3.1c0-0.5,0.3-0.7,0.8-0.7
		c0.4,0,0.7,0.3,0.7,0.8C20.5,23.8,20.5,24.3,20.5,24.8z"/>
	<path class="st1" d="M22.6,24.8c0,0.5,0,1.1,0,1.6s-0.5,0.8-1,0.6c-0.3-0.1-0.5-0.4-0.5-0.7c0-0.6,0-1.2,0-1.9c0-0.4,0-0.8,0-1.2
		c0-0.3,0.3-0.6,0.6-0.7c0.3-0.1,0.7,0.1,0.8,0.4c0.1,0.1,0.1,0.3,0.1,0.4C22.6,23.8,22.6,24.3,22.6,24.8L22.6,24.8z"/>
</g>
<g>
	<path class="st1" d="M25.9,19.1c-0.2-0.3-0.3-0.6-0.1-0.9c-0.2-0.1-0.4-0.2-0.6-0.3c-0.5-0.4-0.5-0.9,0-1.3
		c0.2-0.1,0.4-0.2,0.6-0.4c0-0.1-0.1-0.1-0.1-0.2s-0.1-0.2-0.1-0.2c-0.2-0.1-0.5-0.1-0.7-0.2c-0.1-0.1-0.3-0.1-0.4-0.3
		c-0.3-0.3-0.3-0.7,0-1c0.3-0.2,0.6-0.3,0.9-0.4c0.3,0,0.7,0,1,0.1h0.1c0.5-0.1,1,0,1.4,0.3H28c0.2,0,0.4,0,0.6,0c0.1,0,0.1,0,0.2,0
		c0.5-0.2,1.1-0.2,1.6,0.1c0.1,0,0.1,0,0.2,0.1c0.6,0.4,0.6,1,0,1.3c-0.1,0.1-0.2,0.2-0.3,0.2c-0.2,0.3-0.6,0.5-0.9,0.6
		c0,0-0.1,0-0.2,0.1c0.2,0.4,0.1,0.7-0.2,1c0.1,0.1,0.1,0.1,0.2,0.2c0.3,0.4,0.3,1-0.2,1.3c-0.2,0.2-0.5,0.2-0.8,0.4h-0.1
		c0.1,0.3-0.1,0.6-0.4,0.8c0.1,0,0.1,0,0.1,0.1c0.2,0.2,0.2,0.5,0,0.7s-0.4,0.2-0.7,0.3c-0.4,0-0.7,0-1.1-0.2
		c-0.3-0.2-0.4-0.4-0.2-0.8c-0.3-0.2-0.6-0.3-0.6-0.7C25.3,19.4,25.6,19.2,25.9,19.1z M28.7,16.6c0.2,0,0.3-0.1,0.5-0.1
		c0.3-0.1,0.7-0.2,0.9-0.5c0.1-0.2,0.3-0.3,0.5-0.5c0.3-0.2,0.3-0.5,0-0.7c0,0-0.1-0.1-0.2-0.1c-0.5-0.2-1-0.2-1.5-0.1
		c-0.1,0-0.1,0-0.2,0c-0.2,0-0.5,0-0.7,0c-0.1,0-0.2,0-0.3-0.1c0-0.1-0.2-0.1-0.3-0.2c-0.3-0.1-0.6-0.1-0.8-0.1c-0.1,0-0.2,0-0.3,0
		c-0.5-0.2-1-0.2-1.5,0.1c-0.2,0.1-0.3,0.2-0.3,0.4s0.2,0.3,0.3,0.4c0.2,0.1,0.5,0.2,0.8,0.2c0.1,0,0.1,0,0.2,0
		c-0.1,0.5,0.2,0.7,0.5,0.9c-0.1,0-0.2,0.1-0.4,0.1c-0.3,0.1-0.6,0.2-0.8,0.4c-0.2,0.2-0.2,0.4,0,0.7c0.1,0.1,0.3,0.2,0.5,0.3
		c0.2,0.1,0.4,0.1,0.6,0.2c-0.5,0.5-0.3,0.9,0.2,1.2c-0.1,0-0.3,0.1-0.4,0.1c-0.1,0.1-0.2,0.1-0.3,0.2c-0.2,0.2-0.2,0.4,0,0.6
		c0.1,0.1,0.3,0.2,0.4,0.2c0.1,0.1,0.3,0.1,0.4,0.1c-0.1,0.1-0.2,0.1-0.2,0.1c-0.1,0.1-0.3,0.1-0.2,0.3c0,0.1,0.1,0.2,0.2,0.3
		c0.4,0.2,0.8,0.2,1.2,0c0.1-0.1,0.3-0.1,0.3-0.3c0-0.2-0.1-0.2-0.3-0.3c-0.1-0.1-0.2-0.1-0.4-0.1c0.2-0.1,0.4-0.2,0.6-0.3
		c0.2-0.2,0.2-0.4,0.1-0.6l-0.1-0.1c0.1,0,0.2,0,0.3,0c0.4-0.1,0.7-0.2,1-0.4c0.3-0.3,0.3-0.6,0-0.9c-0.1-0.1-0.3-0.2-0.4-0.3
		c0.1-0.1,0.2-0.2,0.4-0.3c0.2-0.2,0.2-0.5,0-0.7C28.9,16.7,28.8,16.6,28.7,16.6z"/>
</g>
<g>
	<path class="st1" d="M12.9,19.1c-0.2-0.3-0.3-0.6-0.1-0.9c-0.2-0.1-0.4-0.2-0.6-0.3c-0.5-0.4-0.5-0.9,0-1.3
		c0.2-0.1,0.4-0.2,0.6-0.4c0-0.1-0.1-0.1-0.1-0.2s-0.1-0.2-0.1-0.2c-0.2-0.1-0.5-0.1-0.7-0.2c-0.1-0.1-0.3-0.1-0.4-0.3
		c-0.3-0.3-0.3-0.7,0-1c0.3-0.2,0.6-0.3,0.9-0.4c0.3,0,0.7,0,1,0.1h0.1c0.5-0.1,1,0,1.4,0.3H15c0.2,0,0.4,0,0.6,0c0.1,0,0.1,0,0.2,0
		c0.5-0.2,1.1-0.2,1.6,0.1c0.1,0,0.1,0,0.2,0.1c0.6,0.4,0.6,1,0,1.3c-0.1,0.1-0.2,0.2-0.3,0.2c-0.2,0.3-0.6,0.5-0.9,0.6
		c0,0-0.1,0-0.2,0.1c0.2,0.4,0.1,0.7-0.2,1c0.1,0.1,0.1,0.1,0.2,0.2c0.3,0.4,0.3,1-0.2,1.3c-0.2,0.2-0.5,0.2-0.8,0.4h-0.1
		c0.1,0.3-0.1,0.6-0.4,0.8c0.1,0,0.1,0,0.1,0.1c0.2,0.2,0.2,0.5,0,0.7s-0.4,0.2-0.7,0.3c-0.4,0-0.7,0-1.1-0.2
		c-0.3-0.2-0.4-0.4-0.2-0.8c-0.3-0.2-0.6-0.3-0.6-0.7C12.3,19.4,12.6,19.2,12.9,19.1z M15.7,16.6c0.2,0,0.3-0.1,0.5-0.1
		c0.3-0.1,0.7-0.2,0.9-0.5c0.1-0.2,0.3-0.3,0.5-0.5c0.3-0.2,0.3-0.5,0-0.7c0,0-0.1-0.1-0.2-0.1c-0.5-0.2-1-0.2-1.5-0.1
		c-0.1,0-0.1,0-0.2,0c-0.2,0-0.5,0-0.7,0c-0.1,0-0.2,0-0.3-0.1c0-0.1-0.2-0.1-0.3-0.2c-0.3-0.1-0.6-0.1-0.8-0.1c-0.1,0-0.2,0-0.3,0
		c-0.5-0.2-1-0.2-1.5,0.1c-0.2,0.1-0.3,0.2-0.3,0.4s0.2,0.3,0.3,0.4c0.2,0.1,0.5,0.2,0.8,0.2c0.1,0,0.1,0,0.2,0
		c-0.1,0.5,0.2,0.7,0.5,0.9c-0.1,0-0.2,0.1-0.4,0.1c-0.3,0.1-0.6,0.2-0.8,0.4c-0.2,0.2-0.2,0.4,0,0.7c0.1,0.1,0.3,0.2,0.5,0.3
		c0.2,0.1,0.4,0.1,0.6,0.2c-0.5,0.5-0.3,0.9,0.2,1.2c-0.1,0-0.3,0.1-0.4,0.1c-0.1,0.1-0.2,0.1-0.3,0.2c-0.2,0.2-0.2,0.4,0,0.6
		c0.1,0.1,0.3,0.2,0.4,0.2c0.1,0.1,0.3,0.1,0.4,0.1c-0.1,0.1-0.2,0.1-0.2,0.1c-0.1,0.1-0.3,0.1-0.2,0.3c0,0.1,0.1,0.2,0.2,0.3
		c0.4,0.2,0.8,0.2,1.2,0c0.1-0.1,0.3-0.1,0.3-0.3c0-0.2-0.1-0.2-0.3-0.3c-0.1-0.1-0.2-0.1-0.4-0.1c0.2-0.1,0.4-0.2,0.6-0.3
		c0.2-0.2,0.2-0.4,0.1-0.6l-0.1-0.1c0.1,0,0.2,0,0.3,0c0.4-0.1,0.7-0.2,1-0.4c0.3-0.3,0.3-0.6,0-0.9c-0.1-0.1-0.3-0.2-0.4-0.3
		c0.1-0.1,0.2-0.2,0.4-0.3c0.2-0.2,0.2-0.5,0-0.7C15.9,16.7,15.8,16.6,15.7,16.6z"/>
</g>
</svg>
